<svg xmlns="http://www.w3.org/2000/svg" viewBox="0 0 164.2 130.7"><g opacity=".1"><path d="M25 45v-5H13.7l8-8H17l8-8h-4.8l8-8.2 8 8h-4.7l8 8.2h-4.8l8 8H31.6v5H25z" fill="#f44336"/><path d="M70 25l-2.6 4.4c-.5 1-1.4 1.3-2.3 1.3h-2v2l-2.4-4.5 2.5-4.5v2h3l-2.3-4 4.3-2.4 1.8 3c.5 1 .6 2 0 2.8M57.4 12.8h5c1 0 1.8.6 2.2 1.4l1 2 1.7-1-2.6 4.3h-5l1.6-1-1.4-2.4-2.2 3.8-4.4-2.5L55 14c.4-.7 1.3-1.3 2.3-1.3M53 29.4L50.7 25c-.5-.7-.4-1.8 0-2.5l1-1.8-1.6-1h5l2.8 4.5-1.8-1-1.4 2.5H59v5h-3.5c-1 0-2-.4-2.4-1.3z" fill="#ff5722"/><path d="M13.6 103.5c3.2 0 5.8-2 7-4.7h-14c1.2 2.7 4 4.7 7 4.7M9 94.7a2 2 0 0 0 2-2 2 2 0 0 0-2-2 2 2 0 0 0-2.2 2 2 2 0 0 0 2 2m9.5 0a2 2 0 0 0 2-2 2 2 0 0 0-2-2 2 2 0 0 0-2 2 2 2 0 0 0 2 2M13.6 107A10.8 10.8 0 0 1 2.8 96a10.8 10.8 0 0 1 10.8-10.8 10.8 10.8 0 0 1 10.8 11 10.8 10.8 0 0 1-10.8 10.7m0-24.5C6 82.5 0 88.5 0 96a13.5 13.5 0 0 0 13.6 13.6A13.5 13.5 0 0 0 27 96a13.5 13.5 0 0 0-13.4-13.5z" fill="#8bc34a"/><path d="M65 72a5 5 0 0 1-5-5 5 5 0 0 1 5-5 5 5 0 0 1 5 5 5 5 0 0 1-5 5m0-12.3a7.2 7.2 0 0 0-7 7.2 7.2 7.2 0 0 0 7 7 7.2 7.2 0 0 0 7.3-7 7.2 7.2 0 0 0-7.2-7.3m14.2-3h6v-2.4h-4.6l-2.8-4.7c-.4-.8-1.2-1.2-2-1.2-.7 0-1.4.2-1.8.7l-5.3 5.4c-.5.4-.7 1-.7 1.7 0 1 .4 1.8 1.2 2.2l4.8 3v7h2.6V59l-3.2-2.4 3.3-3.3M85.2 72a5 5 0 0 1-5-5 5 5 0 0 1 5-5 5 5 0 0 1 5 5 5 5 0 0 1-5 5m0-12.3A7.2 7.2 0 0 0 78 67a7.2 7.2 0 0 0 7.2 7 7.2 7.2 0 0 0 7.2-7 7.2 7.2 0 0 0-7.2-7.3M81 49.4c1.3 0 2.5-1.2 2.5-2.6 0-1.5-1.2-2.6-2.6-2.6-1.5 0-2.7 1-2.7 2.6 0 1.4 1.2 2.6 2.6 2.6z" fill="#cddc39"/><path d="M5.5 44.2A5.5 5.5 0 0 0 0 49.7c0 .5 0 1 .2 1.5h4l1.4-3.4c.3-.8 1.5-1 1.8 0l2 5.4.7-1.4c.2-.4.6-.6 1-.6h8.8l.2-1.5a5.5 5.5 0 0 0-5.5-5.5c-2 0-3.5 1-4.5 2.3-1-1.4-2.6-2.3-4.5-2.3M1 52.7a1 1 0 0 0-1 1 1 1 0 0 0 1 1h2.4L9 60.2c1 1 1 1 2 0l5.6-5.5H19a1 1 0 0 0 1-1 1 1 0 0 0-1-1h-7.6l-1 2.3c-.3 1-1.5 1-1.8 0l-2-5.3-1 2.3c-.2.4-.5.7-1 .7H1z" fill="#03a9f4"/><path d="M29.5 55.4h4l-.7 8 6.4-4.8 2 3.5-7.2 3.4 7.2 3.2-2 3.5-6.4-4.5.7 8h-4l.8-8L24 72l-2-3.4 7-3.2-7-3.3 2-3.4 6.3 4.7-.8-8z" fill="#f44336"/><path d="M106.4 6.8c-12.2 2.7-15 11-18 18l2.7 1 1.4-3.2c.6.2 1.3.4 1.8.4 15 0 19-23 19-23-1.4 2.7-11 3-17.7 4.4-6.7 1.4-9.4 7-9.4 9.8 0 2.7 2.4 5 2.4 5C92.8 7 106.4 7 106.4 7z" fill="#4caf50"/><path d="M116 28.2L115 31 112 32l2.8 1.2 1.3 2.8 1.3-2.8 2.8-1.2-2.7-1.3M106 31l-2.4 5.5-5.5 2.5 5.6 2.5 2.5 5.5 2.6-5.5 5.5-2.5-5.4-2.5m7.5 5.5L115 45 112 46l2.8 1.2 1.3 2.8 1.3-2.8 2.8-1.2-2.7-1.3" fill="#3f51b5"/><path d="M58.3 98.6c-.3-.8-1-1.3-2-1.3h-1v-3a1 1 0 0 0-1-1h-6v-2h2a1 1 0 0 0 1-1v-2h2a2 2 0 0 0 2-2v-.5c3 1.2 5 4 5 7.5 0 2-.7 4-2 5.3m-7 2.6c-4-.5-7-4-7-8 0-.6.2-1.2.3-1.7l4.8 4.8v1a2 2 0 0 0 2 2m1-16a10 10 0 0 0-10 10 10 10 0 0 0 10 10 10 10 0 0 0 10-10 10 10 0 0 0-10-10z" fill="#009688"/><path d="M97 114.2v-15a1.7 1.7 0 0 0-1.5-1.6H74a1.7 1.7 0 0 0-1.7 1.7v23L79 116h16.5a1.7 1.7 0 0 0 1.6-1.6m6.7-10h-3.3v15H79v3.2a1.7 1.7 0 0 0 1.5 1.7h18.3l6.6 6.7V106a1.7 1.7 0 0 0-1.7-1.8z" fill="#673ab7"/><path d="M121.4 71a19 19 0 0 0-19 19h3.3c0-8.6 7-15.6 15.7-15.6 8.6 0 15.6 7 15.6 15.6h3.4a19 19 0 0 0-19-19m0 6.8c-6.7 0-12.2 5.5-12.2 12.2h3.5a8.7 8.7 0 0 1 8.7-8.7A8.7 8.7 0 0 1 130 90h3.5c0-6.7-5.4-12.2-12-12.2z" fill="#e91e63"/><path d="M148.3 47.2a8.4 8.4 0 0 1-8.4-8.4 8.4 8.4 0 0 1 8.3-8.5 8.4 8.4 0 0 1 8.5 8.5 8.4 8.4 0 0 1-8.5 8.4m11.3-3.8l4.6-4.6-4.6-4.7v-6.5H153l-4.7-4.6-4.6 4.5H137V34l-4.5 4.8 4.6 4.6V50h6.7l4.6 4.6L153 50h6.6v-6.6z" fill="#ff9800"/></g></svg>