<svg xmlns="http://www.w3.org/2000/svg" viewBox="0 0 735.33 550.87"><g transform="translate(-26.55 -116.93)" opacity=".15"><rect width="397.25" height="477.25" x="161.37" y="153.74" ry="16.94" fill="#fff" stroke="#000" stroke-width="2.75" stroke-linejoin="round" stroke-miterlimit="43.8" stroke-dashoffset="15"/><path d="M160 181.86h400" fill="none" stroke="#000" stroke-width=".93"/><circle cx="206" cy="166.36" r="6"/><circle cx="226" cy="166.36" r="6"/><circle cx="246" cy="166.36" r="6"/></g><g transform="translate(-26.55 -116.93)" opacity=".15"><rect width="192.82" height="30" x="200" y="212.36" ry="15"/><rect width="83.83" height="30" x="417.97" y="212.36" ry="15"/><rect width="125.75" height="30" x="200" y="262.36" ry="15"/><rect width="167.67" height="30" x="350.9" y="262.36" ry="15"/><rect width="41.92" height="30" x="200" y="312.36" ry="15"/><rect width="150.9" height="30" x="267.07" y="312.36" ry="15"/><rect width="83.83" height="30" x="200" y="362.36" ry="15"/><rect width="125.75" height="30" x="308.98" y="362.36" ry="15"/><rect width="33.53" height="30" x="459.89" y="362.36" ry="15"/><rect width="251.5" height="30" x="200" y="412.36" ry="15"/><rect width="125.75" height="30" x="200" y="462.36" ry="15"/><rect width="150.9" height="30" x="350.9" y="462.36" ry="15"/><rect width="33.53" height="30" x="200" y="512.36" ry="15"/><rect width="125.75" height="30" x="258.68" y="512.36" ry="15"/><rect width="58.68" height="30" x="409.59" y="512.36" ry="15"/><rect width="100.6" height="30" x="200" y="562.36" ry="15"/><rect width="167.67" height="30" x="325.75" y="562.36" ry="15"/></g><g transform="translate(-26.55 -116.93)" opacity=".4"><rect width="302" height="30" x="200" y="212.36" ry="15" fill="#0624ff"/><rect width="52" height="30" x="466.57" y="262.36" ry="15" fill="#0624ff"/><rect width="83.83" height="30" x="200" y="362.36" ry="15" fill="#00bf00"/><rect width="251.5" height="30" x="200" y="412.36" ry="15" fill="#00bf00"/><rect width="41.92" height="30" x="200" y="312.36" ry="15" fill="#00bf00"/><rect width="210.9" height="30" x="258" y="512.36" ry="15" fill="red"/><rect width="168" height="30" x="325" y="562.36" ry="15" fill="red"/></g><g opacity=".4" fill="none" stroke-width="30" stroke-linecap="round" stroke-linejoin="round" stroke-dashoffset="15"><path d="M409.23 111.43c0 26.14 21.2 47.32 47.32 47.32" stroke="#0624ff"/><path d="M235.98 260.22c0-26.13-21.18-47.32-47.32-47.32M233.45 263.1c0 26.15 21.2 47.33 47.32 47.33" stroke="#00bf00"/><path d="M346.97 460.22c0-26.13 21.2-47.32 47.32-47.32" stroke="red"/></g><path d="M643.08 211.7h-28.2c-2.24 0-4.03 1.8-4.03 4.02v28.2c0 2.2 1.8 4.03 4.03 4.03H643.08c2.2 0 4.03-1.82 4.03-4.03v-28.2c0-2.2-1.8-4.03-4.02-4.03z" fill="#fff"/><path d="M643.08 211.7h-28.2c-2.24 0-4.03 1.8-4.03 4.02v28.2c0 2.2 1.8 4.03 4.03 4.03H643.08c2.2 0 4.03-1.82 4.03-4.03v-28.2c0-2.2-1.8-4.03-4.02-4.03zm-14.1 6.64c3 0 5.44 2.44 5.44 5.44 0 3-2.44 5.44-5.44 5.44-3 0-5.44-2.44-5.44-5.44 0-3 2.44-5.44 5.44-5.44zm12.08 21.55H616.9v-1.82c0-1.57 1.22-2.87 2.96-3.86 2.7-1.56 6.66-2.4 9.12-2.4 4.03 0 12.08 2.23 12.08 6.26z" opacity=".15"/><path d="M617.02 223.5h78.9v78.9h-78.9z" fill="none"/><path d="M653.37 230.45c-18.15 0-32.88 14.73-32.88 32.88 0 18.15 14.72 32.88 32.87 32.88s32.88-14.72 32.88-32.87-14.73-32.88-32.88-32.88z" fill="#fff"/><path d="M653.37 230.45c-18.15 0-32.88 14.73-32.88 32.88 0 18.15 14.72 32.88 32.87 32.88s32.88-14.72 32.88-32.87-14.73-32.88-32.88-32.88zm3.3 55.9h-6.6v-6.58h6.6zm6.8-25.48l-2.97 3.02c-2.37 2.4-3.84 4.36-3.84 9.3h-6.58v-1.65c0-3.62 1.48-6.9 3.85-9.3l4.07-4.15c1.22-1.18 1.94-2.82 1.94-4.63 0-3.62-2.96-6.58-6.57-6.58-3.62 0-6.58 2.95-6.58 6.57h-6.58c0-7.27 5.88-13.15 13.15-13.15 4.92 0 9.2 2.7 11.47 6.7 1.07 1.9 1.68 4.1 1.68 6.45 0 2.9-1.18 5.52-3.06 7.4z" fill="#838fe7"/><path d="M619.1 205.74h80.8v80.8h-80.8z" fill="none"/><path d="M488.1 109.83c125.3 0 165.8 56.5 165.8 116.34" fill="none" stroke="#000" stroke-width="3" stroke-dasharray="12 12"/><g><path d="M472.73 462.82s122.84.9 122.84-58.3" fill="none" stroke="#000" stroke-width="3" stroke-dasharray="12 12"/><path d="M582.24 317.4h-28.2c-2.23 0-4.03 1.82-4.03 4.04v28.2c0 2.2 1.8 4.02 4.04 4.02H582.24c2.22 0 4.03-1.8 4.03-4.02v-28.2c0-2.22-1.8-4.03-4.03-4.03z" fill="#fff"/><path d="M582.24 317.4h-28.2c-2.23 0-4.03 1.82-4.03 4.04v28.2c0 2.2 1.8 4.02 4.04 4.02H582.24c2.22 0 4.03-1.8 4.03-4.02v-28.2c0-2.22-1.8-4.03-4.03-4.03zm-14.1 6.66c3 0 5.44 2.43 5.44 5.43 0 3-2.44 5.43-5.44 5.43-3 0-5.44-2.43-5.44-5.44 0-3 2.44-5.44 5.44-5.44zm12.1 21.55h-24.18v-1.8c0-1.58 1.22-2.87 2.96-3.87 2.7-1.56 6.66-2.38 9.12-2.38 4.03 0 12.1 2.22 12.1 6.24z" opacity=".15"/><path d="M556.18 329.2h78.9v78.9h-78.9z" fill="none"/><path d="M558.27 311.46h80.8v80.8h-80.8z" fill="none"/><path d="M556.18 329.2h78.9v78.9h-78.9z" fill="none"/><path d="M595.63 335.78c-18.14 0-32.87 14.73-32.87 32.88 0 18.15 14.73 32.87 32.87 32.87 18.15 0 32.88-14.72 32.88-32.87s-14.72-32.88-32.87-32.88zm3.3 49.32h-6.58v-6.58h6.57v6.58zm0-13.15h-6.58v-19.73h6.57v19.73z" fill="#e78282"/></g><g><path d="M84.56 254.73c0-45.6 79.87-45.24 79.87-45.24" fill="none" stroke="#000" stroke-width="3" stroke-dasharray="12 12"/><path d="M67.66 246.06h-28.2c-2.23 0-4.03 1.82-4.03 4.03v28.2c0 2.2 1.8 4.02 4.03 4.02H67.66c2.2 0 4.03-1.82 4.03-4.03v-28.2c0-2.22-1.83-4.04-4.04-4.04z" fill="#fff"/><path d="M67.66 246.06h-28.2c-2.23 0-4.03 1.82-4.03 4.03v28.2c0 2.2 1.8 4.02 4.03 4.02H67.66c2.2 0 4.03-1.82 4.03-4.03v-28.2c0-2.22-1.83-4.04-4.04-4.04zm-14.1 6.65c3 0 5.44 2.45 5.44 5.45s-2.44 5.44-5.44 5.44c-3 0-5.44-2.45-5.44-5.45s2.44-5.44 5.44-5.44zm12.08 21.56H41.48v-1.8c0-1.58 1.22-2.88 2.96-3.88 2.7-1.55 6.66-2.38 9.12-2.38 4.03 0 12.08 2.22 12.08 6.25z" opacity=".15"/><path d="M41.6 257.86h78.9v78.9H41.6z" fill="none"/><path d="M43.7 240.1h80.78v80.8h-80.8z" fill="none"/><path d="M41.6 257.86h78.9v78.9H41.6z" fill="none"/><path d="M81.05 264.44c-18.14 0-32.87 14.73-32.87 32.87 0 18.16 14.73 32.9 32.87 32.9 18.15 0 32.88-14.74 32.88-32.9 0-18.13-14.73-32.86-32.88-32.86zM97.5 300.6H84.33v13.15h-6.57V300.6H64.62v-6.58h13.15v-13.15h6.57v13.15H97.5v6.58z" fill="#82cd82"/></g></svg>