<svg xmlns="http://www.w3.org/2000/svg" viewBox="0 0 1417.32 885.83"><g opacity=".15" fill="none" stroke="#000"><path d="M655.96 521.6L817.6 669.1" stroke-width="4"/><path d="M764.43 687.42l-324 36.08M361.38 698.54l-158.35-36.66" stroke-width="3.67"/><path d="M205.6 245.92l-49.02 106.92" stroke-width="3.79"/><path d="M514.2 390.44l-257.33-151.8" stroke-width="3.67"/><path d="M648.9 190.28l-54.56 185.87M672.76 478.74l377.8-30.3M908.13 250.44L1184.9 137.3M924.3 306l131.3 101M1257.64 182.76l-109.1 232.34" stroke-width="4"/></g><path d="M2007.1 1524.34h-14c-1.1 0-2 .9-2 2v14c0 1.1.9 2 2 2h4l3 3 3-3h4c1.1 0 2-.9 2-2v-14c0-1.1-.9-2-2-2zm-7 3.3c1.5 0 2.7 1.2 2.7 2.7 0 1.5-1.2 2.7-2.7 2.7-1.5 0-2.7-1.2-2.7-2.7 0-1.5 1.2-2.7 2.7-2.7zm6 10.7h-12v-.9c0-2 4-3.1 6-3.1s6 1.1 6 3.1v.9z"/><path d="M1988.1 1522.34h24v24h-24z" fill="none"/><g><path d="M265.04 163.66H197.6c-5.33 0-9.62 4.55-9.62 10.1v70.72c0 5.56 4.3 10.1 9.63 10.1h67.44c5.3 0 9.63-4.54 9.63-10.1v-70.72c0-5.55-4.33-10.1-9.63-10.1zm-33.72 16.67c7.18 0 13 6.1 13 13.64 0 7.52-5.82 13.64-13 13.64-7.17 0-13-6.1-13-13.63 0-7.53 5.83-13.64 13-13.64zm28.9 54.05h-57.8v-4.55c0-10.1 19.27-15.66 28.9-15.66 9.64 0 28.9 5.56 28.9 15.66z" fill="#009688"/><path d="M869.15 658.63H773.4c-7.6 0-13.67 6.46-13.67 14.35V773.4c0 7.9 6.08 14.35 13.67 14.35h95.75c7.53 0 13.68-6.46 13.68-14.35V672.98c0-7.9-6.15-14.35-13.68-14.35zm-47.87 23.68c10.2 0 18.46 8.68 18.46 19.37 0 10.7-8.27 19.37-18.46 19.37-10.2 0-18.47-8.68-18.47-19.37 0-10.7 8.3-19.36 18.48-19.36zm41.03 76.76h-82.06v-6.46c0-14.34 27.36-22.23 41.04-22.23s41.03 7.9 41.03 22.23z" fill="#9c27b0"/><path d="M658.44 365.7h-135c-10.7 0-19.28 8.67-19.28 19.27v135c0 10.6 8.58 19.28 19.28 19.28h135.01c10.6 0 19.28-8.68 19.28-19.28v-135c0-10.6-8.68-19.28-19.28-19.28zm-67.5 31.8c14.37 0 26.03 11.68 26.03 26.04 0 14.37-11.66 26.04-26.03 26.04-14.37 0-26.04-11.67-26.04-26.04 0-14.36 11.67-26.03 26.04-26.03zM648.8 500.7H533.07V492c0-19.28 38.57-29.9 57.86-29.9 19.28 0 57.85 10.62 57.85 29.9z" fill="#f44336"/><path d="M206.67 610.15h-80c-6.34 0-11.42 5.14-11.42 11.42v80c0 6.3 5.08 11.43 11.43 11.43h79.99c6.3 0 11.43-5.14 11.43-11.43v-80c0-6.28-5.14-11.42-11.43-11.42zm-40 18.85c8.52 0 15.43 6.92 15.43 15.43 0 8.5-6.9 15.43-15.42 15.43s-15.43-6.92-15.43-15.43c0-8.5 6.9-15.43 15.43-15.43zm34.3 61.14h-68.58V685c0-11.43 22.85-17.7 34.28-17.7 11.42 0 34.28 6.27 34.28 17.7z" fill="#e91e63"/><path d="M922.1 234.37h-64.3c-5.1 0-9.18 4.13-9.18 9.18v64.3c0 5.04 4.1 9.17 9.18 9.17h64.29c5.04 0 9.17-4.13 9.17-9.18v-64.3c0-5.04-4.13-9.17-9.18-9.17zm-32.16 15.15c6.85 0 12.4 5.56 12.4 12.4 0 6.84-5.55 12.4-12.4 12.4-6.84 0-12.4-5.56-12.4-12.4 0-6.84 5.56-12.4 12.4-12.4zm27.55 49.13h-55.1v-4.13c0-9.18 18.36-14.23 27.54-14.23 9.2 0 27.55 5.04 27.55 14.22z" fill="#ffc107"/><path d="M1291.8 56.58h-106.7c-8.47 0-15.25 6.86-15.25 15.25v106.7c0 8.4 6.78 15.25 15.24 15.25h106.71c8.4 0 15.25-6.86 15.25-15.24V71.84c0-8.4-6.86-15.26-15.25-15.26zm-53.35 25.16c11.35 0 20.58 9.22 20.58 20.58 0 11.35-9.23 20.58-20.58 20.58-11.36 0-20.58-9.23-20.58-20.58 0-11.36 9.22-20.58 20.58-20.58zm45.73 81.55h-91.47v-6.87c0-15.24 30.5-23.63 45.75-23.63 15.24 0 45.73 8.4 45.73 23.63z" fill="#cddc39"/><path d="M157.06 326.3h-45.42c-3.6 0-6.5 2.9-6.5 6.48v45.43c0 3.58 2.9 6.5 6.5 6.5h45.42c3.57 0 6.5-2.92 6.5-6.5V332.8c0-3.57-2.93-6.5-6.5-6.5zm-22.7 10.7c4.82 0 8.75 3.93 8.75 8.76 0 4.84-3.92 8.76-8.75 8.76s-8.76-3.92-8.76-8.76c0-4.83 3.92-8.76 8.75-8.76zm19.46 34.72h-38.94v-2.92c0-6.5 12.98-10.06 19.47-10.06 6.5 0 19.47 3.57 19.47 10.06z" fill="#ff5722"/><path d="M439.68 673.8H364.4c-5.97 0-10.76 4.83-10.76 10.74v75.28c0 5.92 4.8 10.76 10.76 10.76H439.67c5.93 0 10.77-4.84 10.77-10.76v-75.28c0-5.9-4.84-10.75-10.76-10.75zm-37.64 17.73c8 0 14.52 6.5 14.52 14.52 0 8-6.5 14.52-14.52 14.52-8 0-14.52-6.5-14.52-14.52 0-8 6.5-14.52 14.52-14.52zm32.26 57.54h-64.52v-4.84c0-10.76 21.5-16.67 32.26-16.67 10.76 0 32.26 5.9 32.26 16.67z" fill="#795548"/><path d="M1140.4 393.97h-84.72c-6.72 0-12.1 5.45-12.1 12.1v84.72c0 6.64 5.38 12.1 12.1 12.1h84.7c6.67 0 12.1-5.46 12.1-12.1v-84.72c0-6.66-5.43-12.1-12.1-12.1zm-42.36 19.97c9 0 16.33 7.32 16.33 16.34 0 9-7.32 16.34-16.33 16.34-9.02 0-16.34-7.33-16.34-16.34 0-9.02 7.32-16.34 16.34-16.34zm36.3 64.74h-72.6v-5.44c0-12.1 24.2-18.76 36.3-18.76 12.1 0 36.3 6.66 36.3 18.76z" fill="#607d8b"/><path d="M696.04 86.9h-91c-7.2 0-13 5.84-13 13v90.98c0 7.15 5.8 13 13 13h91c7.15 0 13-5.85 13-13v-91c0-7.14-5.85-13-13-13zm-45.5 21.44c9.68 0 17.55 7.86 17.55 17.55 0 9.67-7.88 17.54-17.56 17.54-9.7 0-17.55-7.87-17.55-17.55 0-9.7 7.85-17.56 17.54-17.56zm39 69.54h-78v-5.85c0-13 26-20.15 39-20.15s39 7.15 39 20.15z" fill="#00bcd4"/></g></svg>