<svg xmlns="http://www.w3.org/2000/svg" viewBox="0 0 1490.43 614.4"><defs><filter id="a" color-interpolation-filters="sRGB"><feFlood flood-opacity=".5" flood-color="#A8A8A8" result="flood"/><feComposite in="flood" in2="SourceGraphic" operator="in" result="composite1"/><feGaussianBlur in="composite1" stdDeviation="15" result="blur"/><feOffset dy="15" result="offset"/><feComposite in="SourceGraphic" in2="offset" result="fbSourceGraphic"/><feColorMatrix result="fbSourceGraphicAlpha" in="fbSourceGraphic" values="0 0 0 -1 0 0 0 0 -1 0 0 0 0 -1 0 0 0 0 1 0"/><feFlood flood-opacity=".5" flood-color="#A8A8A8" result="flood"/><feComposite in2="fbSourceGraphic" in="flood" operator="in" result="composite1"/><feGaussianBlur in="composite1" stdDeviation="15" result="blur"/><feOffset dy="15" result="offset"/><feComposite in2="offset" in="fbSourceGraphic" result="composite2"/></filter><filter id="b" color-interpolation-filters="sRGB"><feFlood flood-opacity=".5" flood-color="#A8A8A8" result="flood"/><feComposite in="flood" in2="SourceGraphic" operator="in" result="composite1"/><feGaussianBlur in="composite1" stdDeviation="15" result="blur"/><feOffset dy="15" result="offset"/><feComposite in="SourceGraphic" in2="offset" result="fbSourceGraphic"/><feColorMatrix result="fbSourceGraphicAlpha" in="fbSourceGraphic" values="0 0 0 -1 0 0 0 0 -1 0 0 0 0 -1 0 0 0 0 1 0"/><feFlood flood-opacity=".5" flood-color="#A8A8A8" result="flood"/><feComposite in2="fbSourceGraphic" in="flood" operator="in" result="composite1"/><feGaussianBlur in="composite1" stdDeviation="15" result="blur"/><feOffset dy="15" result="offset"/><feComposite in2="offset" in="fbSourceGraphic" result="composite2"/></filter><filter id="c" color-interpolation-filters="sRGB"><feFlood flood-opacity=".5" flood-color="#A8A8A8" result="flood"/><feComposite in="flood" in2="SourceGraphic" operator="in" result="composite1"/><feGaussianBlur in="composite1" stdDeviation="15" result="blur"/><feOffset dy="15" result="offset"/><feComposite in="SourceGraphic" in2="offset" result="fbSourceGraphic"/><feColorMatrix result="fbSourceGraphicAlpha" in="fbSourceGraphic" values="0 0 0 -1 0 0 0 0 -1 0 0 0 0 -1 0 0 0 0 1 0"/><feFlood flood-opacity=".5" flood-color="#A8A8A8" result="flood"/><feComposite in2="fbSourceGraphic" in="flood" operator="in" result="composite1"/><feGaussianBlur in="composite1" stdDeviation="15" result="blur"/><feOffset dy="15" result="offset"/><feComposite in2="offset" in="fbSourceGraphic" result="composite2"/></filter><filter id="d" color-interpolation-filters="sRGB"><feFlood flood-opacity=".37" flood-color="#363636" result="flood"/><feComposite in="flood" in2="SourceGraphic" operator="in" result="composite1"/><feGaussianBlur in="composite1" stdDeviation="5" result="blur"/><feOffset dy="5" result="offset"/><feComposite in="SourceGraphic" in2="offset" result="composite2"/></filter><filter id="e" color-interpolation-filters="sRGB"><feFlood flood-opacity=".37" flood-color="#363636" result="flood"/><feComposite in="flood" in2="SourceGraphic" operator="in" result="composite1"/><feGaussianBlur in="composite1" stdDeviation="5" result="blur"/><feOffset dy="5" result="offset"/><feComposite in="SourceGraphic" in2="offset" result="composite2"/></filter><filter id="f" color-interpolation-filters="sRGB"><feFlood flood-opacity=".37" flood-color="#363636" result="flood"/><feComposite in="flood" in2="SourceGraphic" operator="in" result="composite1"/><feGaussianBlur in="composite1" stdDeviation="5" result="blur"/><feOffset dy="5" result="offset"/><feComposite in="SourceGraphic" in2="offset" result="composite2"/></filter></defs><g transform="translate(958.92 51.2)" filter="url(#a)"><path d="M441.41 140.24v338.78A32.99 32.99 0 0 1 408.43 512H103.57a32.98 32.98 0 0 1-32.98-32.98V32.98A32.98 32.98 0 0 1 103.57 0h197.6l140.24 140.24z" fill="#fbbb00"/><path fill="#e2a203" d="M441.41 140.24l-68.66-20.28-52.44 17.23 121.1 49.89z"/><path d="M441.41 140.24H334.16a32.98 32.98 0 0 1-32.98-32.99V0L441.4 140.24z" fill="#f4d37d"/><g fill="none" stroke="#fff" stroke-width="15" stroke-linecap="round" stroke-linejoin="round" stroke-miterlimit="10"><path d="M323.24 233.47H188.75a22.57 22.57 0 0 0-22.57 22.57v134.49a22.57 22.57 0 0 0 22.57 22.57h134.49a22.57 22.57 0 0 0 22.57-22.57V256.04a22.57 22.57 0 0 0-22.57-22.57z"/><path d="M199.9 282.45h112.2v81.66H199.9z"/></g></g><g transform="translate(481.78 51.2)" filter="url(#b)"><path d="M441.41 140.24v338.78A32.99 32.99 0 0 1 408.43 512H103.57a32.98 32.98 0 0 1-32.98-32.98V32.98A32.98 32.98 0 0 1 103.57 0h197.6l140.24 140.24z" fill="#28b446"/><path fill="#219b38" d="M441.41 187.08v-46.84l-68.66-20.28-52.44 17.23z"/><path d="M441.41 140.24H334.16a32.98 32.98 0 0 1-32.98-32.99V0L441.4 140.24z" fill="#6ace7c"/><path d="M337.12 254.95H174.88a10.54 10.54 0 0 0-10.54 10.53v141.17c0 5.82 4.72 10.54 10.54 10.54h162.24c5.82 0 10.53-4.72 10.53-10.54V265.48c0-5.82-4.71-10.53-10.53-10.53zm-151.7 67.73h60.04v26.78h-60.05v-26.78zm81.11 0h60.05v26.78h-60.05v-26.78zm60.05-21.07h-60.05v-25.6h60.05v25.6zm-81.12-25.6v25.6h-60.05v-25.6h60.05zm-60.05 94.52h60.05v25.59h-60.05v-25.6zm81.12 25.59v-25.6h60.05v25.6h-60.05z" fill="#fff"/></g><g transform="translate(7.5 51.2)" filter="url(#c)"><path d="M441.41 140.24v338.78A32.99 32.99 0 0 1 408.43 512H103.57a32.98 32.98 0 0 1-32.98-32.98V32.98A32.98 32.98 0 0 1 103.57 0h197.6l140.24 140.24z" fill="#518ef8"/><g fill="#fff"><path d="M161.18 257.05h189.63v21.07H161.18zM161.18 304.11h189.63v21.07H161.18zM161.18 351.17h189.63v21.07H161.18zM161.18 398.23h134.85v21.07H161.18z"/></g><path fill="#3a5bbc" d="M441.41 187.08v-46.84l-68.66-20.28-52.44 17.23z"/><path d="M441.41 140.24H334.16a32.98 32.98 0 0 1-32.98-32.99V0L441.4 140.24z" fill="#acd1fc"/></g><g><path style="line-height:normal;text-indent:0;text-align:start;text-decoration-line:none;text-decoration-style:solid;text-decoration-color:#000;text-transform:none;block-progression:tb;isolation:auto;mix-blend-mode:normal" d="M175.2 351.08a15 15 0 1 0 0 30h137.15a15 15 0 1 0 0-30H175.2z" color="#000" font-weight="400" font-family="sans-serif" white-space="normal" overflow="visible" fill="#28b446" fill-opacity=".73" fill-rule="evenodd" stroke-width="30" stroke-linecap="round"/><path d="M83.1 264.44a32.89 32.89 0 0 0 0 65.77 32.89 32.89 0 0 0 0-65.76z" transform="matrix(2.09555 0 0 2.09555 -91.47 -276.97)" fill="#fff" filter="url(#d)"/><path d="M82.66 277.18a68.92 68.92 0 0 0 0 137.82 68.95 68.95 0 0 0 68.9-68.94c0-38-30.87-68.86-68.9-68.86zm34.47 75.77h-27.6v27.56H75.76v-27.56H48.23v-13.79h27.56v-27.55h13.76v27.55h27.58v13.8z" fill="#28b446"/><path style="line-height:normal;text-indent:0;text-align:start;text-decoration-line:none;text-decoration-style:solid;text-decoration-color:#000;text-transform:none;block-progression:tb;isolation:auto;mix-blend-mode:normal" d="M175.2 302.8a15 15 0 1 0 0 30h75.53a15 15 0 1 0 0-30H175.2z" color="#000" font-weight="400" font-family="sans-serif" white-space="normal" overflow="visible" fill="#28b446" fill-opacity=".73" fill-rule="evenodd" stroke-width="30" stroke-linecap="round"/><path style="line-height:normal;text-indent:0;text-align:start;text-decoration-line:none;text-decoration-style:solid;text-decoration-color:#000;text-transform:none;block-progression:tb;isolation:auto;mix-blend-mode:normal" d="M664.58 408.1a12.97 27.15 0 1 0 0 54.3h65.3a12.97 27.15 0 1 0 0-54.3h-65.3z" color="#000" font-weight="400" font-family="sans-serif" white-space="normal" overflow="visible" fill="#fbaf00" fill-opacity=".85" fill-rule="evenodd" stroke-width="30" stroke-linecap="round"/><g filter="url(#e)" transform="matrix(2.09555 0 0 2.09555 370.65 -172.95)"><path d="M83.1 264.44a32.89 32.89 0 0 0 0 65.77 32.89 32.89 0 0 0 0-65.76z" fill="#fff"/><path d="M83.1 264.44a32.89 32.89 0 0 0 0 65.77 32.89 32.89 0 0 0 0-65.76z" fill="#fbaf00"/></g><path d="M574.23 433.35a3.37 3.37 0 0 0 0-4.77l-7.91-7.9a3.37 3.37 0 0 0-4.77 0l-6.22 6.18L568 439.54m-53.65 28.33v12.67h12.67l37.4-37.42-12.68-12.68-37.4 37.43z" fill="#fff"/><path style="line-height:normal;text-indent:0;text-align:start;text-decoration-line:none;text-decoration-style:solid;text-decoration-color:#000;text-transform:none;block-progression:tb;isolation:auto;mix-blend-mode:normal" d="M1234.35 318.55a9.25 27.15 0 1 0 0 54.3h46.58a9.25 27.15 0 1 0 0-54.3h-46.58z" color="#000" font-weight="400" font-family="sans-serif" white-space="normal" overflow="visible" fill="#bf0000" fill-opacity=".59" fill-rule="evenodd" stroke-width="30" stroke-linecap="round"/><g><path d="M83.78 275.35a32.89 32.89 0 0 0 0 65.77 32.89 32.89 0 0 0 0-65.76z" fill="#fff" filter="url(#f)" transform="matrix(2.09555 0 0 2.09555 1229.33 -299.75)"/><path d="M1453.63 297.44a68.92 68.92 0 0 0-97.46 97.45 68.95 68.95 0 0 0 97.47-.03 68.92 68.92 0 0 0-.03-97.4zm-29.21 77.95l-19.51-19.51-19.49 19.48-9.74-9.73 19.49-19.49-19.47-19.47 9.75-9.75 19.48 19.49 19.49-19.49 9.74 9.74-19.49 19.48 19.5 19.5-9.75 9.75z" fill="#d70000"/></g></g></svg>