<svg xmlns="http://www.w3.org/2000/svg" id="Layer_1" data-ember-extension="1" width="527.107" height="342.662"><style id="style27590">.st0{fill:#E5E7EA;} .st1{fill:#B06CAC;} .st2{fill:#6D67AE;} .st3{fill:#0081C8;} .st4{fill:#7FC142;} .st5{fill:#2A63AE;} .st6{fill:#009B72;} .st7{fill:#FAAC18;} .st8{fill:#E5250C;} .st9{fill:#EF6897;} .st10{fill:#F58826;} .st11{fill:#EA460E;} .st12{fill:#057C57;} .st13{fill:#252C34;} .st14{fill:#FFFFFF;}</style><g id="layer10" opacity=".15" stroke-linejoin="round" stroke-dashoffset="15"><g id="layer5" stroke-width="3" stroke-miterlimit="43.8" transform="translate(5 25.917)"><path d="M227.002 59.703H180c-5.54 0-10-4.46-10-10s4.46-10 10-10h47.002" id="path34206"/><path d="M227.002 99.703H145c-5.54 0-10-4.46-10-10s4.46-10 10-10h82.002" id="path34226"/><rect ry="10" y="119.703" x="65" height="20" width="150" id="rect4202-5-6-2-4-3-1"/><path d="M227.002 219.703H200c-5.54 0-10-4.46-10-10s4.46-10 10-10h27.002z" id="path34146"/><rect ry="10" y="39.703" x="130" height="20" width="30" id="rect4202-5-6-2-4-6"/><rect ry="10" y="39.703" x="40" height="20" width="80" id="rect4202-5-6-2-4-6-4"/><rect ry="10" y="79.703" x="50" height="20" width="75" id="rect4202-5-6-2-4-3-9"/><rect ry="10" y="79.703" x="10" height="20" width="30" id="rect4202-5-6-2-4-3-9-5"/><rect ry="10" y="120.432" x="5" height="20" width="50" id="rect4202-5-6-2-4-3-1-48"/><rect ry="10" y="159.703" x="110" height="20" width="110" id="rect4202-5-6-2-4-3-1-4-6-7"/><rect ry="10" y="159.703" x="25" height="20" width="75" id="rect4202-5-6-2-4-3-9-1"/><rect ry="10" y="199.703" x="150" height="20" width="30" id="rect4202-5-6-2-4-6-7"/><rect ry="10" y="199.703" x="65" height="20" width="75" id="rect4202-5-6-2-4-3-9-2"/><rect ry="10" y="199.703" x="15" height="20" width="40" id="rect4202-5-6-2-4-3-9-2-7"/></g><g id="layer9" fill="none" stroke="#000" stroke-width="20.337" stroke-linecap="round"><path id="path4688-2" d="M55.672 75.61c0 17.717-11.29 39.76-29.005 39.76"/><path id="path4688-2-2" d="M120.48 116.06c0 17.717 11.29 39.76 29.005 39.76"/><path id="path4688-2-2-6" d="M69.24 195.1c0-17.715-11.288-39.757-29.004-39.757"/><path id="path4688-2-2-6-1" d="M71.837 193.89c0 17.715 11.29 39.757 29.006 39.757"/><path id="path4688-2-6" d="M182.4 76.123c0 17.716-11.29 39.758-29.007 39.758"/></g></g><g id="layer12" opacity=".5" fill="none" stroke-linecap="round" stroke-linejoin="round" stroke-dashoffset="15"><path id="path4688-2-2-6-1-0" d="M336.518 196.45c0 17.715-11.29 39.757-29.005 39.757" stroke="#ffc107" stroke-width="20.337"/><path id="path4688-2-9" d="M372.968 44.1c1.967 14.426-4.777 33.628-19.202 35.595" stroke="#3f51b5" stroke-width="16.712"/><path id="path4688-2-2-6-1-0-5" d="M477.996 146.71c-4.66 17.09-21.353 35.386-38.444 30.724" stroke="#3f51b5" stroke-width="20.337"/><path id="path4688-2-2-6-1-9" d="M448.553 252.983c-6.893 16.112-5.06 40.612 11.274 47.6" stroke="#9c27b0" stroke-width="20.255"/></g><g id="layer11" transform="translate(5 25.917)" opacity=".7" stroke-width="3" stroke-linejoin="round" stroke-miterlimit="43.8" stroke-dashoffset="15"><rect ry="10" y="159.703" x="230" height="20" width="80" id="rect4202-5-6-2-4-3-1-4-6-1" fill="#3f51b5"/><rect ry="10" y="159.703" x="320" height="20" width="30" id="rect4202-5-6-2-4-3-1-4" fill="#ffc107"/><path d="M227.002 199.703H330c5.54 0 10 4.46 10 10s-4.46 10-10 10H227.002z" id="rect4202-5-6-2-4-3-1-4-9" fill="#ffc107"/><path d="M227.002 199.703h54.816c2.948 0 5.322 4.46 5.322 10s-2.374 10-5.322 10h-54.816z" id="rect4202-5-6-2-4-3-1-4-9-9" fill="#3f51b5"/><path d="M227.002 39.703H260c5.54 0 10 4.46 10 10s-4.46 10-10 10h-32.998" id="rect4202-5-6-2-4" fill="#4caf50"/><rect ry="10" y="79.703" x="265" height="20" width="40" id="rect4202-5-6-2-4-4" fill="#f44336"/><path d="M227.002 79.703H245c5.54 0 10 4.46 10 10s-4.46 10-10 10h-17.998" id="rect4202-5-6-2-4-3" fill="#4caf50"/><rect ry="8.218" y="59.54" x="353.363" height="16.436" width="65.743" id="rect4202-5-6-2-4-6-4-1" transform="rotate(-7.768)" fill="#9c27b0"/><rect ry="8.218" y="92.411" x="361.581" height="16.436" width="61.634" id="rect4202-5-6-2-4-3-9-15" transform="rotate(-7.768)" fill="#4caf50"/><rect ry="8.218" y="92.411" x="329.688" height="16.436" width="24.654" id="rect4202-5-6-2-4-3-9-5-7" transform="rotate(-7.768)" fill="#3f51b5"/><rect ry="10" y="42.285" x="404.869" height="20" width="110" id="rect4202-5-6-2-4-3-1-4-6-7-7" transform="rotate(8.186)" fill="#f44336"/><rect ry="10" y="78.303" x="483.609" height="20" width="30" id="rect4202-5-6-2-4-6-7-3" transform="rotate(8.186)" fill="#3f51b5"/><rect ry="10" y="78.303" x="404.764" height="20" width="68.845" id="rect4202-5-6-2-4-3-9-2-6" transform="rotate(8.186)" fill="#ffc107"/><rect ry="10" y="24.543" x="460.437" height="20" width="75" id="rect4202-5-6-2-4-3-9-1-2" transform="rotate(23.16)" fill="#ffc107"/><rect ry="10" y="64.543" x="447.186" height="20" width="108.282" id="rect4202-5-6-2-4-3-9-2-9" transform="rotate(23.16)" fill="#4caf50"/></g><g id="layer7" transform="translate(5 25.917)" opacity=".15" fill="none" stroke="#000" stroke-linecap="round"><path d="M229.45 21.71h72.755c7.95 0 14.35 6.457 14.35 14.475v67.035c0 8.02-6.4 14.474-14.35 14.474H229.45" id="rect33572" stroke-width="4.016"/><path d="M229.45 141.71h122.753c7.95 0 14.352 6.457 14.352 14.475v67.035c0 8.02-6.4 14.474-14.352 14.474H229.45" id="rect33572-6" stroke-width="4.017"/><rect id="rect34230" width="120.762" height="79.397" x="319.962" y="43.839" ry="12.75" transform="rotate(-7.768)" stroke-width="2.782"/><rect id="rect34230-6" width="123.532" height="84.301" x="398.573" y="24.176" ry="13.537" transform="rotate(8.657) skewX(.034)" stroke-width="2.899"/><rect id="rect34230-6-1" width="123.532" height="84.301" x="437.498" y="15.307" ry="13.537" transform="rotate(22.827) skewX(.034)" stroke-width="2.899"/></g><g id="layer8"><path d="M232 37.65v245.94" id="path28311-8" fill="none" fill-rule="evenodd" stroke="#000" stroke-width="4.002" stroke-linecap="round" stroke-dasharray="12.006 12.006"/></g></svg>