<svg xmlns="http://www.w3.org/2000/svg" width="684.65" height="309.36"><defs><filter id="a" x="-.06" width="1.13" y="-.1" height="1.2" color-interpolation-filters="sRGB"><feGaussianBlur stdDeviation="15.26"/></filter></defs><g transform="translate(-34.68 -120.73)"><rect width="579.9" height="359.28" x="85.05" y="95.93" ry="5.77" transform="matrix(.72708 0 0 .7147 102.34 78.57)" fill-opacity=".17" stroke-width="26" stroke-linecap="round" stroke-linejoin="round" filter="url(#a)"/><rect width="430.89" height="272.98" x="159.55" y="120.73" ry="4.39" fill="#fff" stroke-width="26" stroke-linecap="round" stroke-linejoin="round"/><path d="M163.94 120.73a4.38 4.38 0 0 0-4.39 4.39v11.44h430.9v-11.44a4.38 4.38 0 0 0-4.4-4.39z" fill="#f6f6f6" stroke-width="26" stroke-linecap="round" stroke-linejoin="round"/><circle cx="167.47" cy="128.65" r="4.29" fill="#f2b2b2" stroke-width="26" stroke-linecap="round" stroke-linejoin="round"/><circle cx="179.68" cy="128.65" r="4.29" fill="#e3e3c1" stroke-width="26" stroke-linecap="round" stroke-linejoin="round"/><circle cx="191.89" cy="128.65" r="4.29" fill="#b4edf0" stroke-width="26" stroke-linecap="round" stroke-linejoin="round"/></g><path d="M340.32 84.85a52.95 52.95 0 0 0-16.73 103.19c2.65.48 3.61-1.15 3.61-2.55l-.07-9c-14.73 3.19-17.84-7.1-17.84-7.1-2.4-6.12-5.88-7.75-5.88-7.75-4.8-3.29.37-3.22.37-3.22 5.31.38 8.1 5.46 8.1 5.46 4.73 8.09 12.4 5.75 15.42 4.4.48-3.42 1.84-5.76 3.36-7.08-11.76-1.34-24.12-5.88-24.12-26.17 0-5.78 2.07-10.5 5.45-14.2-.54-1.35-2.36-6.73.52-14.02 0 0 4.45-1.42 14.56 5.43a50.71 50.71 0 0 1 13.26-1.78c4.5.02 9.02.6 13.25 1.78 10.1-6.85 14.55-5.43 14.55-5.43 2.89 7.3 1.07 12.67.52 14.01 3.4 3.7 5.45 8.43 5.45 14.21 0 20.34-12.38 24.82-24.18 26.13 1.9 1.63 3.6 4.86 3.6 9.8 0 7.08-.07 12.79-.07 14.53 0 1.41.95 3.06 3.64 2.54a52.97 52.97 0 0 0-16.77-103.18" fill="#1b1817" fill-rule="evenodd"/><g fill="#c1c1c1"><path d="M434.39 199.44h-34.26a1.5 1.5 0 1 1 0-3h34.26a1.5 1.5 0 0 1 0 3zM417.54 219.77h-42.27a1.5 1.5 0 1 1 0-3h42.27a1.5 1.5 0 0 1 0 3z"/><path d="M390.04 219.77a1.5 1.5 0 1 1 0-3 18.74 18.74 0 0 0 18.72-18.72 1.5 1.5 0 1 1 3 0 21.75 21.75 0 0 1-21.72 21.72z"/></g><path d="M278.86 73.13h34.26a1.5 1.5 0 1 1 0 3h-34.26a1.5 1.5 0 0 1 0-3zM277.07 61.3h42.27a1.5 1.5 0 1 1 0 3h-42.27a1.5 1.5 0 0 1 0-3z" fill="#c1c1c1"/><path d="M304.57 61.3c2 0 2 3 0 3-10.33 0-18.5-1.3-18.52 9.04 0 2-3 2-3 0 .02-11.99 9.54-12.03 21.52-12.05z" fill="#c1c1c1"/><path d="M245.8 151.16h-32.63a1.5 1.5 0 0 1 0-3h32.63a1.5 1.5 0 1 1 0 3zM218.02 130.11H198.4a1.5 1.5 0 0 1 0-3H218a1.5 1.5 0 1 1 0 3zM253.84 130.11h-22.11a1.5 1.5 0 0 1 0-3h22.1a1.5 1.5 0 1 1 0 3z" fill="#bcbcbc"/><g fill="#bababa"><path d="M464.13 104.14h-20.8a1.7 1.7 0 1 1 0-3.38h20.8a1.7 1.7 0 0 1 0 3.38z"/><path d="M469.78 110.36a7.35 7.35 0 1 1 7.35-7.35 7.36 7.36 0 0 1-7.35 7.35zm0-11.29a3.96 3.96 0 1 0 3.96 3.96 3.96 3.96 0 0 0-3.96-3.98z"/></g><g fill="#bababa"><path d="M198.48 248.89h20.8a1.7 1.7 0 1 0 0-3.39h-20.8a1.7 1.7 0 0 0 0 3.39z"/><path d="M192.82 255.1a7.35 7.35 0 1 0-7.34-7.35 7.36 7.36 0 0 0 7.34 7.35zm0-11.28a3.96 3.96 0 1 1-3.96 3.96 3.96 3.96 0 0 1 3.96-3.99z"/></g><g><g fill="#2e7ffe"><path d="M53.68 62.05h-3.24v3.23h3.24v-3.23zm0-6.47h-3.24v3.24h3.24v-3.24zm19.4-6.47H40.74a3.48 3.48 0 0 0-3.23 3.24v38.8a3.48 3.48 0 0 0 3.23 3.23h6.47v6.47L52.06 96l4.85 4.85v-6.47h16.17a3.48 3.48 0 0 0 3.23-3.23v-38.8a3.48 3.48 0 0 0-3.23-3.24zm0 40.42c0 .81-.76 1.62-1.62 1.62H56.91v-3.23h-9.7v3.23h-4.85c-.86 0-1.62-.86-1.62-1.62v-4.85h32.34v4.85zm0-8.08H47.2v-29.1h25.92l-.05 29.1zm-19.4-6.47h-3.24v3.24h3.24v-3.24zm0-6.46h-3.24v3.23h3.24v-3.23z" stroke-width="1.97" stroke-linecap="round" stroke-linejoin="round"/><path d="M74.78 72.23h.08v-3h-.08zm9.08 0h9v-3h-9zm18 0h9v-3h-9zm18 0h9v-3h-9zm18 0h9v-3h-9zm18 0h9v-3h-9zm18 0h9v-3h-9zm18 0h9v-3h-9zm18 0h9v-3h-9z" style="line-height:normal;text-indent:0;text-align:start;text-decoration-line:none;text-decoration-style:solid;text-decoration-color:#000;text-transform:none;block-progression:tb;isolation:auto;mix-blend-mode:normal" color="#000" font-weight="400" font-family="sans-serif" white-space="normal" overflow="visible" fill-rule="evenodd" stroke-width="3" stroke-dasharray="9 9"/><path d="M232.94 60.39l-.65.1-.08.01-.07.02-.94.24-.07.02-.07.03-.9.33-.08.02-.06.03-.86.42-.07.03-.06.04-.81.49-.06.04-.06.04-.76.57-.06.04-.05.05-.7.63-.05.05-.05.05-.63.7-.05.06-.04.05-.57.76-.04.06-.04.06-.38.62-.78 1.28 2.57 1.56.78-1.28.33-.56.49-.64.53-.6.6-.53.64-.49.7-.41.7-.35.77-.28.81-.2.57-.1 1.48-.22-.45-2.97zm6.35 4.32l1.1 1.01.54.59.48.64.41.68.36.74.28.77.2.78.13.83.04.86-.04.86-.13.83-.2.78-.28.77-.36.74-.4.68-.5.65-.53.58-.58.54-.22.16-1.2.9 1.8 2.4 1.2-.9.26-.2.06-.04.05-.05.7-.64.06-.04.04-.06.64-.7.05-.05.04-.06.57-.75.04-.06.04-.06.49-.81.04-.07.03-.06.41-.86.03-.07.03-.07.33-.9.03-.07.01-.07.25-.95.02-.07v-.07l.13-.78h.17l-.07-1.43.07-1.42-.18-.01-.11-.78-.01-.07-.02-.08-.25-.94-.01-.07-.03-.07-.33-.9-.03-.08-.03-.06-.41-.86-.03-.07-.04-.06-.5-.81-.03-.06-.04-.06-.57-.76-.04-.05-.05-.06-.64-.7-.04-.05-.06-.05-.05-.04-1.1-1zm-15.8 9.8l.52 1.4.02.04.02.07.03.07.42.86.03.06.04.07.49.8.04.07.04.06.57.75.04.06.05.05.63.7.05.06.05.04.7.64.05.05.06.04.76.57.06.04.06.04.81.49.06.04.07.03.86.41.06.03.07.03.9.33.08.03.07.01.4.1 1.45.38.75-2.9-1.45-.38-.32-.08-.77-.28-.74-.36-.7-.42-.62-.47-.59-.53-.54-.6-.49-.64-.41-.7-.35-.71-.5-1.38z" style="line-height:normal;text-indent:0;text-align:start;text-decoration-line:none;text-decoration-style:solid;text-decoration-color:#000;text-transform:none;block-progression:tb;isolation:auto;mix-blend-mode:normal" color="#000" font-weight="400" font-family="sans-serif" white-space="normal" overflow="visible" stroke-width="3" stroke-linecap="square" stroke-dasharray="9 9"/></g><g fill="#1a8600" fill-opacity=".67"><path d="M680.87 236.79v-23.75c0-5.67-5.67-11.34-11.34-11.34h-3.78v-7.56l-11.34 11.34 11.34 11.34v-7.56h3.78a4.07 4.07 0 0 1 3.78 3.78v23.75a7.52 7.52 0 0 0 3.78 14.06 7.54 7.54 0 0 0 3.78-14.06zm-3.78 10.28a3.8 3.8 0 0 1-3.78-3.79 3.8 3.8 0 0 1 3.78-3.78 3.8 3.8 0 0 1 3.78 3.78 3.8 3.8 0 0 1-3.78 3.79zm-30.24-49.15a7.54 7.54 0 0 0-3.78 14.06v24.75a7.52 7.52 0 0 0 3.78 14.06 7.54 7.54 0 0 0 3.78-14.06v-24.75a7.52 7.52 0 0 0-3.78-14.06zm0 49.15a3.8 3.8 0 0 1-3.78-3.79 3.8 3.8 0 0 1 3.78-3.78 3.8 3.8 0 0 1 3.78 3.78 3.8 3.8 0 0 1-3.78 3.79zm0-37.8a3.8 3.8 0 0 1-3.78-3.79 3.8 3.8 0 0 1 3.78-3.78 3.8 3.8 0 0 1 3.78 3.78 3.8 3.8 0 0 1-3.78 3.78z"/><g color="#000" font-weight="400" font-family="sans-serif" white-space="normal" stroke-width="3" stroke-dasharray="9 9"><path style="line-height:normal;text-indent:0;text-align:start;text-decoration-line:none;text-decoration-style:solid;text-decoration-color:#000;text-transform:none;block-progression:tb;isolation:auto;mix-blend-mode:normal" d="M481.72 222.07h9v-3h-9zm18 0h9v-3h-9zm18 0h9v-3h-9zm18 0h9v-3h-9zm18 0h9v-3h-9zm18 0h9v-3h-9zm18 0h9v-3h-9zm18 0h9v-3h-9zm18 0h9v-3h-9z" overflow="visible" fill-rule="evenodd"/><path style="line-height:normal;text-indent:0;text-align:start;text-decoration-line:none;text-decoration-style:solid;text-decoration-color:#000;text-transform:none;block-progression:tb;isolation:auto;mix-blend-mode:normal" d="M467.65 210.23l.64.1.08.02.07.01.94.25.08.01.07.03.9.33.07.03.07.03.85.41.07.03.06.04.81.5.06.03.06.05.76.56.06.04.05.05.7.64.05.05.05.05.64.7.04.05.05.06.56.75.05.06.03.07.38.62.78 1.28-2.56 1.56-.78-1.29-.34-.55-.5-.66-.52-.58-.6-.54-.64-.48-.68-.41-.74-.36-.77-.28-.79-.2-.57-.09-1.48-.23.45-2.96zm-6.35 4.33l-1.1 1h-.01l-.53.58-.48.65-.42.68-.35.74-.29.77-.2.78-.13.84-.04.85.04.86.13.84.2.78.29.76.35.75.42.68.47.63.54.6.59.53.21.16 1.2.9-1.8 2.4-1.2-.9-.26-.2-.06-.04-.05-.05-.7-.63-.05-.05-.05-.05-.63-.7-.05-.05-.05-.06-.56-.76-.05-.06-.03-.06-.5-.81-.03-.06-.04-.07-.4-.86-.04-.06-.03-.07-.33-.9-.02-.08-.02-.07-.24-.94-.02-.07-.01-.08-.12-.78h-.18l.08-1.43-.08-1.42h.18l.12-.79v-.07l.03-.07.24-.95.02-.07.02-.07.33-.9.03-.07.03-.07.41-.86.04-.06.04-.06.49-.81.03-.07.05-.06.56-.75.05-.06.05-.05.63-.7.05-.05.05-.05.05-.04 1.1-1.01zm15.79 9.8l-.52 1.4-.01.04-.03.07-.03.06-.41.86-.04.07-.03.06-.5.81-.03.06-.05.06-.56.76-.05.06-.04.05-.64.7-.05.05-.05.05-.7.63-.05.05-.06.04-.76.57-.05.04-.07.04-.8.5-.07.03-.06.03-.86.42-.07.03-.07.03-.9.33-.07.02-.08.02-.4.1-1.45.38-.75-2.9 1.46-.38.33-.09.77-.28.72-.35.68-.41.65-.49.59-.53.54-.6.48-.64.42-.69.34-.72.5-1.38z" overflow="visible" stroke-linecap="square"/></g></g><g fill="#e66400" fill-opacity=".67"><path d="M618.15 18.88a19.38 19.38 0 0 1 19.35 19.34 19.38 19.38 0 0 1-19.35 19.35 19.38 19.38 0 0 1-19.34-19.35 19.38 19.38 0 0 1 19.34-19.34zm0-4.41a23.78 23.78 0 0 0-23.75 23.75 23.78 23.78 0 0 0 23.75 23.76 23.78 23.78 0 0 0 23.76-23.76 23.78 23.78 0 0 0-23.76-23.75zm3.4 10.18h-6.79v16.97h6.79V24.65zm0 20.36h-6.79v6.79h6.79V45z" fill-rule="evenodd"/><g color="#000" font-weight="400" font-family="sans-serif" white-space="normal" stroke-width="3" stroke-dasharray="9 9"><path style="line-height:normal;text-indent:0;text-align:start;text-decoration-line:none;text-decoration-style:solid;text-decoration-color:#000;text-transform:none;block-progression:tb;isolation:auto;mix-blend-mode:normal" d="M432.45 40.23h9v-3h-9zm18 0h9v-3h-9zm18 0h9v-3h-9zm18 0h9v-3h-9zm18 0h9v-3h-9zm18 0h9v-3h-9zm18 0h9v-3h-9zm18 0h9v-3h-9zm18 0h9v-3h-9z" overflow="visible" fill-rule="evenodd"/><path style="line-height:normal;text-indent:0;text-align:start;text-decoration-line:none;text-decoration-style:solid;text-decoration-color:#000;text-transform:none;block-progression:tb;isolation:auto;mix-blend-mode:normal" d="M430.1 92.85l.65.06H432.02l.96-.1.07-.01.08-.02.93-.19.07-.01.07-.02.91-.28.07-.02.07-.03.87-.36.06-.03.07-.03.83-.45.06-.03.06-.04.79-.52.06-.04.06-.05.73-.6.06-.04.05-.05.52-.51 1.07-1.05-2.1-2.14-1.08 1.05-.46.46-.63.5-.66.45-.71.37-.75.31-.76.24-.79.16-.8.09h-.84l-.57-.06-1.5-.14-.28 2.99zM425 87.1l-.82-1.24-.39-.72-.3-.71-.23-.77-.16-.81-.09-.81v-.8l.08-.85.17-.84.25-.82.33-.78.38-.7.46-.68.53-.64.58-.56.6-.49.68-.45.7-.37.24-.1 1.39-.58-1.16-2.77-1.38.58-.3.12-.07.03-.07.04-.83.44-.06.03-.06.04-.79.52-.06.04-.05.05-.74.6-.06.04-.05.05-.67.67-.06.05-.04.05-.61.73-.05.06-.04.06-.55.8-.04.06-.03.06-.47.86-.03.06-.03.07-.31.73-.17-.04-.28 1.4-.42 1.36.17.05-.08.79V82.28l.1.95.02.08.01.07.19.94.01.07.03.07.28.9.02.07.02.07.37.87.03.07.03.06.44.84.04.06.04.06.03.05.83 1.25zm17.71-5.63l-.15-1.49v-.04l-.01-.07-.02-.07-.19-.94-.02-.07-.02-.07-.27-.9-.03-.07-.02-.07-.37-.87-.02-.07-.04-.06-.44-.84-.04-.06-.04-.06-.52-.78-.04-.06-.04-.06-.6-.73-.04-.06-.05-.05-.67-.68-.05-.05-.06-.05-.73-.6-.05-.06-.06-.04-.8-.54-.06-.04-.07-.04-.36-.2-1.32-.72-1.44 2.64 1.32.72.3.16.66.45.64.53.55.57.51.62.44.67.38.7.31.75.24.77.16.78.15 1.46z" overflow="visible" stroke-linecap="square"/><path style="line-height:normal;text-indent:0;text-align:start;text-decoration-line:none;text-decoration-style:solid;text-decoration-color:#000;text-transform:none;block-progression:tb;isolation:auto;mix-blend-mode:normal" d="M430.33 50.65h3v-9h-3zm0 18h3v-9h-3z" overflow="visible" fill-rule="evenodd"/></g></g><g fill="#c30101"><path d="M204.49 191.42h3v-9h-3zm0 18h3v-9h-3z" style="line-height:normal;text-indent:0;text-align:start;text-decoration-line:none;text-decoration-style:solid;text-decoration-color:#000;text-transform:none;block-progression:tb;isolation:auto;mix-blend-mode:normal" color="#000" font-weight="400" font-family="sans-serif" white-space="normal" overflow="visible" fill-rule="evenodd" stroke-width="3" stroke-dasharray="9 9"/><path d="M23.96 232.92l-3.47-3.17C8.15 218.56 0 211.15 0 202.13c0-7.4 5.8-13.18 13.18-13.18a14.4 14.4 0 0 1 10.78 4.98 14.4 14.4 0 0 1 10.78-4.98c7.38 0 13.18 5.77 13.18 13.18 0 9.03-8.14 16.43-20.48 27.62l-3.48 3.17z"/><path d="M52.36 213.84h9v-3h-9zm18 0h9v-3h-9zm18 0h9v-3h-9zm18 0h9v-3h-9zm18 0h9v-3h-9zm18 0h9v-3h-9zm18 0h9v-3h-9zm18 0h9v-3h-9zm18 0h9v-3h-9z" style="line-height:normal;text-indent:0;text-align:start;text-decoration-line:none;text-decoration-style:solid;text-decoration-color:#000;text-transform:none;block-progression:tb;isolation:auto;mix-blend-mode:normal" color="#000" font-weight="400" font-family="sans-serif" white-space="normal" overflow="visible" fill-rule="evenodd" stroke-width="3" stroke-dasharray="9 9"/><path d="M207.71 158.22l-.65-.06H205.8l-.96.1-.07.01-.07.02-.94.19-.07.01-.07.02-.9.28-.07.02-.07.03-.87.36-.07.03-.06.03-.84.45-.06.03-.06.04-.79.52-.06.04-.05.05-.73.6-.06.04-.05.05-.52.51-1.07 1.05 2.1 2.14 1.07-1.05.47-.46.62-.5.67-.45.7-.37.75-.31.78-.24.77-.16.81-.09h.83l.58.06 1.49.14.29-2.99zm5.1 5.75l.83 1.24.38.72.3.72.24.77.16.8.08.82v.8l-.07.84-.17.84-.25.82-.33.78-.39.71-.46.68-.52.63-.58.56-.61.5-.69.45-.68.36-.25.1-1.38.58 1.15 2.77 1.39-.57.3-.13.07-.03.06-.03.83-.45.07-.03.06-.04.78-.52.06-.04.06-.05.73-.6.06-.04.05-.05.68-.66.05-.06.05-.05.6-.73.06-.06.04-.06.54-.8.04-.06.04-.06.46-.86.04-.06.03-.07.3-.73.17.04.28-1.4.42-1.36-.16-.05.07-.78v-1.28l-.1-.95-.01-.08-.01-.07-.2-.93v-.08l-.03-.06-.28-.91-.02-.07-.03-.07-.36-.87-.03-.07-.03-.06-.45-.83-.03-.07-.04-.06-.04-.05-.83-1.25zm-17.7 5.63l.15 1.49V171.2l.02.07.2.94.01.07.02.07.28.9.02.07.03.07.36.87.03.07.03.06.45.84.03.06.04.06.52.78.04.06.05.06.6.73.04.06.05.05.66.68.06.05.05.05.73.6.06.06.06.04.8.54.06.04.06.04.37.2 1.31.72 1.44-2.64-1.32-.72-.29-.15-.67-.46-.63-.53-.56-.57-.5-.62-.44-.66-.38-.7-.31-.76-.24-.77-.16-.78-.15-1.46z" style="line-height:normal;text-indent:0;text-align:start;text-decoration-line:none;text-decoration-style:solid;text-decoration-color:#000;text-transform:none;block-progression:tb;isolation:auto;mix-blend-mode:normal" color="#000" font-weight="400" font-family="sans-serif" white-space="normal" overflow="visible" stroke-width="3" stroke-linecap="square" stroke-dasharray="9 9"/></g></g></svg>