<svg data-name="Layer 1" xmlns="http://www.w3.org/2000/svg" width="1086" height="811.4"><defs><linearGradient id="a" x1="585.8" y1="811" x2="585.8" y2="677.2" gradientUnits="userSpaceOnUse"><stop offset="0" stop-color="gray" stop-opacity=".3"/><stop offset=".5" stop-color="gray" stop-opacity=".1"/><stop offset="1" stop-color="gray" stop-opacity=".1"/></linearGradient></defs><path d="M222.7 26.8c-2.4-3.3-7.4.3-5.2 3.7l1.9 2.6c7.4 10 11.3 22.3 14.6 34.3.8 3 1.6 6.2.7 9 1.3-7.8.4-15.9-1.6-23.6s-5.1-15-8.3-22.3a20.3 20.3 0 0 0-2.1-3.7z" fill="#536dfe" opacity=".5"/><path d="M174.3 48c-5-.2-5.6 7.4-.6 7.8 1.3.2 2.6.2 3.9.2 15.4.4 30 6 44 12 3.3 1.5 7 3.1 9 6.3-6.4-7.3-14.7-12.7-23.5-16.6s-18.3-6.5-27.7-9a24.2 24.2 0 0 0-5-.7z" fill="#536dfe"/><path d="M175.7 66.7c-3.2.1-2.4 4.6.8 4.6h2.4a90 90 0 0 1 29.3 5.2 15 15 0 0 1 6.6 3.3 52.8 52.8 0 0 0-17.1-8.8 132.6 132.6 0 0 0-18.6-4 16.9 16.9 0 0 0-3.4-.3z" fill="#536dfe" opacity=".2"/><path d="M240.7 150.6c.9 3 5 1.2 4.3-1.9l-.7-2.3a90.1 90.1 0 0 1-2.2-29.7 15 15 0 0 1 1.6-7.2 52.7 52.7 0 0 0-4.2 18.7 130.3 130.3 0 0 0 .6 19.1 16.8 16.8 0 0 0 .6 3.3z" fill="#536dfe" opacity=".5"/><path d="M181.5 22.6c-2-.3-2 2.4-.1 2.9l1.4.2a55 55 0 0 1 16.9 6.9 9.1 9.1 0 0 1 3.5 2.8A32.2 32.2 0 0 0 194 28a78.9 78.9 0 0 0-10.6-4.8 10 10 0 0 0-2-.6z" fill="#536dfe" opacity=".2"/><path d="M152 96.4c-4.8 2.5-.8 9.3 4.2 7l3.8-1.9C174.8 94 192 91 209 89a24 24 0 0 1 12.4.6c-10.4-3-21.6-3.2-32.4-2s-21.2 4-31.6 6.9a28.7 28.7 0 0 0-5.4 2z" fill="#536dfe"/><path d="M165.8 123c-3.4 3.3 2 7.1 5.7 4l2.7-2.5c10.6-10 24.7-17 38.6-23.6a89.7 89.7 0 0 1 21.3-3.1c-9.8.9-30 4-38.8 8a215.3 215.3 0 0 0-25.4 14.2 26.6 26.6 0 0 0-4 3z" fill="#536dfe" opacity=".5"/><path d="M190.7 165.6c-1 4.6 5.6 4.7 6.9 0l.8-3.5a147 147 0 0 1 18.4-41.4 90 90 0 0 1 15.7-14.7 159.7 159.7 0 0 0-27.4 28.7 216 216 0 0 0-12.8 26.1 27.4 27.4 0 0 0-1.6 4.8zM240.7 2.2c-2.3-4.9-9.1-.9-7 4l1.8 3.9c7.3 14.8 9.9 31.8 11.7 48.7a24 24 0 0 1-.8 12.3c3-10.4 3.5-21.4 2.4-32.1s-3.5-21.2-6.2-31.5a28.3 28.3 0 0 0-1.9-5.3zM203 10.4a.9.9 0 0 0 .3.2c.3 0 .5-.3.6-.6.6-1.2.3-3 1.2-4a14 14 0 0 1 2.2 3.7l3.5-1a5.1 5.1 0 0 1-.7 4 5.2 5.2 0 0 1 1.6 1.1 1.8 1.8 0 0 1 .5 1.8 8.8 8.8 0 0 1-2.5.3 16.4 16.4 0 0 1-.3 4.6.8.8 0 0 1-.3.5c-.2.2-.5 0-.8-.1a8 8 0 0 1-2.9-3l-1.3 3a1.4 1.4 0 0 1-.5.9 1 1 0 0 1-1.1-.4 2.6 2.6 0 0 1-.4-1.2l-.5-3a.7.7 0 0 0-.2-.3.8.8 0 0 0-.5-.2h-3.7c-.2-.7.5-1.3 1.1-1.5s1.4-.5 1.7-1.1c.6-1.3-1-3-.3-4 .8-1.4 2.2-.2 3.2.3z" fill="#536dfe"/><path d="M270.1 26.8c2.5-3.3 7.5.3 5.2 3.7l-1.8 2.6C266 43 262 55.4 258.8 67.4c-.8 3-1.6 6.2-.7 9-1.3-7.8-.4-15.9 1.6-23.6s5.1-15 8.4-22.3a20.3 20.3 0 0 1 2-3.7z" fill="#536dfe" opacity=".5"/><path d="M318.5 48c5-.2 5.7 7.4.7 7.8-1.4.2-2.7.2-4 .2-15.3.4-29.9 6-43.9 12-3.4 1.5-7 3.1-9 6.3 6.3-7.3 14.6-12.7 23.5-16.6s18.2-6.5 27.6-9a24.2 24.2 0 0 1 5-.7z" fill="#536dfe"/><path d="M317.1 66.7c3.2.1 2.5 4.6-.7 4.6h-2.5a90 90 0 0 0-29.3 5.2 15 15 0 0 0-6.6 3.3 52.8 52.8 0 0 1 17.1-8.8 132.3 132.3 0 0 1 18.7-4 16.9 16.9 0 0 1 3.3-.3z" fill="#536dfe" opacity=".5"/><path d="M311.3 22.6c2-.3 2 2.4.2 2.9l-1.5.2a55 55 0 0 0-16.8 6.9 9.1 9.1 0 0 0-3.5 2.8 32 32 0 0 1 9-7.4 78.7 78.7 0 0 1 10.7-4.8 10.5 10.5 0 0 1 2-.6zM261.6 156.4c-.5 1.9-3 1-2.7-1l.3-1.5a55 55 0 0 0 .2-18.2 9.2 9.2 0 0 0-1.3-4.3 32.2 32.2 0 0 1 3.3 11.3 79.7 79.7 0 0 1 .4 11.6 10.5 10.5 0 0 1-.2 2z" fill="#536dfe" opacity=".2"/><path d="M310.1 143.8c1.5 2.5-2.2 2.3-3.8-.2a136.7 136.7 0 0 0-19.6-24.8 25.5 25.5 0 0 0-5.7-4.9 90.1 90.1 0 0 1 15 12.8c4.5 4.7 8.4 9.6 12.3 14.4a23.5 23.5 0 0 1 1.8 2.7z" fill="#536dfe" opacity=".5"/><path d="M177.3 143.8c-1.5 2.5 2.2 2.3 3.8-.2l1.2-2c4.5-7.7 11.4-15.4 18.4-22.8a25.5 25.5 0 0 1 5.7-4.9 91 91 0 0 0-15 12.8c-4.4 4.7-8.4 9.6-12.2 14.4a23.6 23.6 0 0 0-1.9 2.7zM225.9 156.4c.4 1.9 3 1 2.7-1l-.3-1.5a55 55 0 0 1-.2-18.2 9.3 9.3 0 0 1 1.2-4.3 32.2 32.2 0 0 0-3.3 11.3 79.7 79.7 0 0 0-.4 11.6 10.5 10.5 0 0 0 .3 2zM296 41.6c2-.4 2 2.4.1 2.9l-1.4.2c-5.9 1-11.5 3.9-16.9 6.9a9.3 9.3 0 0 0-3.5 2.8 32.2 32.2 0 0 1 9.1-7.4 80.2 80.2 0 0 1 10.6-4.8 10 10 0 0 1 2-.6zM278.2 4.3c1.6-1 2.8 1.5 1.2 2.6l-1.3.8a55 55 0 0 0-13 12.6 9.3 9.3 0 0 0-2.2 4 32.3 32.3 0 0 1 5.6-10.3 79.2 79.2 0 0 1 8-8.4 10.9 10.9 0 0 1 1.7-1.3z" fill="#536dfe" opacity=".2"/><path d="M340.8 96.4c4.9 2.5.8 9.3-4.2 7l-3.8-1.9C318 94 300.8 91 283.8 89a24 24 0 0 0-12.4.6c10.5-3 21.6-3.2 32.4-2s21.3 4 31.6 6.9a29 29 0 0 1 5.4 2z" fill="#536dfe"/><path d="M327 123c3.5 3.3-2 7.1-5.6 4A146.2 146.2 0 0 0 280 101a89.7 89.7 0 0 0-21.3-3.1c9.8.8 30 4 38.9 8a215.3 215.3 0 0 1 25.3 14.2 26.6 26.6 0 0 1 4.1 3z" fill="#536dfe" opacity=".5"/><path d="M286 170.9c.4 4.7-6.3 4-6.9-.8l-.4-3.7c-1.2-14.5-7-29.1-13-43.3a90 90 0 0 0-13.8-16.6c6.8 7.2 19.7 23 23.7 32A215.8 215.8 0 0 1 285 166a27.1 27.1 0 0 1 1 4.9zM289.9 10.4a.9.9 0 0 1-.4.2c-.3 0-.5-.3-.6-.6-.6-1.2-.2-3-1.1-4a14 14 0 0 0-2.3 3.7l-3.4-1a5.2 5.2 0 0 0 .6 4 5.3 5.3 0 0 0-1.6 1.1 1.8 1.8 0 0 0-.4 1.8 8.8 8.8 0 0 0 2.4.3 16 16 0 0 0 .3 4.6.8.8 0 0 0 .3.5c.2.2.6 0 .8-.1a8.2 8.2 0 0 0 2.9-3l1.3 3a1.3 1.3 0 0 0 .6.9 1 1 0 0 0 1-.4 2.7 2.7 0 0 0 .4-1.2l.5-3a.7.7 0 0 1 .2-.3.8.8 0 0 1 .5-.2h3.7c.2-.7-.5-1.3-1-1.5s-1.5-.5-1.8-1.1c-.6-1.3 1-3 .3-4-.8-1.4-2.1-.2-3.2.3z" fill="#536dfe"/><path d="M300.4 153.8a.9.9 0 0 1-.4.2c-.3 0-.5-.3-.6-.6-.6-1.2-.2-3-1.1-4a13.8 13.8 0 0 0-2.3 3.8l-3.4-1.1a5.2 5.2 0 0 0 .6 4 5.2 5.2 0 0 0-1.6 1 1.8 1.8 0 0 0-.4 2 8.8 8.8 0 0 0 2.4.2 16.3 16.3 0 0 0 .3 4.6 1 1 0 0 0 .3.5c.2.2.6 0 .8-.1a8 8 0 0 0 2.9-3l1.3 3a1.4 1.4 0 0 0 .6.9 1 1 0 0 0 1-.4 2.8 2.8 0 0 0 .4-1.2l.5-3a.7.7 0 0 1 .2-.4.8.8 0 0 1 .5-.1h3.7c.2-.6-.5-1.3-1-1.5s-1.5-.5-1.8-1.1c-.6-1.3 1-3 .3-4-.8-1.4-2.1-.2-3.2.3z" fill="#536dfe" opacity=".2"/><path d="M330 57.7a.8.8 0 0 1-.5.1c-.3 0-.5-.3-.6-.5-.5-1.3-.2-3-1.1-4a14.1 14.1 0 0 0-2.2 3.7l-3.5-1a5.2 5.2 0 0 0 .6 4 5.3 5.3 0 0 0-1.6 1 1.8 1.8 0 0 0-.4 1.9 8.8 8.8 0 0 0 2.4.2 16.4 16.4 0 0 0 .3 4.6.8.8 0 0 0 .3.6c.2.2.6 0 .8-.1a8 8 0 0 0 2.9-3l1.3 3a1.4 1.4 0 0 0 .6.8 1 1 0 0 0 1-.3 2.6 2.6 0 0 0 .4-1.2l.5-3a.7.7 0 0 1 .2-.4.8.8 0 0 1 .5-.2h3.7c.2-.6-.4-1.2-1-1.5s-1.4-.5-1.8-1.1c-.6-1.2 1-3 .3-4-.8-1.4-2.1-.1-3.2.4zM212 168.2a1.2 1.2 0 0 1-.6.2c-.4 0-.7-.4-.8-.7-.8-1.8-.4-4.1-1.6-5.7a19.3 19.3 0 0 0-3.1 5.2l-4.9-1.5a7.2 7.2 0 0 0 1 5.5 7.4 7.4 0 0 0-2.4 1.6 2.5 2.5 0 0 0-.6 2.6 12.4 12.4 0 0 0 3.5.3 22.7 22.7 0 0 0 .3 6.4 1.1 1.1 0 0 0 .4.8c.4.2.9 0 1.2-.2a11.3 11.3 0 0 0 4-4.2l1.8 4.3a2 2 0 0 0 .8 1 1.3 1.3 0 0 0 1.5-.5 3.8 3.8 0 0 0 .6-1.6l.7-4.1a1 1 0 0 1 .2-.6 1 1 0 0 1 .7-.2h5.1c.3-1-.6-1.8-1.5-2.2s-1.9-.7-2.3-1.5c-.9-1.7 1.4-4.1.4-5.6-1.1-1.8-3 0-4.5.7zM162.8 60.6a1.2 1.2 0 0 1-.5.1c-.4 0-.7-.3-.8-.7-.8-1.8-.4-4-1.6-5.6a19.3 19.3 0 0 0-3.1 5.2l-4.9-1.5a7.2 7.2 0 0 0 1 5.5 7.3 7.3 0 0 0-2.3 1.6 2.5 2.5 0 0 0-.6 2.5 12.4 12.4 0 0 0 3.4.4 22.3 22.3 0 0 0 .4 6.4.9.9 0 0 0 1.6.6 11.3 11.3 0 0 0 4-4.2l1.8 4.3a1.9 1.9 0 0 0 .8 1 1.3 1.3 0 0 0 1.5-.5 3.7 3.7 0 0 0 .5-1.6l.7-4.1a1 1 0 0 1 .2-.6 1 1 0 0 1 .7-.2h5.2c.3-1-.6-1.8-1.5-2.2s-2-.7-2.4-1.5c-.9-1.7 1.4-4.2.5-5.7-1.2-1.7-3 0-4.6.8z" fill="#536dfe"/><path d="M311.8 127.2a.6.6 0 0 1-.3.1c-.2 0-.3-.2-.4-.3-.5-1-.2-2.2-.9-3a10.5 10.5 0 0 0-1.6 2.7l-2.6-.8a3.9 3.9 0 0 0 .5 3 3.8 3.8 0 0 0-1.2.8 1.3 1.3 0 0 0-.3 1.4 6.6 6.6 0 0 0 1.8.2 12 12 0 0 0 .2 3.4.6.6 0 0 0 .2.4.6.6 0 0 0 .6-.1 6.1 6.1 0 0 0 2.1-2.3l1 2.3a1 1 0 0 0 .5.6.7.7 0 0 0 .8-.3 2 2 0 0 0 .3-.8l.3-2.2a.6.6 0 0 1 .1-.3.5.5 0 0 1 .4-.1h2.7c.2-.5-.3-1-.8-1.2s-1-.3-1.2-.8c-.5-1 .8-2.2.2-3s-1.6 0-2.4.3zM245.1 165.7a.8.8 0 0 1-.3.1.6.6 0 0 1-.4-.4c-.4-1-.2-2.1-.9-3a10.3 10.3 0 0 0-1.6 2.8l-2.6-.8a3.8 3.8 0 0 0 .5 3 4.2 4.2 0 0 0-1.2.8 1.3 1.3 0 0 0-.3 1.3 6.2 6.2 0 0 0 1.8.2 12 12 0 0 0 .2 3.4.6.6 0 0 0 .2.4c.2.2.4 0 .6 0a6.1 6.1 0 0 0 2.2-2.3l1 2.3a1 1 0 0 0 .4.5.7.7 0 0 0 .8-.2 2 2 0 0 0 .3-1l.3-2a.5.5 0 0 1 .2-.4.5.5 0 0 1 .3-.1h2.8c.1-.5-.4-1-.8-1.1s-1-.4-1.3-.8c-.5-1 .8-2.3.2-3s-1.6 0-2.4.3z" fill="#536dfe" opacity=".2"/><path d="M180.6 31a.8.8 0 0 1-.3 0 .6.6 0 0 1-.4-.3c-.5-1-.2-2.2-.9-3a9.8 9.8 0 0 0-1.6 2.8l-2.6-.8a3.8 3.8 0 0 0 .5 3 4.1 4.1 0 0 0-1.2.8 1.3 1.3 0 0 0-.3 1.3 6.2 6.2 0 0 0 1.8.2 12 12 0 0 0 .2 3.4.6.6 0 0 0 .2.4c.2.2.4 0 .6 0a6 6 0 0 0 2.1-2.3l1 2.3a1 1 0 0 0 .5.6.7.7 0 0 0 .8-.3 2 2 0 0 0 .2-.9l.4-2.2a.5.5 0 0 1 .1-.3.5.5 0 0 1 .4 0h2.7c.2-.6-.3-1-.8-1.2s-1-.4-1.2-.8c-.5-1 .7-2.2.2-3s-1.6-.1-2.4.3zM215 107a.6.6 0 0 1-.4 0c-.2 0-.3-.2-.4-.4-.4-1-.2-2.2-.8-3a10 10 0 0 0-1.7 2.8l-2.6-.8a3.9 3.9 0 0 0 .5 3 4 4 0 0 0-1.2.8 1.3 1.3 0 0 0-.3 1.4 6.2 6.2 0 0 0 1.8.1 12 12 0 0 0 .2 3.4.7.7 0 0 0 .2.5l.6-.1a6 6 0 0 0 2.2-2.3l1 2.3a1 1 0 0 0 .4.6.7.7 0 0 0 .8-.3 2 2 0 0 0 .3-.9l.4-2.1a.5.5 0 0 1 0-.3.5.5 0 0 1 .5-.2h2.7c.1-.4-.3-.9-.8-1.1s-1-.4-1.3-.8c-.4-1 .8-2.2.3-3s-1.7 0-2.5.3zM190 77.3a.6.6 0 0 1-.3.1c-.2 0-.3-.2-.4-.4-.5-1-.2-2.2-.9-3a10.3 10.3 0 0 0-1.6 2.8l-2.6-.8a3.8 3.8 0 0 0 .5 3 4.2 4.2 0 0 0-1.2.8 1.3 1.3 0 0 0-.3 1.4 6.2 6.2 0 0 0 1.8.1 12 12 0 0 0 .2 3.4.6.6 0 0 0 .2.5l.6-.1a6 6 0 0 0 2.1-2.3l1 2.3a1 1 0 0 0 .5.6.7.7 0 0 0 .8-.3 2 2 0 0 0 .3-.9l.3-2.1a.5.5 0 0 1 .1-.3.5.5 0 0 1 .4-.2h2.7c.2-.4-.3-.9-.7-1.1s-1-.4-1.3-.8c-.5-1 .8-2.2.2-3s-1.6 0-2.4.3zM297 84.3a.6.6 0 0 1-.2 0c-.2 0-.4-.1-.5-.3-.4-1-.1-2.2-.8-3a10.3 10.3 0 0 0-1.7 2.8l-2.5-.8a3.8 3.8 0 0 0 .4 2.9 3.8 3.8 0 0 0-1.2.8 1.3 1.3 0 0 0-.3 1.4 6.6 6.6 0 0 0 1.8.2 12 12 0 0 0 .2 3.4.6.6 0 0 0 .3.4c.2.1.4 0 .6-.1a6 6 0 0 0 2.1-2.3l1 2.3a1 1 0 0 0 .4.6.7.7 0 0 0 .8-.3 2 2 0 0 0 .3-.8l.4-2.2a.6.6 0 0 1 .1-.3.5.5 0 0 1 .4-.1h2.7c.2-.5-.3-1-.8-1.2s-1-.3-1.2-.8c-.5-1 .7-2.2.2-3s-1.6 0-2.4.4z" fill="#536dfe" opacity=".5"/><path d="M245.1 78.5a.6.6 0 0 1-.3 0c-.2 0-.3-.1-.4-.3-.4-1-.2-2.2-.9-3a10.7 10.7 0 0 0-1.6 2.7l-2.6-.8a3.9 3.9 0 0 0 .5 3 4 4 0 0 0-1.2.9 1.4 1.4 0 0 0-.3 1.3 7 7 0 0 0 1.8.2 12 12 0 0 0 .2 3.4.6.6 0 0 0 .2.4h.6a6 6 0 0 0 2.2-2.3l1 2.3a1 1 0 0 0 .4.5.7.7 0 0 0 .8-.2 2 2 0 0 0 .3-1l.3-2.1a.6.6 0 0 1 .2-.3.6.6 0 0 1 .3-.1h2.8c.1-.5-.4-1-.8-1.1s-1-.4-1.3-.9c-.5-.9.8-2.2.2-3s-1.6 0-2.4.4z" fill="#536dfe" opacity=".2"/><path d="M228.8 85.6a.6.6 0 0 1-.3 0c-.2 0-.3-.1-.4-.3-.4-1-.2-2.2-.9-3a10.7 10.7 0 0 0-1.6 2.7l-2.6-.8a3.9 3.9 0 0 0 .5 3 4 4 0 0 0-1.2.8 1.4 1.4 0 0 0-.3 1.4 7 7 0 0 0 1.8.1 12 12 0 0 0 .2 3.4.6.6 0 0 0 .2.5l.6-.1A6 6 0 0 0 227 91l1 2.3a1 1 0 0 0 .4.6.7.7 0 0 0 .8-.3 2 2 0 0 0 .3-.9l.3-2.1a.6.6 0 0 1 .1-.4.6.6 0 0 1 .4 0h2.8c.1-.6-.4-1-.8-1.2s-1-.4-1.3-.8c-.5-1 .8-2.2.2-3s-1.6 0-2.4.4z" fill="#536dfe" opacity=".3"/><path d="M213.6 42.7a.6.6 0 0 1-.3 0c-.2 0-.3-.1-.4-.3-.4-1-.2-2.2-.9-3a10.2 10.2 0 0 0-1.6 2.7l-2.6-.7a3.8 3.8 0 0 0 .5 3 4 4 0 0 0-1.2.8 1.4 1.4 0 0 0-.3 1.3 6.5 6.5 0 0 0 1.8.2 12 12 0 0 0 .2 3.4.6.6 0 0 0 .2.4c.2.2.4 0 .6 0a5.9 5.9 0 0 0 2.2-2.3l1 2.3a1 1 0 0 0 .4.6.7.7 0 0 0 .8-.4 2 2 0 0 0 .3-.9l.3-2.2a.6.6 0 0 1 .2-.3.6.6 0 0 1 .3 0h2.8c.1-.6-.4-1-.8-1.2s-1-.4-1.3-.8c-.4-1 .8-2.2.3-3s-1.7 0-2.5.4z" fill="#536dfe" opacity=".2"/><path d="M243.6 98.7a.7.7 0 0 1-.4 0l-.4-.3c-.4-1-.2-2.2-.8-3a10.2 10.2 0 0 0-1.7 2.7l-2.5-.8a3.8 3.8 0 0 0 .4 3 4 4 0 0 0-1.2.9 1.4 1.4 0 0 0-.3 1.3 6.5 6.5 0 0 0 1.8.2 12 12 0 0 0 .2 3.4.7.7 0 0 0 .2.4.6.6 0 0 0 .7 0 6 6 0 0 0 2-2.3l1 2.3a1 1 0 0 0 .5.5.7.7 0 0 0 .8-.2 2 2 0 0 0 .3-1l.4-2a.4.4 0 0 1 .5-.5h2.7c.2-.5-.3-1-.8-1.1s-1-.4-1.2-.8c-.5-1 .7-2.2.2-3s-1.7-.2-2.5.3z" fill="#536dfe" opacity=".3"/><g opacity=".1"><ellipse cx="780.8" cy="757.5" rx="18" ry="23.6" fill="#3f3d56"/><path d="M795 656.7a28.3 28.3 0 0 0 3.8-14.4c0-13-8.1-23.6-18-23.6s-18 10.6-18 23.6a28.4 28.4 0 0 0 3.8 14.4 29.4 29.4 0 0 0 0 28.8 29.4 29.4 0 0 0 0 28.7 28.5 28.5 0 0 0-3.8 14.4c0 13 8 23.6 18 23.6s18-10.5 18-23.6a28.4 28.4 0 0 0-3.8-14.3 29.4 29.4 0 0 0 0-28.8 29.4 29.4 0 0 0 0-28.8z" fill="#3f3d56"/><ellipse cx="780.8" cy="613.5" rx="18" ry="23.6" fill="#3f3d56"/><ellipse cx="780.8" cy="584.8" rx="18" ry="23.6" fill="#3f3d56"/><path d="M848.1 387.8a85.2 85.2 0 0 0 6.7-10l-47.2-7.7 51 .4a86.3 86.3 0 0 0 1.7-68.3l-68.6 35.6 63.3-46.5a86.2 86.2 0 1 0-142.3 96.4 86.5 86.5 0 0 0-9.9 15.8l61.4 31.8-65.4-22a86.2 86.2 0 0 0 13.9 81 86.2 86.2 0 1 0 135.4 0 86.2 86.2 0 0 0 0-106.6z" fill="#536dfe"/><path d="M694.2 441a85.8 85.8 0 0 0 18.5 53.3 86.2 86.2 0 1 0 135.4 0c11.6-14.6-153.9-63-153.9-53.3z" opacity=".1"/></g><g opacity=".1"><ellipse cx="164.2" cy="757.5" rx="18" ry="23.6" fill="#3f3d56"/><path d="M178.4 656.7a28.4 28.4 0 0 0 3.8-14.4c0-13-8-23.6-18-23.6s-18 10.6-18 23.6a28.3 28.3 0 0 0 3.8 14.4 29.4 29.4 0 0 0 0 28.8 29.4 29.4 0 0 0 0 28.7 28.4 28.4 0 0 0-3.8 14.4c0 13 8.1 23.6 18 23.6s18-10.5 18-23.6a28.5 28.5 0 0 0-3.7-14.4 29.4 29.4 0 0 0 0-28.7 29.4 29.4 0 0 0 0-28.8z" fill="#3f3d56"/><ellipse cx="164.2" cy="613.5" rx="18" ry="23.6" fill="#3f3d56"/><ellipse cx="164.2" cy="584.8" rx="18" ry="23.6" fill="#3f3d56"/><path d="M96.9 387.8a85.2 85.2 0 0 1-6.7-10l47.2-7.7-51 .4a86.3 86.3 0 0 1-1.7-68.3l68.6 35.6L90 291.3a86.2 86.2 0 1 1 142.3 96.4 86.5 86.5 0 0 1 9.9 15.8l-61.4 31.8 65.4-22a86.2 86.2 0 0 1-13.9 81 86.2 86.2 0 1 1-135.4 0 86.2 86.2 0 0 1 0-106.6z" fill="#536dfe"/><path d="M250.8 441a85.8 85.8 0 0 1-18.5 53.3 86.2 86.2 0 1 1-135.4 0c-11.6-14.6 153.9-63 153.9-53.3z" opacity=".1"/></g><g opacity=".1"><ellipse cx="453.3" cy="757.5" rx="18" ry="23.6" fill="#3f3d56"/><path d="M467.5 656.7a28.4 28.4 0 0 0 3.8-14.4c0-13-8-23.6-18-23.6s-18 10.6-18 23.6a28.3 28.3 0 0 0 3.8 14.4 29.4 29.4 0 0 0 0 28.8 29.4 29.4 0 0 0 0 28.7 28.4 28.4 0 0 0-3.8 14.4c0 13 8 23.6 18 23.6s18-10.5 18-23.6a28.5 28.5 0 0 0-3.7-14.4 29.5 29.5 0 0 0 0-28.7 29.5 29.5 0 0 0 0-28.8z" fill="#3f3d56"/><ellipse cx="453.3" cy="613.5" rx="18" ry="23.6" fill="#3f3d56"/><ellipse cx="453.3" cy="584.8" rx="18" ry="23.6" fill="#3f3d56"/><path d="M386 387.8a85.2 85.2 0 0 1-6.7-10l47.3-7.7-51.2.4a86.3 86.3 0 0 1-1.6-68.3l68.6 35.6-63.3-46.5a86.2 86.2 0 1 1 142.4 96.4 86 86 0 0 1 9.8 15.8l-61.4 31.8 65.4-22a86.2 86.2 0 0 1-13.9 81 86.2 86.2 0 1 1-135.4 0 86.2 86.2 0 0 1 0-106.6z" fill="#536dfe"/><path d="M539.9 441a85.8 85.8 0 0 1-18.5 53.3 86.2 86.2 0 1 1-135.4 0c-11.6-14.6 153.9-63 153.9-53.3z" opacity=".1"/></g><g opacity=".6" fill="#536dfe"><path d="M523.5 140a2 2 0 0 0-3.3 2.3l1.2 1.6c4.7 6.3 7.1 14 9.2 21.6.5 1.9 1 3.9.4 5.7a35.6 35.6 0 0 0-1-14.9 92.8 92.8 0 0 0-5.3-14 12.5 12.5 0 0 0-1.2-2.4z" opacity=".5"/><path d="M493 153.3c-3.2-.1-3.6 4.7-.4 5h2.4c9.7.3 18.9 3.8 27.7 7.6 2.2 1 4.4 2 5.7 4a41.5 41.5 0 0 0-14.8-10.5 109.3 109.3 0 0 0-17.4-5.6 14.9 14.9 0 0 0-3.2-.5z"/><path d="M493.9 165c-2 .1-1.6 3 .5 3h1.5c6.1-.3 12.4 1.4 18.5 3.3a9.4 9.4 0 0 1 4.1 2 33.3 33.3 0 0 0-10.8-5.4 82.3 82.3 0 0 0-11.7-2.7 11.3 11.3 0 0 0-2.1-.1z" opacity=".2"/><path d="M534.8 217.9c.6 2 3.2.8 2.7-1.2l-.4-1.5a57 57 0 0 1-1.4-18.7 9.5 9.5 0 0 1 1-4.5 33.4 33.4 0 0 0-2.7 11.8 83 83 0 0 0 .4 12 11.4 11.4 0 0 0 .4 2.1z" opacity=".5"/><path d="M497.5 137.3c-1.2-.2-1.3 1.5 0 1.8l.9.2c3.6.6 7.2 2.4 10.6 4.3a5.8 5.8 0 0 1 2.2 1.7 20.3 20.3 0 0 0-5.8-4.6 50.8 50.8 0 0 0-6.6-3 7.5 7.5 0 0 0-1.3-.4z" opacity=".2"/><path d="M479 183.7c-3.1 1.6-.5 6 2.6 4.5l2.4-1.2a92.1 92.1 0 0 1 30.8-8c2.7-.3 5.4-.6 7.9.4a53 53 0 0 0-20.5-1.2 133.4 133.4 0 0 0-19.9 4.3 17.8 17.8 0 0 0-3.4 1.2z"/><path d="M487.7 200.5c-2.2 2 1.2 4.5 3.5 2.5l1.7-1.5a92.6 92.6 0 0 1 24.3-14.9 103.3 103.3 0 0 0-11 3 135.8 135.8 0 0 0-16 9 17 17 0 0 0-2.5 2z" opacity=".5"/><path d="M503.3 227.4c-.6 2.9 3.6 3 4.4 0l.5-2.3a92 92 0 0 1 11.5-26 101 101 0 0 0-7.4 8.8 136 136 0 0 0-8 16.4 17.9 17.9 0 0 0-1 3zM534.8 124.4c-1.5-3-5.7-.5-4.4 2.6l1.2 2.4c4.6 9.3 6.2 20 7.3 30.7a15 15 0 0 1-.5 7.7 53 53 0 0 0 1.5-20.2 134 134 0 0 0-3.9-19.8 17.8 17.8 0 0 0-1.2-3.4zM511 129.6a.5.5 0 0 0 .3 0 .4.4 0 0 0 .3-.2c.4-.9.2-1.9.7-2.6a8.8 8.8 0 0 1 1.4 2.4l2.2-.7a3.3 3.3 0 0 1-.4 2.5 3.4 3.4 0 0 1 1 .7 1.1 1.1 0 0 1 .3 1.1 5.3 5.3 0 0 1-1.6.2 10 10 0 0 1-.1 2.9.6.6 0 0 1-.2.4.5.5 0 0 1-.6-.1 5.1 5.1 0 0 1-1.8-2l-.8 2a.9.9 0 0 1-.3.5.6.6 0 0 1-.7-.2 1.8 1.8 0 0 1-.3-.8l-.3-1.8a.4.4 0 0 0 0-.3.5.5 0 0 0-.4 0h-2.3c-.2-.5.3-.9.7-1s.8-.4 1-.8c.4-.8-.6-1.9-.2-2.5s1.5 0 2.1.3z"/><path d="M553.4 140a2 2 0 0 1 3.2 2.3l-1.2 1.6c-4.6 6.3-7 14-9.2 21.6-.5 1.9-1 3.9-.4 5.7a35.6 35.6 0 0 1 1-14.9 91.7 91.7 0 0 1 5.3-14 12.4 12.4 0 0 1 1.3-2.4z" opacity=".5"/><path d="M583.8 153.3c3.2-.1 3.6 4.7.4 5h-2.4c-9.7.3-18.9 3.8-27.7 7.6-2.2 1-4.4 2-5.7 4a41.5 41.5 0 0 1 14.8-10.5 109.5 109.5 0 0 1 17.4-5.6 15 15 0 0 1 3.2-.5z"/><path d="M583 165c2 .1 1.5 3-.5 3H581a56.6 56.6 0 0 0-18.5 3.3 9.3 9.3 0 0 0-4.1 2 33.2 33.2 0 0 1 10.8-5.4 82.3 82.3 0 0 1 11.7-2.6 11.3 11.3 0 0 1 2.1-.2z" opacity=".5"/><path d="M579.3 137.3c1.2-.2 1.3 1.5.1 1.8l-1 .2c-3.6.6-7.2 2.4-10.5 4.3a5.8 5.8 0 0 0-2.3 1.7 20.2 20.2 0 0 1 5.8-4.6 51.5 51.5 0 0 1 6.7-3 7.3 7.3 0 0 1 1.2-.4zM548 221.5c-.3 1.2-2 .6-1.7-.6l.2-.9c.8-3.6.5-7.6.1-11.4a5.8 5.8 0 0 0-.8-2.8 20.2 20.2 0 0 1 2.1 7.1 51.5 51.5 0 0 1 .3 7.4 6.2 6.2 0 0 1-.2 1.2z" opacity=".2"/><path d="M578.5 213.6c1 1.6-1.3 1.5-2.4 0l-.7-1.3a85.6 85.6 0 0 0-11.6-14.4 16 16 0 0 0-3.6-3 57.4 57.4 0 0 1 9.4 8c2.8 3 5.3 6 7.8 9a15 15 0 0 1 1.1 1.7z" opacity=".5"/><path d="M494.9 213.6c-1 1.6 1.4 1.5 2.4 0l.7-1.3c2.9-4.9 7.2-9.7 11.6-14.4a16.1 16.1 0 0 1 3.6-3 57.4 57.4 0 0 0-9.4 8c-2.8 3-5.3 6-7.7 9a15 15 0 0 0-1.2 1.7zM525.5 221.5c.3 1.2 1.9.6 1.7-.6l-.2-.9c-.8-3.6-.5-7.6-.1-11.4a5.7 5.7 0 0 1 .8-2.8 20.2 20.2 0 0 0-2.1 7.1 50 50 0 0 0-.3 7.4 7 7 0 0 0 .2 1.2zM569.7 149.2c1.2-.2 1.3 1.6 0 1.9l-.9.1c-3.7.7-7.2 2.5-10.6 4.3a5.8 5.8 0 0 0-2.2 1.8 20.3 20.3 0 0 1 5.7-4.7 50.7 50.7 0 0 1 6.7-3 6.5 6.5 0 0 1 1.3-.4zM558.4 125.8c1-.7 1.8.9.8 1.6l-.8.5a35 35 0 0 0-8.2 8 5.7 5.7 0 0 0-1.4 2.5 20.3 20.3 0 0 1 3.6-6.5 50.9 50.9 0 0 1 5-5.3 6.4 6.4 0 0 1 1-.8z" opacity=".2"/><path d="M597.9 183.7c3 1.6.5 6-2.7 4.5l-2.4-1.2a92 92 0 0 0-30.8-8c-2.6-.3-5.4-.6-7.8.4a53 53 0 0 1 20.4-1.2 133.3 133.3 0 0 1 20 4.3 18.3 18.3 0 0 1 3.3 1.2z"/><path d="M589.2 200.5c2.2 2-1.3 4.5-3.6 2.5l-1.7-1.5a92.4 92.4 0 0 0-24.3-14.9 103.2 103.2 0 0 1 11 3 135.2 135.2 0 0 1 16 9 17 17 0 0 1 2.6 2z" opacity=".5"/><path d="M563.3 230.7c.3 3-3.9 2.5-4.3-.5l-.2-2.3a92.4 92.4 0 0 0-8.2-27.3 100.9 100.9 0 0 1 6.2 9.7 136.2 136.2 0 0 1 5.9 17.3 16.9 16.9 0 0 1 .6 3zM565.8 129.6a.5.5 0 0 1-.3 0 .5.5 0 0 1-.3-.2c-.4-.9-.2-1.9-.7-2.6a8.8 8.8 0 0 0-1.4 2.4l-2.2-.7a3.2 3.2 0 0 0 .4 2.5 3.4 3.4 0 0 0-1 .7 1.1 1.1 0 0 0-.3 1.1 5.4 5.4 0 0 0 1.6.2 10.3 10.3 0 0 0 .1 2.9.6.6 0 0 0 .2.4.5.5 0 0 0 .6-.1 5.1 5.1 0 0 0 1.8-2l.8 2a1 1 0 0 0 .3.5.6.6 0 0 0 .7-.2 1.8 1.8 0 0 0 .3-.8l.3-1.8a.4.4 0 0 1 0-.3.5.5 0 0 1 .4 0h2.3c.2-.5-.3-.9-.7-1s-.8-.4-1-.8c-.4-.8.6-1.9.2-2.5s-1.4 0-2.1.3z"/><path d="M572.4 220a.6.6 0 0 1-.2 0c-.2 0-.3-.1-.4-.3-.4-.8-.2-1.9-.7-2.5a8.6 8.6 0 0 0-1.4 2.3l-2.2-.7a3.3 3.3 0 0 0 .4 2.5 3.3 3.3 0 0 0-1 .7 1.1 1.1 0 0 0-.3 1.2 5.8 5.8 0 0 0 1.6.1 10.3 10.3 0 0 0 .1 3 .6.6 0 0 0 .2.3l.6-.1a5 5 0 0 0 1.8-2l.8 2a.8.8 0 0 0 .3.5.6.6 0 0 0 .7-.2 1.8 1.8 0 0 0 .3-.7l.3-2a.6.6 0 0 1 0-.2.5.5 0 0 1 .4 0h2.3c.2-.5-.3-.9-.6-1s-1-.4-1.1-.8c-.4-.7.6-1.8.2-2.5s-1.4 0-2 .3z" opacity=".2"/><path d="M591 159.4a.7.7 0 0 1-.3 0l-.3-.2c-.4-.9-.2-2-.7-2.6a8.8 8.8 0 0 0-1.4 2.3l-2.2-.6a3.3 3.3 0 0 0 .4 2.5 3.2 3.2 0 0 0-1 .7 1.1 1.1 0 0 0-.3 1.1 5.8 5.8 0 0 0 1.6.2 10.3 10.3 0 0 0 .1 2.9.6.6 0 0 0 .2.3.5.5 0 0 0 .5 0 5.1 5.1 0 0 0 1.8-2l.9 2a.8.8 0 0 0 .3.5.6.6 0 0 0 .7-.3 1.6 1.6 0 0 0 .2-.7l.4-1.9a.4.4 0 0 1 0-.2.5.5 0 0 1 .4-.1h2.3c.1-.4-.3-.8-.7-1s-.8-.3-1-.7c-.4-.8.6-1.9.2-2.5s-1.4 0-2.1.3zM516.7 229a.8.8 0 0 1-.4.1c-.2 0-.4-.2-.5-.4-.5-1.2-.2-2.6-1-3.6a12.2 12.2 0 0 0-1.9 3.3l-3-1a4.5 4.5 0 0 0 .5 3.5 4.6 4.6 0 0 0-1.4 1 1.6 1.6 0 0 0-.4 1.6 7.5 7.5 0 0 0 2.2.3 14.6 14.6 0 0 0 .2 4 .8.8 0 0 0 .3.5c.2.1.5 0 .7-.1a7.2 7.2 0 0 0 2.5-2.7l1.1 2.7a1.2 1.2 0 0 0 .6.7.8.8 0 0 0 1-.3 2.3 2.3 0 0 0 .3-1l.4-2.6a.5.5 0 0 1 .6-.5h3.2c.2-.6-.3-1.1-.9-1.4s-1.2-.4-1.5-1c-.5-1 1-2.6.3-3.5-.8-1.2-2 0-3 .4zM485.8 161.2a.8.8 0 0 1-.4.1c-.2 0-.4-.2-.5-.4-.5-1.2-.2-2.6-1-3.6a12.2 12.2 0 0 0-2 3.3l-3-1a4.5 4.5 0 0 0 .6 3.5 5 5 0 0 0-1.4 1 1.6 1.6 0 0 0-.4 1.6 7.8 7.8 0 0 0 2.1.3 14.6 14.6 0 0 0 .3 4 .7.7 0 0 0 .2.5c.3.1.5 0 .8-.2a7.2 7.2 0 0 0 2.5-2.6l1.1 2.7a1.3 1.3 0 0 0 .5.7.8.8 0 0 0 1-.3 2.3 2.3 0 0 0 .3-1l.4-2.6a.7.7 0 0 1 .2-.4.6.6 0 0 1 .4-.1h3.3c.2-.6-.4-1.1-1-1.4s-1.2-.4-1.4-1c-.6-1 .8-2.6.2-3.5-.7-1.1-1.9 0-2.8.4z"/><path d="M579.6 203.2a.3.3 0 0 1-.2 0 .3.3 0 0 1-.3-.2c-.2-.6 0-1.4-.5-1.9a6.6 6.6 0 0 0-1 1.8l-1.6-.5a2.4 2.4 0 0 0 .3 1.8 2.4 2.4 0 0 0-.8.5.8.8 0 0 0-.2.9 4 4 0 0 0 1.2.1 7.3 7.3 0 0 0 0 2.1.4.4 0 0 0 .2.3.4.4 0 0 0 .4 0 3.7 3.7 0 0 0 1.4-1.5l.6 1.5a.7.7 0 0 0 .2.3.4.4 0 0 0 .5-.1 1.4 1.4 0 0 0 .2-.6l.2-1.4a.3.3 0 0 1 .3-.3h1.8c0-.3-.2-.5-.5-.7s-.7-.2-.8-.5c-.3-.6.4-1.4.1-1.9s-1 0-1.5.3zM537.6 227.4a.4.4 0 0 1-.2 0 .3.3 0 0 1-.3-.1c-.2-.7 0-1.4-.5-2a6.5 6.5 0 0 0-1 1.8l-1.6-.5a2.4 2.4 0 0 0 .3 1.9 2.4 2.4 0 0 0-.8.5.8.8 0 0 0-.2.8 4 4 0 0 0 1.2.2 7.3 7.3 0 0 0 0 2 .4.4 0 0 0 .2.4l.4-.1a3.7 3.7 0 0 0 1.4-1.4l.6 1.4a.7.7 0 0 0 .2.4.5.5 0 0 0 .5-.2 1.2 1.2 0 0 0 .2-.5l.2-1.4a.3.3 0 0 1 .4-.3h1.7c0-.3-.2-.6-.5-.7s-.7-.2-.8-.5c-.3-.6.5-1.4.1-1.9s-1 0-1.5.2z" opacity=".2"/><path d="M497 142.6a.5.5 0 0 1-.2 0l-.3-.2c-.2-.6 0-1.4-.5-1.9a6.3 6.3 0 0 0-1 1.7l-1.7-.5a2.4 2.4 0 0 0 .3 1.8 2.7 2.7 0 0 0-.8.6.8.8 0 0 0-.2.8 4.4 4.4 0 0 0 1.2.1 7.6 7.6 0 0 0 .1 2.2.4.4 0 0 0 .1.2c.2.1.3 0 .4 0a3.8 3.8 0 0 0 1.4-1.4l.6 1.4a.6.6 0 0 0 .2.4.4.4 0 0 0 .6-.2 1.3 1.3 0 0 0 .1-.6l.3-1.3a.4.4 0 0 1 0-.2.3.3 0 0 1 .3 0h1.7c0-.4-.2-.7-.5-.8s-.6-.2-.8-.5c-.3-.6.5-1.4.2-1.9s-1 0-1.5.3zM518.6 190.4a.3.3 0 0 1-.2 0l-.3-.2c-.3-.6 0-1.4-.5-2a6.3 6.3 0 0 0-1 1.8l-1.6-.5a2.4 2.4 0 0 0 .3 1.9 2.5 2.5 0 0 0-.8.5.9.9 0 0 0-.2.8 4.5 4.5 0 0 0 1.2.2 7.6 7.6 0 0 0 0 2 .4.4 0 0 0 .2.4l.4-.1a3.8 3.8 0 0 0 1.3-1.4l.7 1.4a.6.6 0 0 0 .2.4.4.4 0 0 0 .5-.2 1.2 1.2 0 0 0 .2-.5l.2-1.4a.3.3 0 0 1 .1-.2.4.4 0 0 1 .2 0h1.8c0-.4-.2-.7-.5-.8s-.7-.2-.8-.5c-.3-.6.5-1.4.1-1.9s-1 0-1.5.3zM502.9 171.7a.4.4 0 0 1-.2.1.3.3 0 0 1-.3-.2c-.2-.6 0-1.4-.5-2a6.2 6.2 0 0 0-1 1.8l-1.6-.5a2.4 2.4 0 0 0 .3 1.9 2.5 2.5 0 0 0-.8.5.9.9 0 0 0-.2.9 4 4 0 0 0 1.2 0 7.6 7.6 0 0 0 0 2.2.4.4 0 0 0 .2.3l.4-.1a3.7 3.7 0 0 0 1.3-1.4l.7 1.4a.7.7 0 0 0 .2.4.4.4 0 0 0 .5-.2 1.3 1.3 0 0 0 .2-.5l.2-1.4a.3.3 0 0 1 .1-.2.3.3 0 0 1 .2 0h1.8c0-.4-.2-.7-.5-.8s-.7-.2-.8-.5c-.3-.6.5-1.4.1-1.9s-1 0-1.5.2zM570.3 176.1a.5.5 0 0 1-.2 0 .3.3 0 0 1-.2-.1c-.3-.7-.1-1.4-.6-2a6.5 6.5 0 0 0-1 1.8l-1.6-.5a2.4 2.4 0 0 0 .3 1.9 2.5 2.5 0 0 0-.8.5.8.8 0 0 0-.2.8 4 4 0 0 0 1.2.2 7.6 7.6 0 0 0 .1 2 .4.4 0 0 0 .1.4l.4-.1a3.7 3.7 0 0 0 1.4-1.4l.6 1.4a.7.7 0 0 0 .3.4.4.4 0 0 0 .5-.2 1.3 1.3 0 0 0 .1-.5l.3-1.4a.3.3 0 0 1 .3-.3h1.7c0-.3-.2-.6-.5-.7s-.6-.2-.8-.5c-.3-.6.5-1.4.2-1.9s-1 0-1.6.2z" opacity=".5"/><path d="M537.6 172.5a.3.3 0 0 1-.2 0 .3.3 0 0 1-.3-.2c-.2-.6 0-1.4-.5-1.9a6.6 6.6 0 0 0-1 1.7l-1.6-.5a2.4 2.4 0 0 0 .3 1.9 2.4 2.4 0 0 0-.8.5.8.8 0 0 0-.2.9 4 4 0 0 0 1.2 0 7.3 7.3 0 0 0 0 2.2.4.4 0 0 0 .2.3.4.4 0 0 0 .4 0 3.7 3.7 0 0 0 1.4-1.5l.6 1.5a.7.7 0 0 0 .2.3.5.5 0 0 0 .5-.2 1.2 1.2 0 0 0 .2-.5l.2-1.4a.3.3 0 0 1 .4-.2h1.7c0-.3-.2-.6-.5-.8s-.7-.2-.8-.5c-.3-.5.5-1.4.1-1.9s-1 0-1.5.3z" opacity=".2"/><path d="M527.3 177a.5.5 0 0 1-.2 0l-.2-.2c-.3-.7-.1-1.4-.6-2a6.5 6.5 0 0 0-1 1.8l-1.6-.5a2.4 2.4 0 0 0 .3 1.9 2.3 2.3 0 0 0-.8.5.8.8 0 0 0-.2.8 4 4 0 0 0 1.2.2 7.6 7.6 0 0 0 .1 2 .4.4 0 0 0 .2.4l.3-.1a3.8 3.8 0 0 0 1.4-1.4l.6 1.4a.7.7 0 0 0 .3.4.4.4 0 0 0 .5-.2 1.5 1.5 0 0 0 .1-.5l.3-1.4a.3.3 0 0 1 .3-.3h1.7c.1-.3-.2-.6-.5-.7s-.6-.2-.8-.5c-.3-.6.5-1.4.2-1.9s-1 0-1.6.2z" opacity=".3"/><path d="M517.8 149.9a.3.3 0 0 1-.2 0c-.2 0-.3 0-.3-.2-.3-.6-.1-1.4-.5-1.9a6.6 6.6 0 0 0-1 1.8l-1.7-.5a2.4 2.4 0 0 0 .3 1.8 2.4 2.4 0 0 0-.7.5.8.8 0 0 0-.2.9 4.4 4.4 0 0 0 1.1.1 7.3 7.3 0 0 0 .1 2.2.4.4 0 0 0 .2.2c.1.1.3 0 .4 0a3.7 3.7 0 0 0 1.3-1.5l.6 1.5a.7.7 0 0 0 .3.3.5.5 0 0 0 .5-.1 1.3 1.3 0 0 0 .2-.6l.2-1.3a.4.4 0 0 1 0-.2.4.4 0 0 1 .3-.1h1.7c.1-.3-.2-.6-.5-.7s-.6-.3-.8-.5c-.3-.6.5-1.4.2-2s-1 0-1.5.3z" opacity=".2"/><path d="M536.6 185.2a.3.3 0 0 1-.4-.2c-.3-.6-.2-1.4-.6-1.9a6.6 6.6 0 0 0-1 1.7l-1.6-.5a2.4 2.4 0 0 0 .3 1.9 2.6 2.6 0 0 0-.8.5.8.8 0 0 0-.2.9 4 4 0 0 0 1.2 0 7.7 7.7 0 0 0 .1 2.2.4.4 0 0 0 .1.3.4.4 0 0 0 .4 0 3.8 3.8 0 0 0 1.4-1.5l.6 1.5a.7.7 0 0 0 .2.3.4.4 0 0 0 .5-.2 1.2 1.2 0 0 0 .2-.5l.2-1.4a.4.4 0 0 1 .1-.2.3.3 0 0 1 .2 0h1.8c0-.4-.2-.6-.5-.8s-.7-.2-.8-.5c-.3-.6.5-1.4.1-1.9s-1 0-1.5.3z" opacity=".3"/></g><g opacity=".8" fill="#536dfe"><path d="M788.6 38.7c-2.4-3.3-7.4.3-5.2 3.7l1.9 2.6c7.5 10 11.3 22.3 14.7 34.4.8 3 1.6 6.1.7 9 1.3-7.8.4-16-1.6-23.6s-5.1-15.1-8.4-22.5a20.3 20.3 0 0 0-2-3.6z" opacity=".5"/><path d="M740.1 59.9c-5-.2-5.6 7.5-.6 7.9l3.9.1c15.4.4 30 6 44 12 3.5 1.5 7 3.2 9.1 6.3C790.2 79 782 73.5 773 69.6s-18.3-6.6-27.7-9a23.6 23.6 0 0 0-5.2-.7z"/><path d="M741.5 78.7c-3.2 0-2.4 4.6.8 4.6h2.5c9.7-.4 19.7 2.3 29.3 5.2a15 15 0 0 1 6.6 3.3 53 53 0 0 0-17.1-8.8 131.8 131.8 0 0 0-18.7-4 16.3 16.3 0 0 0-3.4-.3z" opacity=".2"/><path d="M806.7 162.7c.9 3.1 5 1.3 4.3-1.8l-.7-2.4a90.3 90.3 0 0 1-2.2-29.8c.1-2.4.3-5 1.6-7.2a53 53 0 0 0-4.3 18.8 131 131 0 0 0 .7 19.2 16.8 16.8 0 0 0 .6 3.2z" opacity=".5"/><path d="M747.3 34.4c-1.9-.3-2 2.5-.1 2.9l1.5.3c5.8 1 11.4 3.8 16.8 6.8a9.3 9.3 0 0 1 3.6 2.9 32.4 32.4 0 0 0-9.2-7.5 81.8 81.8 0 0 0-10.6-4.8 11.1 11.1 0 0 0-2-.6z" opacity=".2"/><path d="M717.8 108.4c-5 2.5-.8 9.3 4.2 7 1.3-.5 2.6-1.2 3.8-1.8a147 147 0 0 1 49-12.8 24 24 0 0 1 12.5.7c-10.5-3-21.6-3.2-32.5-2s-21.3 4-31.7 6.8a28.2 28.2 0 0 0-5.4 2z"/><path d="M731.6 135.1c-3.5 3.3 2 7.1 5.7 4l2.7-2.5c10.6-10 24.7-17.1 38.7-23.7a90.2 90.2 0 0 1 21.4-3.1c-9.9.9-30 4-39 8a214.9 214.9 0 0 0-25.4 14.3 27 27 0 0 0-4 3z" opacity=".5"/><path d="M756.6 177.8c-1 4.7 5.6 4.7 6.8 0l.9-3.6c3-14.2 10.6-28 18.4-41.4 2-3.3 12.6-12.7 15.8-14.8a160.3 160.3 0 0 0-27.5 28.8 216.2 216.2 0 0 0-12.8 26.2 26.6 26.6 0 0 0-1.6 4.8zM806.7 14c-2.4-4.9-9.2-1-7 4l1.8 3.9c7.3 14.8 9.9 32 11.8 48.8a24 24 0 0 1-.9 12.3c3.1-10.4 3.5-21.4 2.4-32.2s-3.5-21.1-6.2-31.5a27.9 27.9 0 0 0-1.9-5.3zM768.8 22.2a.9.9 0 0 0 .4.1c.3 0 .5-.2.6-.5.6-1.3.2-3 1.2-4a13.9 13.9 0 0 1 2.2 3.7l3.5-1a5.2 5.2 0 0 1-.7 4 5.5 5.5 0 0 1 1.6 1 1.8 1.8 0 0 1 .5 2 8.9 8.9 0 0 1-2.5.2 16 16 0 0 1-.3 4.6.8.8 0 0 1-.3.5c-.2.2-.5 0-.8-.1a8.1 8.1 0 0 1-2.9-3l-1.3 3a1.4 1.4 0 0 1-.6.8 1 1 0 0 1-1-.4 2.8 2.8 0 0 1-.5-1.2l-.4-3a.7.7 0 0 0-.2-.4.8.8 0 0 0-.5-.2H763c-.2-.6.4-1.2 1-1.5s1.4-.5 1.8-1.1c.6-1.3-1-3-.4-4 .9-1.3 2.2 0 3.3.5z"/><path d="M836.2 38.7c2.4-3.3 7.4.3 5.2 3.7l-1.9 2.6c-7.4 10-11.3 22.3-14.7 34.4-.8 3-1.6 6.1-.6 9-1.4-7.8-.5-16 1.5-23.6s5.2-15.1 8.4-22.4a21 21 0 0 1 2.1-3.7z" opacity=".5"/><path d="M884.7 59.9c5-.2 5.7 7.5.6 7.9l-3.9.1c-15.4.4-30 6-44 12-3.4 1.5-7 3.2-9 6.3 6.2-7.3 14.6-12.7 23.4-16.6s18.3-6.6 27.7-9a23.6 23.6 0 0 1 5.2-.7z"/><path d="M883.3 78.7c3.2 0 2.5 4.6-.7 4.6H880a90.2 90.2 0 0 0-29.4 5.2 15 15 0 0 0-6.6 3.3 53 53 0 0 1 17.2-8.8 131.8 131.8 0 0 1 18.7-4 16.3 16.3 0 0 1 3.3-.3z" opacity=".5"/><path d="M877.5 34.4c2-.3 2 2.5.1 2.9l-1.4.3c-5.9 1-11.5 3.8-17 6.8a9.3 9.3 0 0 0-3.4 2.9 32.4 32.4 0 0 1 9-7.5 82.5 82.5 0 0 1 10.7-4.8 11.1 11.1 0 0 1 2-.6zM827.6 168.5c-.4 2-3 1-2.7-1 0-.5.2-1 .3-1.4 1.3-5.8.9-12.1.2-18.3a9.2 9.2 0 0 0-1.3-4.3 32.3 32.3 0 0 1 3.4 11.3 80 80 0 0 1 .3 11.7 10 10 0 0 1-.2 2z" opacity=".2"/><path d="M876.3 156c1.5 2.5-2.2 2.3-3.8-.2l-1.2-2a137 137 0 0 0-18.5-22.9 25.6 25.6 0 0 0-5.7-5 91 91 0 0 1 15 13c4.5 4.6 8.4 9.5 12.3 14.4a23.6 23.6 0 0 1 1.9 2.6z" opacity=".5"/><path d="M743.1 156c-1.5 2.5 2.2 2.3 3.8-.2l1.2-2a137 137 0 0 1 18.5-22.9 25.4 25.4 0 0 1 5.7-5 90.6 90.6 0 0 0-15 13c-4.4 4.6-8.4 9.5-12.3 14.4a23.6 23.6 0 0 0-1.9 2.6zM791.8 168.5c.5 2 3 1 2.7-1 0-.5-.2-1-.3-1.4-1.3-5.8-.8-12.1-.2-18.3a9.2 9.2 0 0 1 1.3-4.3 32.3 32.3 0 0 0-3.3 11.3 80 80 0 0 0-.3 11.7 10 10 0 0 0 .1 2zM862.2 53.5c1.9-.4 2 2.4.1 2.8l-1.5.3c-5.8 1-11.5 3.9-16.9 6.9a9.2 9.2 0 0 0-3.5 2.8 32.2 32.2 0 0 1 9.2-7.4 79.2 79.2 0 0 1 10.6-4.9 9.7 9.7 0 0 1 2-.5zM844.3 16c1.6-1 2.8 1.6 1.2 2.7l-1.3.8a55 55 0 0 0-13 12.7 9 9 0 0 0-2.3 3.9 32.3 32.3 0 0 1 5.7-10.3 80.5 80.5 0 0 1 8-8.5 10.5 10.5 0 0 1 1.7-1.2z" opacity=".2"/><path d="M907 108.4c5 2.5.8 9.3-4.2 7-1.3-.5-2.5-1.2-3.8-1.8a147 147 0 0 0-49-12.8 24 24 0 0 0-12.5.7c10.5-3 21.7-3.2 32.5-2s21.3 4 31.7 6.8a28.5 28.5 0 0 1 5.4 2z"/><path d="M893.2 135.1c3.5 3.3-2 7.1-5.6 4l-2.8-2.5a147.4 147.4 0 0 0-38.7-23.7 90.2 90.2 0 0 0-21.4-3.1c9.9.9 30 4 39 8a215 215 0 0 1 25.5 14.3 27 27 0 0 1 4 3z" opacity=".5"/><path d="M852 183.1c.4 4.8-6.2 4-6.8-.8l-.4-3.7c-1.3-14.5-7-29.2-13-43.4a90 90 0 0 0-14-16.6c6.9 7.2 19.8 23 23.8 32A215.3 215.3 0 0 1 851 178a27.5 27.5 0 0 1 1 5zM856 22.2a.9.9 0 0 1-.4.1c-.3 0-.5-.2-.6-.5-.6-1.3-.2-3-1.1-4a13.9 13.9 0 0 0-2.3 3.7l-3.4-1a5.2 5.2 0 0 0 .6 4 5.5 5.5 0 0 0-1.6 1 1.8 1.8 0 0 0-.5 2 8.8 8.8 0 0 0 2.5.2 16.4 16.4 0 0 0 .3 4.6.9.9 0 0 0 .3.5c.2.2.6 0 .8-.1a8.1 8.1 0 0 0 2.9-3l1.3 3.1a1.3 1.3 0 0 0 .6.8 1 1 0 0 0 1-.4 2.7 2.7 0 0 0 .4-1.2l.5-3a.8.8 0 0 1 .2-.4.8.8 0 0 1 .5-.1h3.7c.2-.7-.4-1.3-1-1.6s-1.4-.5-1.8-1c-.6-1.3 1-3 .3-4.1-.8-1.4-2.1-.1-3.2.4z"/><path d="M866.5 166a.9.9 0 0 1-.4.1c-.2 0-.4-.2-.5-.5-.6-1.3-.3-3-1.2-4a14 14 0 0 0-2.2 3.7l-3.5-1.1a5.2 5.2 0 0 0 .7 4 5.5 5.5 0 0 0-1.7 1.1 1.8 1.8 0 0 0-.4 1.9 8.9 8.9 0 0 0 2.4.2 16 16 0 0 0 .3 4.6.8.8 0 0 0 .3.6c.3.1.6 0 .9-.2a8.1 8.1 0 0 0 2.8-3l1.3 3.1a1.4 1.4 0 0 0 .6.8 1 1 0 0 0 1.1-.4 2.8 2.8 0 0 0 .4-1.1l.5-3a.5.5 0 0 1 .6-.6h3.7c.3-.6-.4-1.2-1-1.5s-1.4-.5-1.7-1.1c-.7-1.2 1-3 .3-4-.8-1.4-2.2-.1-3.3.4z" opacity=".2"/><path d="M896.1 69.6a.8.8 0 0 1-.4.1c-.3 0-.4-.2-.5-.5-.6-1.3-.3-3-1.2-4a14 14 0 0 0-2.2 3.7l-3.5-1a5.2 5.2 0 0 0 .6 4 5.4 5.4 0 0 0-1.6 1 1.9 1.9 0 0 0-.4 1.9 9 9 0 0 0 2.4.2 16.4 16.4 0 0 0 .3 4.6.9.9 0 0 0 .3.6c.3.2.6 0 .8-.1a8.2 8.2 0 0 0 3-3l1.2 3a1.4 1.4 0 0 0 .6.8 1 1 0 0 0 1-.3 2.7 2.7 0 0 0 .5-1.2l.5-3a.8.8 0 0 1 .1-.4.7.7 0 0 1 .5-.2h3.7c.2-.6-.4-1.2-1-1.5s-1.4-.5-1.7-1.1c-.7-1.3 1-3 .3-4-.9-1.4-2.2-.1-3.3.4zM777.8 180.4a1.2 1.2 0 0 1-.5.2c-.4 0-.7-.4-.8-.7-.8-1.8-.4-4.2-1.6-5.7a19.4 19.4 0 0 0-3.1 5.2l-4.9-1.5a7.3 7.3 0 0 0 1 5.6 7.4 7.4 0 0 0-2.4 1.5 2.5 2.5 0 0 0-.6 2.6 12.5 12.5 0 0 0 3.5.4 22.5 22.5 0 0 0 .3 6.3 1.2 1.2 0 0 0 .4.9 1.1 1.1 0 0 0 1.2-.2 11.2 11.2 0 0 0 4-4.3l1.9 4.3a1.9 1.9 0 0 0 .8 1.1 1.3 1.3 0 0 0 1.5-.5 3.9 3.9 0 0 0 .5-1.6l.7-4.2a1 1 0 0 1 .2-.5 1 1 0 0 1 .7-.2h5.2c.3-1-.6-1.8-1.5-2.2s-2-.7-2.4-1.5c-.9-1.8 1.4-4.2.5-5.7-1.2-1.8-3 0-4.6.7zM728.6 72.5a1.2 1.2 0 0 1-.6.2c-.3 0-.6-.4-.7-.7-.8-1.8-.4-4.2-1.6-5.7a19.5 19.5 0 0 0-3.2 5.2l-4.8-1.5a7.2 7.2 0 0 0 1 5.6 7.3 7.3 0 0 0-2.4 1.5 2.5 2.5 0 0 0-.6 2.6 12.4 12.4 0 0 0 3.5.3 22.8 22.8 0 0 0 .3 6.4 1.2 1.2 0 0 0 .4.8c.4.3.9 0 1.2-.2a11.3 11.3 0 0 0 4-4.2l1.8 4.3a2 2 0 0 0 .8 1.1 1.3 1.3 0 0 0 1.6-.5 3.9 3.9 0 0 0 .5-1.7l.7-4a1 1 0 0 1 .2-.7 1 1 0 0 1 .7-.2h5.2c.3-1-.7-1.8-1.5-2.2s-2-.6-2.4-1.5c-.9-1.7 1.4-4.1.4-5.6-1.1-1.8-3 0-4.5.7z"/><path d="M878 139.3a.6.6 0 0 1-.3.1c-.2 0-.3-.2-.4-.4-.5-1-.2-2.2-.9-3a10 10 0 0 0-1.6 2.8l-2.6-.8a3.8 3.8 0 0 0 .5 3 4.1 4.1 0 0 0-1.2.8 1.4 1.4 0 0 0-.3 1.4 7 7 0 0 0 1.8.2 11.7 11.7 0 0 0 .2 3.4.6.6 0 0 0 .2.4c.2.1.4 0 .6-.1a6 6 0 0 0 2.1-2.3l1 2.3a1 1 0 0 0 .5.6.7.7 0 0 0 .8-.3 2 2 0 0 0 .3-.8l.3-2.2a.4.4 0 0 1 .5-.4h2.8c.1-.5-.4-1-.8-1.2s-1-.3-1.3-.8c-.5-1 .8-2.2.2-3s-1.6 0-2.4.3zM811.1 178a.6.6 0 0 1-.3 0c-.2 0-.3-.2-.4-.4-.4-1-.2-2.2-.9-3a10.3 10.3 0 0 0-1.6 2.8l-2.6-.8a3.8 3.8 0 0 0 .5 3 4 4 0 0 0-1.2.8 1.4 1.4 0 0 0-.3 1.4 7 7 0 0 0 1.8.2 12 12 0 0 0 .2 3.4.6.6 0 0 0 .2.4c.2.1.4 0 .6-.1a6 6 0 0 0 2.2-2.3l1 2.3a1 1 0 0 0 .4.6.7.7 0 0 0 .8-.3 2 2 0 0 0 .3-.8l.3-2.2a.6.6 0 0 1 .1-.3.6.6 0 0 1 .4-.1h2.8c.1-.5-.4-1-.8-1.2s-1-.3-1.3-.8c-.5-1 .8-2.2.3-3s-1.7 0-2.5.3z" opacity=".2"/><path d="M746.4 42.8a.6.6 0 0 1-.3.1.5.5 0 0 1-.4-.4c-.4-1-.2-2.2-.9-3a10.3 10.3 0 0 0-1.6 2.8l-2.6-.8a3.8 3.8 0 0 0 .5 3 4 4 0 0 0-1.2.8 1.4 1.4 0 0 0-.3 1.4 6.3 6.3 0 0 0 1.8.2 12.1 12.1 0 0 0 .2 3.4.6.6 0 0 0 .2.4c.2.1.4 0 .6-.1a6 6 0 0 0 2.2-2.3l1 2.3a1 1 0 0 0 .4.6.7.7 0 0 0 .8-.3 2 2 0 0 0 .3-.8l.3-2.2a.6.6 0 0 1 .1-.3.5.5 0 0 1 .4-.1h2.8c.1-.5-.4-1-.8-1.2s-1-.3-1.3-.8c-.5-1 .8-2.2.2-3s-1.6 0-2.4.3zM780.8 119a.5.5 0 0 1-.3 0c-.2 0-.3-.1-.4-.3-.4-1-.2-2.2-.8-3a10.5 10.5 0 0 0-1.7 2.7l-2.6-.8a3.9 3.9 0 0 0 .5 3 4 4 0 0 0-1.2.9 1.4 1.4 0 0 0-.3 1.3 6.6 6.6 0 0 0 1.8.2 12.1 12.1 0 0 0 .2 3.4.6.6 0 0 0 .2.4c.2.2.5 0 .7 0a6 6 0 0 0 2-2.3l1 2.3a1 1 0 0 0 .5.5.7.7 0 0 0 .8-.2 2 2 0 0 0 .3-1l.4-2a.5.5 0 0 1 .1-.4.5.5 0 0 1 .4-.1h2.7c.2-.5-.3-1-.8-1.2s-1-.3-1.2-.8c-.5-.9.7-2.2.2-3s-1.7 0-2.5.4zM755.9 89.3a.8.8 0 0 1-.3 0 .6.6 0 0 1-.5-.3c-.4-1-.1-2.2-.8-3a10.3 10.3 0 0 0-1.7 2.8L750 88a4 4 0 0 0 .5 3 4 4 0 0 0-1.2.8 1.4 1.4 0 0 0-.3 1.3 6.2 6.2 0 0 0 1.8.2 12.1 12.1 0 0 0 .2 3.4.6.6 0 0 0 .2.5l.7-.1a6 6 0 0 0 2.1-2.3l1 2.3a1 1 0 0 0 .4.6.7.7 0 0 0 .8-.3 2 2 0 0 0 .3-.9l.4-2.2a.6.6 0 0 1 0-.3.5.5 0 0 1 .5 0h2.7c.2-.6-.3-1-.8-1.2s-1-.4-1.2-.8c-.5-1 .7-2.2.2-3s-1.6-.1-2.4.3zM863.2 96.3a.5.5 0 0 1-.3 0c-.2 0-.3-.1-.4-.3-.5-1-.2-2.2-.9-3a10.2 10.2 0 0 0-1.6 2.7l-2.6-.8a3.9 3.9 0 0 0 .5 3 4.1 4.1 0 0 0-1.2.9 1.4 1.4 0 0 0-.4 1.3 6.5 6.5 0 0 0 1.9.2 12.1 12.1 0 0 0 .2 3.4.6.6 0 0 0 .2.4c.2.2.4 0 .6 0a6 6 0 0 0 2.1-2.3l1 2.3a1 1 0 0 0 .5.6.7.7 0 0 0 .8-.3 2 2 0 0 0 .3-.9l.3-2.2a.4.4 0 0 1 .5-.4h2.8c.1-.5-.4-1-.8-1.1s-1-.4-1.3-.8c-.5-1 .8-2.3.2-3s-1.6-.1-2.4.3z" opacity=".5"/><path d="M811.1 90.4a.6.6 0 0 1-.3.1c-.2 0-.3-.2-.4-.4-.4-1-.2-2.2-.9-3A10.3 10.3 0 0 0 808 90l-2.6-.8a3.8 3.8 0 0 0 .5 3 4 4 0 0 0-1.2.8 1.4 1.4 0 0 0-.3 1.4 6.3 6.3 0 0 0 1.8.2 12.1 12.1 0 0 0 .2 3.4.7.7 0 0 0 .2.4c.2.1.4 0 .6-.1a6 6 0 0 0 2.2-2.3l1 2.3a1 1 0 0 0 .4.6.7.7 0 0 0 .8-.3 2 2 0 0 0 .3-.8l.3-2.2a.6.6 0 0 1 .1-.3.5.5 0 0 1 .4-.1h2.8c.1-.5-.4-1-.8-1.2s-1-.3-1.3-.8c-.5-1 .8-2.2.3-3s-1.7 0-2.5.3z" opacity=".2"/><path d="M794.8 97.5a.8.8 0 0 1-.3.1.6.6 0 0 1-.4-.3c-.5-1-.2-2.2-1-3a10.1 10.1 0 0 0-1.6 2.7l-2.5-.8a4 4 0 0 0 .4 3 4 4 0 0 0-1.2.8 1.4 1.4 0 0 0-.3 1.4 6.2 6.2 0 0 0 1.8.2 12.1 12.1 0 0 0 .2 3.4.6.6 0 0 0 .3.4c.1.1.4 0 .6-.1a6 6 0 0 0 2.1-2.3l1 2.3a1 1 0 0 0 .4.6.7.7 0 0 0 .8-.3 2 2 0 0 0 .3-.8l.4-2.2a.6.6 0 0 1 .1-.3.5.5 0 0 1 .4-.1h2.7c.2-.5-.3-1-.8-1.2s-1-.3-1.2-.8c-.5-1 .7-2.2.2-3s-1.6 0-2.4.3z" opacity=".3"/><path d="M779.5 54.5a.6.6 0 0 1-.3 0c-.2 0-.3-.1-.4-.3-.4-1-.2-2.2-.8-3a10.3 10.3 0 0 0-1.7 2.8l-2.6-.8a3.8 3.8 0 0 0 .5 3 4.1 4.1 0 0 0-1.2.8 1.4 1.4 0 0 0-.3 1.4 6.7 6.7 0 0 0 1.8.1 12.1 12.1 0 0 0 .2 3.4.7.7 0 0 0 .2.5c.2.1.5 0 .6-.1a5.9 5.9 0 0 0 2.2-2.3l1 2.3a1 1 0 0 0 .4.6.7.7 0 0 0 .8-.3 2 2 0 0 0 .3-.9l.3-2.1a.5.5 0 0 1 .2-.4.5.5 0 0 1 .3 0h2.8c.1-.6-.3-1-.8-1.2s-1-.4-1.3-.8c-.4-1 .8-2.2.3-3s-1.7 0-2.5.3z" opacity=".2"/><path d="M809.5 110.7a.8.8 0 0 1-.3 0c-.2 0-.3-.1-.4-.3-.4-1-.2-2.2-.8-3a10.3 10.3 0 0 0-1.7 2.8l-2.6-.8a3.8 3.8 0 0 0 .5 3 4 4 0 0 0-1.2.8 1.4 1.4 0 0 0-.3 1.3 6.3 6.3 0 0 0 1.8.2 12.1 12.1 0 0 0 .2 3.4.7.7 0 0 0 .2.5l.7-.1a6 6 0 0 0 2-2.3l1 2.3a1 1 0 0 0 .5.6.7.7 0 0 0 .8-.3 2 2 0 0 0 .3-.9l.4-2.2a.6.6 0 0 1 0-.3.5.5 0 0 1 .5 0h2.7c.1-.6-.3-1-.8-1.2s-1-.4-1.3-.8c-.4-1 .8-2.2.3-3s-1.7-.1-2.5.3z" opacity=".3"/></g><path d="M849.2 665.5a24.7 24.7 0 0 0 3.2-12.6c0-11.3-7-20.5-15.6-20.5S821 641.6 821 653a24.7 24.7 0 0 0 3.3 12.6 25.7 25.7 0 0 0 0 25 25.7 25.7 0 0 0 0 25.1 25.7 25.7 0 0 0 0 25.1 24.7 24.7 0 0 0-3.3 12.6c0 11.3 7 20.5 15.7 20.5s15.6-9.2 15.6-20.5a24.7 24.7 0 0 0-3.2-12.6 25.7 25.7 0 0 0 0-25 25.7 25.7 0 0 0 0-25.1 25.7 25.7 0 0 0 0-25.1z" fill="#3f3d56"/><ellipse cx="836.8" cy="627.9" rx="15.7" ry="20.5" fill="#3f3d56"/><ellipse cx="836.8" cy="602.8" rx="15.7" ry="20.5" fill="#3f3d56"/><path d="M778 431.2a75 75 0 0 1-5.7-8.6l41.1-6.8-44.5.4a75.2 75.2 0 0 1-1.4-59.5l59.7 31-55.1-40.5a75 75 0 1 1 124 84 75.4 75.4 0 0 1 8.6 13.6l-53.5 27.9 57-19.1a75.2 75.2 0 0 1-12 70.5 75 75 0 1 1-118 0 75.1 75.1 0 0 1 0-92.9z" fill="#536dfe"/><path d="M912.2 477.6a74.8 74.8 0 0 1-16 46.4 75 75 0 1 1-118 0c-10.2-12.8 134-54.8 134-46.4z" opacity=".1"/><path d="M275.4 672.8a26.2 26.2 0 0 0 3.5-13.3c0-12-7.5-21.7-16.6-21.7s-16.6 9.7-16.6 21.7a26.2 26.2 0 0 0 3.4 13.3 27.1 27.1 0 0 0 0 26.6 27.1 27.1 0 0 0 0 26.5 27.1 27.1 0 0 0 0 26.6 26.2 26.2 0 0 0-3.4 13.2c0 12 7.4 21.8 16.6 21.8s16.6-9.8 16.6-21.8a26.2 26.2 0 0 0-3.5-13.2 27.1 27.1 0 0 0 0-26.6 27.1 27.1 0 0 0 0-26.6 27.1 27.1 0 0 0 0-26.5z" fill="#3f3d56"/><ellipse cx="262.3" cy="633" rx="16.6" ry="21.7" fill="#3f3d56"/><ellipse cx="262.3" cy="606.4" rx="16.6" ry="21.7" fill="#3f3d56"/><path d="M324.4 424.7a80.8 80.8 0 0 0 6.2-9.1l-43.6-7.2 47.2.4a79.6 79.6 0 0 0 1.5-63l-63.3 32.8 58.3-43a79.5 79.5 0 1 0-131.3 89 79 79 0 0 0-9 14.6l56.6 29.4-60.4-20.3a79.6 79.6 0 0 0 12.9 74.7 79.5 79.5 0 1 0 125 0 79.5 79.5 0 0 0 0-98.3z" fill="#536dfe"/><path d="M182.4 473.8a79.2 79.2 0 0 0 17 49.2 79.5 79.5 0 1 0 125 0c10.7-13.6-142-58.1-142-49.2z" opacity=".1"/><ellipse cx="543" cy="784.8" rx="543" ry="26.5" fill="#3f3d56"/><path d="M639 728.8a1.8 1.8 0 0 0-1.2 1H636.9l-4.6-.3a1.4 1.4 0 0 1-1.2-.7l-2.9-2.4-.2-.2.5-.2s-7.8-9.6-9.4-9.8-4.5-2.4-4.5-2.5v-.1l-.1-1 .4.3v-.4a6.2 6.2 0 0 1 1.1-3.3c.8-1.1 2-2 2.5-3.3a4.8 4.8 0 0 0 .3-1.7 5.7 5.7 0 0 0-.8-3 3.8 3.8 0 0 0-2.6-1.8h-.8c-1.6-.4-2.2-2.6-3.8-3.1a3.2 3.2 0 0 0-2.2.2l-2 1a13 13 0 0 0-2.1 1.1l-.2.2-.2.1a4.3 4.3 0 0 0-.6.9v1a.4.4 0 0 0 0 .2v.4a3.5 3.5 0 0 0 .7 1l-.1.2a6.8 6.8 0 0 0-2.1 4.9 7 7 0 0 0 .1 1.2 6.4 6.4 0 0 0-1.1-.7 10 10 0 0 0-4.3-1 29.6 29.6 0 0 1-5.8-1 2.4 2.4 0 0 1 .2.6l-.5-.3a14.2 14.2 0 0 0-4.5-1.5s-1 .2-1.1-2a9 9 0 0 0-.4-2 33.8 33.8 0 0 1-1.6-5.8l-.3-3.1s1.5-8 .6-11.5a2.4 2.4 0 0 0-.9-2.8c-3.8-2.8-7.6 8.1-7.6 8.1l-1.4 1.4a3 3 0 0 0-1.2-.5 6.8 6.8 0 0 0-1.3 3c-.3 1.1-2.3 3-4 4.5l-3.7 3.4c-.9.8-2.8 2-7.1 2.7l-1.9.3a5.7 5.7 0 0 0 .2-1.5 5.8 5.8 0 0 0-4.5-5.7 1.5 1.5 0 0 0 0-.4 1.7 1.7 0 0 0-.5-.8 8.4 8.4 0 0 0-3.2-2.8 4.2 4.2 0 0 0-1.8-.3h-.4a4.5 4.5 0 0 0-3.3 1.7c-.5.6-.7 1.4-1.2 2a9.4 9.4 0 0 1-3.2 3l-2.3 1.5a8.7 8.7 0 0 0-3.3 8.7c.3 1.4 1 2.8.8 4.2a7.2 7.2 0 0 1-1.3 3 9.6 9.6 0 0 0-1.5 3 3 3 0 0 0 .9 3 7.2 7.2 0 0 1 1 .7 3.3 3.3 0 0 1 .5.7 7.4 7.4 0 0 0 4.5 3.6 3 3 0 0 0 1 0 1.6 1.6 0 0 0 1.8-.7 1.6 1.6 0 0 1 .1-.4.5.5 0 0 1 .3-.2 2.3 2.3 0 0 1 .7.2 8.5 8.5 0 0 0 3.2 1 3.6 3.6 0 0 0 .6 0 2.5 2.5 0 0 0 1.2-.2 2.4 2.4 0 0 0 .8-.8l.2-.2a16.2 16.2 0 0 1-1.5 4.5 8.3 8.3 0 0 0-1 4 4 4 0 0 0 .4 2v-.2a15.9 15.9 0 0 0 2.3 3 21.1 21.1 0 0 1-.3 4.7 9.7 9.7 0 0 0 3.8 10.7l1.2 2.7-5 .4c-.6-.1-7.2-1-7.3.3s1 14.5 4.5 13.6c3.2-.8 2.1-4.7 2-5.2l2.5-2.4a1.1 1.1 0 0 0-.2-.9l6.2.3 1.5 3.2s2.4 3.8.4 7-4 8-4.4 11a12.2 12.2 0 0 1-2.7 5.7c-1.2.4-5.6 2.1-3.8 4.8 2 3 8.6 8.8 11.3 8.6s1.6-2.2 1.6-2.2l-2.2-2.1a53.8 53.8 0 0 1-.3-6 1.4 1.4 0 0 0-1-1.5 15 15 0 0 1 1.9-5.9c1.6-2.2 6.7-12 6.7-12s1.7-1.4 1.3-5.7l-.3-4.5 5.8.3s6.3-.6 2-7.3-13.2-13.3-13.2-13.3v-4.1l.6.2-.1-.5a88.7 88.7 0 0 1-1.6-10l.4.2c3.9 4.4 6.5.7 6.5.7s8.2-11.5 7.4-11a.7.7 0 0 1-.6 0l.6-2s2.4-3.6-1-5.7c-3-1.7-2.9 3.6-2.7 5.6h-.2l-4.2 6.3c-1.5 2.3-2.7.8-2.7.8l-1.9-2a7.4 7.4 0 0 0 .5-2.7 4.4 4.4 0 0 0-1.3-3.4 6 6 0 0 1-1.8-3.9 4.1 4.1 0 0 1 .3-1.6l9.7-5.1s2 0 4.7-4.2a72.1 72.1 0 0 1 5.9-7.7l-.2-.2.2-.2-.3-.4 1.5-1.7a22.8 22.8 0 0 0 0 2.3l.7 2.6.5 14.5s-.5 1.4 2.5 2.8c2.6 1.1 6.6 3.1 7.8 3.7a1.8 1.8 0 0 1-.1.2h.3c5.9-.6 5.7 5.3 5.7 5.3s.4 12-1.4 16a23.7 23.7 0 0 0-1.5 9.4s.1-1 1.2.2l-.1.3c-.6 3-1.8 9-2 11.5a40.2 40.2 0 0 1-1.3 6.7l-.6 11 3.7.2v.4a1.2 1.2 0 0 1-.6 1c-1.3.7-4.3 3.1-4 10.7l-.2 1.2a15.4 15.4 0 0 1-1.8 5.9 3.7 3.7 0 0 0-.3.4.3.3 0 0 1 .1-.2s-2 .4-1.5 5.7 1 6.2 1.8 6.2 4.7 1 4.5-.9-.4-6.3-.1-7 1.3-2.3.3-2.8a15 15 0 0 0 .4-3.7 24.2 24.2 0 0 1 3.4-4.2c1.4-1.2 2.1-3.1 2.6-5.7 0-.1 4.2-2.9 3.6-5.1l-.3-1v-.4l.9-5v4.9h.5v.4l-.2 4.7a7.6 7.6 0 0 1-.6 2.6 26 26 0 0 0-2.1 11.8v4.5c-.2 0-2.2.5-1.8 5.6.4 5.3 1 6.2 1.8 6.3s4.7 1 4.5-1-.4-6.2-.2-6.9.8-2.4-.3-2.8a3.7 3.7 0 0 1 .5-1.7l3-7a25.4 25.4 0 0 0 1.8-8.8 8.2 8.2 0 0 1 .7-3 20.7 20.7 0 0 0 1-3.2l.1-.4 1 .1 3.2-14.1s1-7.7.5-11.2v-.4h.1s.7-1.7.5-9 1.3-9.6 1.3-9.6c.9-2.6 1.8-3.5 2.3-3.8a1 1 0 0 1 .5-.2l2.5 2.9.4.5.2.2a2 2 0 0 1 0-.3c1.4.8 4.4 2.5 6.2 3.8 2.4 1.7 3 1.5 5.1 1.3a13.8 13.8 0 0 0 4.2-1.3 5 5 0 0 0 1 .4s3.4 2.8 3.7-2.4-4-4-4-4zm-87.1 60.5a5.1 5.1 0 0 1-1-.4zm-5.3-56.2v0zm52.5 65.8v0z" transform="translate(-57 -44.3)" fill="url(#a)"/><path fill="#536dfe" d="M547.2 668.2h5.7v6h-5.7z"/><path d="M540.2 737.4c-.5 2.5-1.2 4.5-2.6 5.6a24.2 24.2 0 0 0-3.3 4.2c0 4.1-1.1 5.4-1.1 5.4l-1.1.3h-2.8a12.8 12.8 0 0 1-.6-2.2 2.5 2.5 0 0 1 .5-1.3 15.4 15.4 0 0 0 1.8-5.8v-1.2c-.1-7.5 2.8-10 4-10.6a1.2 1.2 0 0 0 .7-1l.2-2.2 7.4.4a6 6 0 0 0 .2 2.2c0 .3 0 .6.2 1 .6 2.3-3.4 5-3.5 5.2zM552.8 732.2a18.8 18.8 0 0 1-1 3.2 8.4 8.4 0 0 0-.6 3 25.5 25.5 0 0 1-1.9 8.7c-1 2.7-2.5 6.3-3 7a5.8 5.8 0 0 0-.3 3.3l-4.1-.3v-7a26 26 0 0 1 2-11.7 7.7 7.7 0 0 0 .6-2.6l.2-4.7v-1.3s7.5-1 8 .6a3.7 3.7 0 0 1 0 1.8z" fill="#a0616a"/><path d="M540.2 737.4c-.5 2.5-1.2 4.5-2.6 5.6a24.2 24.2 0 0 0-3.3 4.2c0 4.1-1.1 5.4-1.1 5.4l-1.1.3h-2.8a12.8 12.8 0 0 1-.6-2.2 2.5 2.5 0 0 1 .5-1.3 15.4 15.4 0 0 0 1.8-5.8v-1.2c-.1-7.5 2.8-10 4-10.6a1.2 1.2 0 0 0 .7-1l.2-2.2 7.4.4a6 6 0 0 0 .2 2.2c0 .3 0 .6.2 1 .6 2.3-3.4 5-3.5 5.2zM552.8 732.2a18.8 18.8 0 0 1-1 3.2 8.4 8.4 0 0 0-.6 3 25.5 25.5 0 0 1-1.9 8.7c-1 2.7-2.5 6.3-3 7a5.8 5.8 0 0 0-.3 3.3l-4.1-.3v-7a26 26 0 0 1 2-11.7 7.7 7.7 0 0 0 .6-2.6l.2-4.7v-1.3s7.5-1 8 .6a3.7 3.7 0 0 1 0 1.8z" fill="#8e5362"/><path d="M543.5 731.2l-7.8-.4.2-2.1 7.4.3a6 6 0 0 0 .2 2.2zM552.8 732.2l-8-1v-1.4s7.4-1 8 .6a3.7 3.7 0 0 1 0 1.8z" opacity=".1"/><path d="M557 717.9l-3.2 14-9.5-1.2v-4.9l-.8 5-11.4-.5.6-11a40.3 40.3 0 0 0 1.2-6.6c.3-2.4 1.4-8.5 2-11.4l.3-1.5s19.6 4 20.8 5.5a3.2 3.2 0 0 1 .5 1.5c.4 3.5-.5 11-.5 11z" fill="#2f2e41"/><path d="M534.2 718.8s7.7-4 9.6-3.2zM538.4 705.7s6.4 4.8 6.6 6.1zM536.7 722.3s4.6-.2 6 1zM545 717.1s2.2 7.2 1.2 9.2-1.9-.5-1.9-.5z" opacity=".1"/><path d="M541.9 754.6s-2.2.3-1.8 5.6 1 6.1 1.8 6.2 4.6 1 4.4-1-.4-6.1-.1-6.8.7-2.4-.3-2.8l-.2 1s-2.1-2-3.4-.5a5.2 5.2 0 0 0-.2-1c-.1-.4-.4-.5-.2-.7z" fill="#2f2e41"/><path d="M581.5 690.3l-1.3.6a13.6 13.6 0 0 1-4 1.4c-2 .1-2.7.3-5-1.3-1.8-1.3-4.8-3.1-6-3.9l-.6-.3 1-3 3.8-2 1 .8 2.9 2.4a1.4 1.4 0 0 0 1.1.7l4.5.3.7.1 1.6.2z" fill="#a0616a"/><path d="M581.5 690.3l-1.3.6c-.7-.4-1.7-1.1-1.3-2.3s.4-2 .7-2.6l1.5.3z" opacity=".1"/><path d="M581 685s4.2-1.2 3.9 4-3.6 2.3-3.6 2.3-2.8-.8-2.2-2.7.4-3.1 1.8-3.6zM536.6 668.3l-4.4 1.9h-.1l-.3-.2-7.6-3.7c-3-1.3-2.5-2.7-2.5-2.7l-.4-14.4-.8-2.6s-.5-8.8 3.7-11 1.6 12.7 1.6 12.7l.3 3a34.4 34.4 0 0 0 1.1 6 8.5 8.5 0 0 1 .4 1.9c.1 2 1.1 2 1.1 2a13.7 13.7 0 0 1 4.4 1.5 12 12 0 0 1 1.5.9z" fill="#a0616a"/><path d="M552.5 675.2l-3.8-.4a14.3 14.3 0 0 0 1.6-3.3 5.5 5.5 0 0 0 .2-.7 2.3 2.3 0 0 0-.2-1.6c-1.2-1.7 6.6-4 6.6-4a19 19 0 0 0-.1 2.8 15.6 15.6 0 0 0 .2 1.8 4.7 4.7 0 0 0 1.6 3.1c2.4 1.7-6.1 2.3-6.1 2.3z" fill="#8e5362"/><path d="M552.5 675.2l-3.8-.4a14.3 14.3 0 0 0 1.6-3.3c.4.6.6.6 1.2.7 0 0 3.8.6 5.5-2.4a4.7 4.7 0 0 0 1.6 3.1c2.4 1.7-6.1 2.3-6.1 2.3zM565.1 687.1a2.1 2.1 0 0 0 0 .4l-.6-.7 1-3 4-2 1 .8c-1.5.5-5.3 2-5.4 4.5zM536.6 668.3l-4.4 1.9h-.5v-.2c.4-.9 2.2-5.3 1.4-7.4a12 12 0 0 1 1.5 1zM557.5 706.8c-1.8-.2-19.1-1.8-20.7-4.3a8.5 8.5 0 0 0-.9-1.2l.3-1.5s19.5 4 20.8 5.5a3.2 3.2 0 0 1 .5 1.5z" opacity=".1"/><path d="M551.5 672.4s3.9.6 5.5-2.4c0 0 2.7 2.2 4.4 2.4s9.2 9.8 9.2 9.8-6 2-5.7 5L562 684s-1.4 0-2.7 4c0 0-1.5 2.3-1.3 9.5s-.4 9-.4 9-19.2-1.6-20.9-4.3-2-1.4-2-1.4a23.9 23.9 0 0 1 1.5-9.2c1.8-4.1 1.4-16 1.4-16s.2-5.8-5.6-5.3c0 0 2.4-5.6 1.3-7.8a28.6 28.6 0 0 0 5.7 1 9.8 9.8 0 0 1 4.2 1 4.7 4.7 0 0 1 1.7 1.2 2.5 2.5 0 0 0 3 .9 30 30 0 0 0 1.7 4.2l.3.4.3.6a1.4 1.4 0 0 0 1.3.7z" fill="#f86d70"/><path d="M556.8 668a6.8 6.8 0 0 1-.7.8 6.8 6.8 0 0 1-5 2h-.6a2.3 2.3 0 0 0-.3-1.6c-1-1.7 6.7-4 6.7-4a19 19 0 0 0-.1 2.7z" opacity=".1"/><path d="M558 663.8a6.9 6.9 0 1 1-6.8-6.9 6.8 6.8 0 0 1 6.8 6.9z" fill="#a0616a"/><path d="M561.5 679.5v4.6s2.2-1.6 2.2-3.2-2.3-1.4-2.3-1.4zM544.9 684.1s5.4 7.4 8.5 8.2-7.3-5.8-8.5-8.2zM550.6 684.9s3 3.4 5.2 3.8zM540 693.4s5.5 5.4 8.7 5.8zM558 663.8a6.8 6.8 0 0 1-2 4.8l-.7-.5a2.1 2.1 0 0 1-.7-.6 2.5 2.5 0 0 1-.2-1.5 3.4 3.4 0 0 0-1-2.7c-1.3-1-3.4-.5-4.7-1.5a5 5 0 0 1-.9-1l-1.2-1.6-.3-.3a6.9 6.9 0 0 1 11.7 4.9z" opacity=".1"/><path d="M547 655a12.5 12.5 0 0 1 2-1c.7-.4 1.3-.9 2-1.2a3 3 0 0 1 2.2-.2c1.6.5 2.2 2.7 3.8 3l.8.2a3.7 3.7 0 0 1 2.5 1.7 5.9 5.9 0 0 1 .8 3 5 5 0 0 1-.3 1.7c-.5 1.3-1.6 2.2-2.4 3.3a6.2 6.2 0 0 0-1.2 3.6l-1.9-1.2a2.1 2.1 0 0 1-.7-.6 2.5 2.5 0 0 1-.2-1.4 3.4 3.4 0 0 0-1-2.8c-1.3-1-3.4-.5-4.7-1.5a4.4 4.4 0 0 1-.8-1l-1.3-1.6a4.7 4.7 0 0 1-.9-1.3c-.3-.9.6-2.2 1.3-2.7z" fill="#2f2e41"/><path d="M555.5 667.7a2 2 0 0 1-.7-.7 2.5 2.5 0 0 1-.2-1.4 3.3 3.3 0 0 0-1-2.8c-1.3-1-3.3-.4-4.7-1.4a5 5 0 0 1-.8-1l-1.2-1.6a4.6 4.6 0 0 1-1-1.3 2.9 2.9 0 0 1 1-2.4 3 3 0 0 0-1.2 2.6 4.7 4.7 0 0 0 1 1.3l1.2 1.6a4.4 4.4 0 0 0 .8 1c1.3 1 3.4.4 4.7 1.5a3.4 3.4 0 0 1 1 2.7 2.5 2.5 0 0 0 .2 1.5 2.1 2.1 0 0 0 .7.6l2 1.2v-.3z" opacity=".1"/><path d="M529 749.7s-1.9.4-1.5 5.6 1 6.2 1.8 6.2 4.6 1 4.4-.9-.4-6.2-.1-6.9 1.3-2.4.3-2.8l-.8 1s-2.1-2-3.4-.5c0 0-1.1-1.3-.7-1.7z" fill="#2f2e41"/><path d="M530.3 753l1.2.6a2.8 2.8 0 0 0 1.3.3 1 1 0 0 0 .5-.2M542.9 758a9.4 9.4 0 0 0 .7.8 2.5 2.5 0 0 0 1.3.2.6.6 0 0 0 .3 0 .5.5 0 0 0 .2-.2l.2-.3" opacity=".1"/><path d="M510.6 671s-1-8.5 2.5-6.4 1 5.7 1 5.7l-.7 2.6zM516 644.1l2-1.9s3.8-10.8 7.6-8-4.8 9.8-4.8 9.8l-2.2 2.6z" fill="#ffc1c7"/><path d="M487.3 687v2.2s1.7 3.2 2.5 3.4.6-6.7.6-6.7z" fill="#f86d70"/><path d="M487.1 687.2v2.2s1.7 3.2 2.5 3.4.7-6.6.7-6.6z" opacity=".1"/><path fill="#ffc1c7" d="M490.3 684.6l.1 8.2h9.2l-.7-4.8-8.6-3.4z"/><path d="M492.5 705l.4 2.7 5.3 11.8s2.4 3.7.5 6.9-4 8-4.3 11-3 5.9-3 5.9l5.7 2.4s.4-4.7 2-6.9 6.6-11.9 6.6-11.9 1.6-1.4 1.2-5.7-.3-7.3-.3-7.3l-.6-6.8z" fill="#2f2e41"/><path d="M492.5 705l.4 2.7 5.3 11.8s2.4 3.7.5 6.9-4 8-4.3 11-3 5.9-3 5.9l5.7 2.4s.4-4.7 2-6.9 6.6-11.9 6.6-11.9 1.6-1.4 1.2-5.7-.3-7.3-.3-7.3l-.6-6.8z" opacity=".1"/><path d="M492 743s-6 1.8-4 4.8 8.4 8.8 11 8.6 1.6-2.2 1.6-2.2l-2.2-2.1a53.9 53.9 0 0 1-.2-6c.1-1.3-1.9-2-2.2-1.1s-4-2-4-2z" fill="#f86d70"/><path d="M495.7 689.3l-4.7.5a1.7 1.7 0 0 0-1.6 1.8c0 1.9.1 5-.2 5.4a9.7 9.7 0 0 0 3.7 10.7l7 2.2-11.3.9.3 6.3 1.8-1 21.6 1s6.1-.6 2-7.3-13-13.1-13-13.1v-5.2l-.7-1.5z" fill="#2f2e41"/><path d="M501.6 709.8a6.2 6.2 0 0 1 5 0z" opacity=".1"/><path d="M489.1 710.7s-7-1-7 .3 1 14.4 4.3 13.5 2-5.2 2-5.2l2.5-2.4s.2-1.3-1.4-1.2zM500.8 674l2.8 3.2s1.2 1.5 2.6-.8l4.2-6.3s3 2.6 3.7 2-7.2 11-7.2 11-2.6 3.7-6.4-.7l-1-.5z" fill="#f86d70"/><path d="M500.6 674l2.8 3.2s1.2 1.5 2.6-.8l4.2-6.3s3 2.6 3.7 2-7.2 11-7.2 11-2.6 3.7-6.4-.7l-1-.5z" opacity=".1"/><circle cx="492.3" cy="655.4" r="5.8" fill="#ffc1c7"/><path d="M492.3 658.5s-5 2.3-4.4 6.5a91.2 91.2 0 0 1 .7 9.3s2.2 3.3-.8 9.7c0 0-1.9 3.3-.6 5.6 0 0 1.4-3.7 5-1s9.6 4 9.6 4-3-13.3-1.1-15.2c0 0 3.2-4.8.3-7.9s-1.5-5.9-1.5-5.9l9.5-5s2 0 4.6-4.2a70.8 70.8 0 0 1 5.8-7.7s-2-3-4-3.2a6.8 6.8 0 0 0-1.2 2.9c-.3 1.1-2.2 3-4 4.5l-3.5 3.3c-.9.9-2.8 2-7 2.8-7 1.1-7.4 1.5-7.4 1.5z" opacity=".1"/><path d="M492.3 658s-5 2.4-4.4 6.6a91.5 91.5 0 0 1 .7 9.3s2.2 3.3-.8 9.7c0 0-1.9 3.3-.6 5.6 0 0 1.4-3.7 5-1s9.6 4 9.6 4-3-13.3-1.1-15.2c0 0 3.2-4.8.3-7.9s-1.5-5.9-1.5-5.9l9.5-5s2 0 4.6-4.2a71.3 71.3 0 0 1 5.8-7.7s-2-3-4-3.2a7 7 0 0 0-1.2 2.9c-.3 1.1-2.2 3-4 4.5a124 124 0 0 0-3.5 3.3c-.9.9-2.8 2-7 2.8-7 1-7.4 1.5-7.4 1.5z" fill="#f86d70"/><path d="M496.6 682.8s3.8 5.7 4 6.7c0 0-.6-6.2-4-6.7zM491.5 663.6a4.8 4.8 0 0 0 6.6.5 8.4 8.4 0 0 1-6.6-.5z" opacity=".1"/><path d="M493.6 649.3a1.8 1.8 0 0 0-.4-.8 8.4 8.4 0 0 0-3.2-2.8 4.4 4.4 0 0 0-5 1.4c-.5.6-.8 1.4-1.2 2a9.2 9.2 0 0 1-3.2 3c-.7.6-1.5 1-2.2 1.5a8.7 8.7 0 0 0-3.2 8.6c.3 1.4.9 2.8.7 4.2a7.5 7.5 0 0 1-1.3 3 9.3 9.3 0 0 0-1.4 3 3 3 0 0 0 .9 3 5.3 5.3 0 0 1 1 .7 3 3 0 0 1 .4.7 7.2 7.2 0 0 0 4.5 3.5c.9.3 2 .2 2.3-.6a1.5 1.5 0 0 1 .2-.4c.3-.4.9-.2 1.3 0a8 8 0 0 0 3.2.9 2.6 2.6 0 0 0 1.3-.2 2.4 2.4 0 0 0 .9-.7 9.3 9.3 0 0 0 1.5-4.8 11.4 11.4 0 0 0 0-3.3c-.4-1.8-1.4-3.4-1.3-5.2s1.7-3.4 2-5.3a4 4 0 0 0-.7-2.8 4.3 4.3 0 0 1-.6-.8.8.8 0 0 1 .2-.9 1.3 1.3 0 0 1 .4-.2 3.4 3.4 0 0 0 2-3 6.2 6.2 0 0 1 .1-1.4c.3-.7.9-1.5.8-2.3z" opacity=".1"/><path d="M493.2 649.3a1.8 1.8 0 0 0-.4-.8 8.4 8.4 0 0 0-3.2-2.8 4.4 4.4 0 0 0-5 1.4 23.7 23.7 0 0 0-1.2 2 9.2 9.2 0 0 1-3.2 3c-.7.6-1.5 1-2.2 1.5a8.7 8.7 0 0 0-3.2 8.6c.3 1.4.9 2.8.7 4.2a7.3 7.3 0 0 1-1.3 3 9.3 9.3 0 0 0-1.4 3 3 3 0 0 0 .9 3 5.7 5.7 0 0 1 1 .7 3 3 0 0 1 .4.7 7.2 7.2 0 0 0 4.5 3.5c.9.3 2 .2 2.3-.6a1.5 1.5 0 0 1 .2-.4c.3-.4.9-.2 1.3 0a8 8 0 0 0 3.2.9 2.6 2.6 0 0 0 1.3-.2 2.3 2.3 0 0 0 .8-.7 9.3 9.3 0 0 0 1.6-4.8 11 11 0 0 0 0-3.3c-.4-1.8-1.4-3.4-1.3-5.2s1.7-3.4 2-5.3a4 4 0 0 0-.8-2.8 4.7 4.7 0 0 1-.5-.8.8.8 0 0 1 .2-.9 1.1 1.1 0 0 1 .4-.2 3.4 3.4 0 0 0 2-3 6.8 6.8 0 0 1 .1-1.4c.3-.7 1-1.5.8-2.3z" fill="#2f2e41"/><g opacity=".1"><path d="M481.5 679.3a1.5 1.5 0 0 0-.2.4 1.3 1.3 0 0 1-1.2.8c.8 0 1.6-.1 1.8-.8a1.5 1.5 0 0 1 .2-.4.5.5 0 0 1 .2-.2.7.7 0 0 0-.8.2zM493.2 649.3a1.7 1.7 0 0 0-.4-.8 8.2 8.2 0 0 0-3.2-2.8 4 4 0 0 0-1.8-.3 3.7 3.7 0 0 1 1.2.3 8.2 8.2 0 0 1 3.2 2.8 1.7 1.7 0 0 1 .4.7c.1.8-.5 1.6-.8 2.4a6.2 6.2 0 0 0 0 1.4 3.4 3.4 0 0 1-2 3 1.1 1.1 0 0 0-.5.2.8.8 0 0 0-.2.9 4.3 4.3 0 0 0 .6.8 4 4 0 0 1 .7 2.8c-.3 1.9-1.8 3.4-2 5.3s1 3.4 1.3 5.1a11 11 0 0 1 0 3.3 9.3 9.3 0 0 1-1.5 4.8 2.4 2.4 0 0 1-1 .8 2 2 0 0 1-.6.2 2.7 2.7 0 0 0 1.3-.2 2.4 2.4 0 0 0 .8-.8 9.3 9.3 0 0 0 1.5-4.8 11 11 0 0 0 0-3.3c-.3-1.7-1.3-3.3-1.2-5s1.7-3.5 2-5.4a4 4 0 0 0-.7-2.8 4.3 4.3 0 0 1-.6-.8.8.8 0 0 1 .2-.9 1.1 1.1 0 0 1 .4-.2 3.4 3.4 0 0 0 2-3 6.8 6.8 0 0 1 .1-1.4c.3-.7 1-1.5.8-2.3z"/></g><path d="M485.8 718.7a2.7 2.7 0 0 0 2.7.7M498.4 752.2a1.7 1.7 0 0 1-1.4.4" opacity=".1"/><path d="M193.3 756.9l13.3-7.8a32.2 32.2 0 0 0-6.8-8.2l-25.1 7.8 19.7-11.6a32 32 0 0 0-47.4 28.1c0 17.7 14.3 18.3 32 18.3s32-.6 32-18.3a31.8 31.8 0 0 0-2.8-13z" fill="#536dfe"/><path d="M196.7 774a25 25 0 0 0-4.7-3.6c-2.4-1.6-5-3.3-7.8-3.8-2.5-.5-5-.1-7.6-.3a17.8 17.8 0 0 1-11.7-5.3c-1.8-1.9-3.3-4.2-5.5-5.6a12 12 0 0 0-8.1-1.5 19.8 19.8 0 0 0-2.4.5 32 32 0 0 0-1.9 10.8c0 17.7 14.3 18.3 32 18.3 8.6 0 16.4-.1 22.1-2.3l-1-1.8a25.1 25.1 0 0 0-3.4-5.3z" opacity=".1"/><path d="M973.3 756.9l13.3-7.8a32.2 32.2 0 0 0-6.8-8.2l-25.1 7.8 19.7-11.6a32 32 0 0 0-47.4 28.1c0 17.7 14.3 18.3 32 18.3s32-.6 32-18.3a31.8 31.8 0 0 0-2.7-13z" fill="#536dfe"/><path d="M976.7 774a25 25 0 0 0-4.7-3.6c-2.4-1.6-5-3.3-7.8-3.8-2.5-.5-5-.1-7.6-.3a17.8 17.8 0 0 1-11.7-5.3c-1.8-1.9-3.3-4.2-5.5-5.6a12 12 0 0 0-8.1-1.5 19.8 19.8 0 0 0-2.4.5 32 32 0 0 0-1.9 10.8c0 17.7 14.3 18.3 32 18.3 8.6 0 16.4-.1 22.1-2.3l-1-1.8a25.1 25.1 0 0 0-3.4-5.3z" opacity=".1"/><path d="M331.8 743.2l-10.4-6.1a25.4 25.4 0 0 1 5.3-6.4l19.7 6.1-15.4-9a25 25 0 0 1 37 21.9c0 13.8-11.2 14.3-25 14.3s-25-.5-25-14.3a24.9 24.9 0 0 1 2.1-10.2z" fill="#536dfe"/><path d="M329.2 756.7a19.5 19.5 0 0 1 3.7-3 17 17 0 0 1 6-3c2-.3 4 0 6 0a14 14 0 0 0 9.2-4.3c1.4-1.4 2.5-3.3 4.2-4.4a9.3 9.3 0 0 1 6.4-1.1 17 17 0 0 1 1.9.4 24.8 24.8 0 0 1 1.4 8.4c0 13.8-11.2 14.3-25 14.3-6.7 0-12.8-.2-17.3-1.8l.8-1.4a19.2 19.2 0 0 1 2.7-4.1z" opacity=".1"/><path d="M411.8 743.2l-10.4-6.1a25.4 25.4 0 0 1 5.3-6.4l19.7 6.1-15.4-9a25 25 0 0 1 37 21.9c0 13.8-11.2 14.3-25 14.3s-25-.5-25-14.3a24.9 24.9 0 0 1 2.1-10.2z" fill="#536dfe"/><path d="M409.2 756.7a19.5 19.5 0 0 1 3.7-3 17 17 0 0 1 6-3c2-.3 4 0 6 0a14 14 0 0 0 9.2-4.3c1.4-1.4 2.5-3.3 4.2-4.4a9.3 9.3 0 0 1 6.4-1.1 17 17 0 0 1 1.9.4 24.8 24.8 0 0 1 1.4 8.4c0 13.8-11.2 14.3-25 14.3-6.7 0-12.8-.2-17.3-1.8l.8-1.4a19.2 19.2 0 0 1 2.7-4.1z" opacity=".1"/><path d="M702.8 743.2l-10.4-6.1a25.4 25.4 0 0 1 5.3-6.4l19.7 6.1-15.4-9a25 25 0 0 1 37 21.9c0 13.8-11.2 14.3-25 14.3s-25-.5-25-14.3a24.9 24.9 0 0 1 2.1-10.2z" fill="#536dfe"/><path d="M700.2 756.7a19.5 19.5 0 0 1 3.7-3 17 17 0 0 1 6-3c2-.3 4 0 6 0a14 14 0 0 0 9.2-4.3c1.4-1.4 2.5-3.3 4.2-4.4a9.3 9.3 0 0 1 6.4-1.1 17 17 0 0 1 1.8.4 24.8 24.8 0 0 1 1.5 8.4c0 13.8-11.2 14.3-25 14.3-6.7 0-12.8-.2-17.3-1.8l.8-1.4a19.2 19.2 0 0 1 2.7-4.1z" opacity=".1"/><path d="M445.8 679a20.7 20.7 0 0 0 2.8-10.5c0-9.5-5.9-17.2-13.1-17.2s-13.2 7.7-13.2 17.2a20.7 20.7 0 0 0 2.8 10.5 21.5 21.5 0 0 0 0 21 21.4 21.4 0 0 0 0 21 21.5 21.5 0 0 0 0 21 20.7 20.7 0 0 0-2.8 10.5c0 9.4 6 17.1 13.2 17.1s13-7.7 13-17.1a20.7 20.7 0 0 0-2.7-10.5 21.5 21.5 0 0 0 0-21 21.4 21.4 0 0 0 0-21 21.5 21.5 0 0 0 0-21z" fill="#3f3d56"/><ellipse cx="435.5" cy="647.5" rx="13.1" ry="17.2" fill="#3f3d56"/><ellipse cx="435.5" cy="626.5" rx="13.1" ry="17.2" fill="#3f3d56"/><path d="M484.6 483a63 63 0 0 0 4.8-7.3l-34.4-5.6 37.3.2a63 63 0 0 0 1.2-49.7l-50 25.9 46-33.9A62.8 62.8 0 1 0 385.9 483a63 63 0 0 0-7.1 11.5l44.7 23.2-47.7-16a62.9 62.9 0 0 0 10.1 59 62.8 62.8 0 1 0 98.8 0 62.8 62.8 0 0 0 0-77.7z" fill="#536dfe"/><path d="M372.4 521.8a62.5 62.5 0 0 0 13.4 38.8 62.8 62.8 0 1 0 98.8 0c8.4-10.7-112.2-46-112.2-38.9z" opacity=".1"/><path d="M637.4 663.5a26.2 26.2 0 0 0 3.4-13.3c0-12-7.4-21.7-16.6-21.7s-16.6 9.7-16.6 21.7a26.2 26.2 0 0 0 3.5 13.3 27.1 27.1 0 0 0 0 26.5 27.1 27.1 0 0 0 0 26.6 27.1 27.1 0 0 0 0 26.5 26.2 26.2 0 0 0-3.5 13.3c0 12 7.5 21.8 16.6 21.8s16.6-9.8 16.6-21.8a26.2 26.2 0 0 0-3.4-13.3 27.2 27.2 0 0 0 0-26.5 27.2 27.2 0 0 0 0-26.6 27.2 27.2 0 0 0 0-26.5z" fill="#3f3d56"/><ellipse cx="624.2" cy="623.6" rx="16.6" ry="21.7" fill="#3f3d56"/><ellipse cx="624.2" cy="597.1" rx="16.6" ry="21.7" fill="#3f3d56"/><path d="M562 415.3a77.4 77.4 0 0 1-6-9l43.5-7.2-47.1.3a79.6 79.6 0 0 1-1.6-63l63.3 32.9-58.3-43a79.5 79.5 0 1 1 131.3 89 79.7 79.7 0 0 1 9 14.6l-56.6 29.4L700 439a79.5 79.5 0 0 1-12.8 74.7 79.5 79.5 0 1 1-125 0 79.5 79.5 0 0 1 0-98.3z" fill="#536dfe"/><path d="M704 464.5a79.2 79.2 0 0 1-17 49.2 79.5 79.5 0 1 1-125 0c-10.6-13.6 142-58.1 142-49.2z" opacity=".1"/></svg>