<svg xmlns="http://www.w3.org/2000/svg" viewBox="0 0 708.7 708.7"><g stroke="#000"><path fill="none" stroke-width="45" d="M47.6 650.5l268-328"/><path fill="none" stroke-width="45" d="M315.5 322.6L393 386" stroke-linecap="square"/><path fill="none" stroke-width="45" d="M393 386l213-260.7L661 58"/><path fill-rule="evenodd" stroke-width="10.3" d="M534 112.2l165.4-97.7L636.7 196z" stroke-linejoin="round"/></g><g color="#000" font-family="sans-serif" white-space="normal"><path d="M354.3 53.3c-166 0-301 135-301 301 0 64 20 123 54 172l25.3-31.2c-25.8-40.5-40.8-88.8-40.8-140.7C91.8 209 209 91.8 354.3 91.8c69.5 0 132.5 27 179.4 70.8l13.8-16.8-24.5-20a17.5 17.5 0 0 1-3.6-23c-47.4-31.4-104.2-49.5-165-49.5zM597.8 187L576 213.5c25.8 40.6 40.8 89 40.8 140.7 0 145.2-117.3 262.5-262.5 262.5C285 616.8 221.8 590 175 546L150.5 576c53.7 49.4 125.2 79.6 203.7 79.6 166 0 301-135 301-301 0-57.2-16-110.6-43.6-156l-14-11.5z" style="line-height:normal;text-indent:0;text-align:start;text-decoration-line:none;text-decoration-style:solid;text-decoration-color:#000000;text-transform:none;block-progression:tb;isolation:auto;mix-blend-mode:normal" overflow="visible" solid-color="#000000"/></g><g stroke="#000"><path fill="none" stroke-width="45" d="M315.5 322.6L393 386" stroke-linecap="square"/><path fill="none" stroke-width="45" d="M393 386l213-260.7L661 58"/><path fill-rule="evenodd" stroke-width="10.3" d="M534 112.2l165.4-97.7L636.7 196z" stroke-linejoin="round"/></g></svg>