<?xml version="1.0" encoding="UTF-8" standalone="no"?>
<svg
   xmlns:dc="http://purl.org/dc/elements/1.1/"
   xmlns:cc="http://creativecommons.org/ns#"
   xmlns:rdf="http://www.w3.org/1999/02/22-rdf-syntax-ns#"
   xmlns:svg="http://www.w3.org/2000/svg"
   xmlns="http://www.w3.org/2000/svg"
   xmlns:sodipodi="http://sodipodi.sourceforge.net/DTD/sodipodi-0.dtd"
   xmlns:inkscape="http://www.inkscape.org/namespaces/inkscape"
   width="217.13"
   height="109.15"
   viewBox="0 0 217.13 109.15"
   version="1.1"
   id="svg37"
   sodipodi:docname="logo-text.svg"
   inkscape:version="0.92.3 (2405546, 2018-03-11)">
  <metadata
     id="metadata43">
    <rdf:RDF>
      <cc:Work
         rdf:about="">
        <dc:format>image/svg+xml</dc:format>
        <dc:type
           rdf:resource="http://purl.org/dc/dcmitype/StillImage" />
      </cc:Work>
    </rdf:RDF>
  </metadata>
  <defs
     id="defs41" />
  <sodipodi:namedview
     pagecolor="#ffffff"
     bordercolor="#666666"
     borderopacity="1"
     objecttolerance="10"
     gridtolerance="10"
     guidetolerance="10"
     inkscape:pageopacity="0"
     inkscape:pageshadow="2"
     inkscape:window-width="1920"
     inkscape:window-height="1053"
     id="namedview39"
     showgrid="false"
     inkscape:zoom="2.2861371"
     inkscape:cx="108.565"
     inkscape:cy="37.078237"
     inkscape:window-x="0"
     inkscape:window-y="27"
     inkscape:window-maximized="1"
     inkscape:current-layer="Layer_1-2-2" />
  <title
     id="title2">Openly with Font</title>
  <g
     id="Layer_2"
     data-name="Layer 2">
    <g
       id="Layer_1-2"
       data-name="Layer 1">
      <g
         id="Layer_1-2-2"
         data-name="Layer 1-2">
        <ellipse
           cx="99.49"
           cy="37.67"
           rx="24.67"
           ry="18.55"
           style="fill:#ffd039;stroke:#000000;stroke-miterlimit:10;stroke-width:8px;stroke-opacity:1"
           id="ellipse4" />
        <path
           d="M4.66,70.55a15.2,15.2,0,0,1,10.62-4.31,15,15,0,0,1,10.57,4.29,15.27,15.27,0,0,1,2.21,19.09,14.83,14.83,0,0,1-5.78,5.25,15.64,15.64,0,0,1-7,1.69,15.11,15.11,0,0,1-7.09-1.8,15.69,15.69,0,0,1-5.78-5.31A13.87,13.87,0,0,1,0,81.51,14.27,14.27,0,0,1,4.66,70.55Zm6.92,14.92a5.88,5.88,0,0,0,3.59,1.35,6,6,0,0,0,3.65-1.38,5.55,5.55,0,0,0,.38-7.85l-.27-.29a5.94,5.94,0,0,0-3.7-1.3,5.79,5.79,0,0,0-3.71,1.38A4.89,4.89,0,0,0,9.8,81.45,4.74,4.74,0,0,0,11.58,85.47Z"
           style="fill:#ffffff;fill-opacity:1"
           id="path6" />
        <path
           d="M34,104V71.66a14.7,14.7,0,0,1,.08-1.88,4.51,4.51,0,0,1,.47-1.38c.52-1,1.76-1.5,3.71-1.5a7.53,7.53,0,0,1,4,.75,3,3,0,0,1,1.19,2.18Q45.55,67,50.06,67t8.55,4.26a14.21,14.21,0,0,1,0,19.81q-4,4.26-8.55,4.26c-3,0-5.22-.85-6.59-2.55V104c0,.63,0,1.26-.08,1.88a4.75,4.75,0,0,1-.5,1.41,2.39,2.39,0,0,1-1.41,1.14,8.91,8.91,0,0,1-2.71.33,9,9,0,0,1-2.74-.33,2.33,2.33,0,0,1-1.44-1.11,4,4,0,0,1-.5-1.38A15.1,15.1,0,0,1,34,104ZM45,77.91a5,5,0,0,0-1.28,3.27A4.74,4.74,0,0,0,45,84.41a4.25,4.25,0,0,0,3.32,1.47,4.63,4.63,0,0,0,3.43-1.44,4.52,4.52,0,0,0,1.42-3.26,4.85,4.85,0,0,0-1.33-3.29,4.43,4.43,0,0,0-3.46-1.47A4.21,4.21,0,0,0,45,77.91Z"
           style="fill:#ffffff;fill-opacity:1"
           id="path8" />
        <path
           d="M94.35,78a6.77,6.77,0,0,1-1.68,5,5.3,5.3,0,0,1-3.74,1.63H75.82a3,3,0,0,0,1.82,2.6,7.24,7.24,0,0,0,3.65,1.06,15.4,15.4,0,0,0,5-.67l.61-.22a5.61,5.61,0,0,1,2.21-.61c1.18,0,2.2.83,3,2.49a6.48,6.48,0,0,1,.71,2.55q0,4.92-11.78,4.92a17.67,17.67,0,0,1-7.28-1.41,12.23,12.23,0,0,1-5-3.73,16,16,0,0,1-3.49-10,14.47,14.47,0,0,1,4.51-11.15A16,16,0,0,1,81,66.28q7.68,0,11.29,5.43A11.25,11.25,0,0,1,94.35,78ZM82.68,79.63q2.1,0,2.1-1.77a2.49,2.49,0,0,0-1-2A4.33,4.33,0,0,0,81,75a5.55,5.55,0,0,0-3.57,1.46,4.12,4.12,0,0,0-1.77,3.13Z"
           style="fill:#ffffff;fill-opacity:1"
           id="path10" />
        <path
           d="M114.16,66.9a11.76,11.76,0,0,1,9.22,4.23,15.27,15.27,0,0,1,3.68,10.32v9.74a17.34,17.34,0,0,1,0,1.91,4.69,4.69,0,0,1-.47,1.41c-.51,1-2,1.5-4.31,1.5-2.62,0-4.14-.68-4.54-2.05a9,9,0,0,1-.33-2.82V81.4a4.47,4.47,0,0,0-4.08-4.82,4.21,4.21,0,0,0-.71,0A4.83,4.83,0,0,0,109,77.91a4.65,4.65,0,0,0-1.36,3.49v9.79a17.33,17.33,0,0,1-.08,1.91,3.93,3.93,0,0,1-.52,1.41c-.48,1-1.91,1.5-4.27,1.5s-3.74-.5-4.26-1.5A5.39,5.39,0,0,1,98,93.05a15.18,15.18,0,0,1-.08-1.91V71.55A14.24,14.24,0,0,1,98,69.7a3.89,3.89,0,0,1,.53-1.42q.78-1.38,4.26-1.38c2.25,0,3.63.43,4.15,1.27a4.49,4.49,0,0,1,.55,2.27,5.5,5.5,0,0,1,1-1.1A9.52,9.52,0,0,1,110,68.17,7.31,7.31,0,0,1,114.16,66.9Z"
           style="fill:#ffffff;fill-opacity:1"
           id="path12" />
        <path
           d="M131.48,58.05a12.16,12.16,0,0,1,.09-1.91,5,5,0,0,1,.46-1.47c.52-1,2-1.49,4.32-1.49s3.65.5,4.21,1.49a4.61,4.61,0,0,1,.52,1.5,15.59,15.59,0,0,1,.09,1.93V83.72a5.71,5.71,0,0,0,.33,2.52c.22.35.71.53,1.46.53a8.72,8.72,0,0,1,1.53.08,2.6,2.6,0,0,1,.94.47c.73.48,1.1,1.79,1.1,3.93,0,2.32-.37,3.74-1.1,4.26q-1.44,1-6.87.33c-2.84-.37-4.69-1.31-5.55-2.84q-1.55-2.72-1.55-8.63Z"
           style="fill:#ffffff;fill-opacity:1"
           id="path14" />
        <path
           d="M173.92,67.23q3.27,1.44,3.27,3.49a4.22,4.22,0,0,1-.44,1.88,9,9,0,0,0-.45.94L161.81,106c-.3.7-.55,1.23-.75,1.6a3.46,3.46,0,0,1-1,1.05,2.69,2.69,0,0,1-1.66.5,8.5,8.5,0,0,1-2.93-.83q-3.27-1.44-3.27-3.43,0-1.32,5.32-12.67l-11-18.54a6.09,6.09,0,0,1-1.1-2.71q0-1.77,3-3.54a6.33,6.33,0,0,1,2.93-1.11,3,3,0,0,1,1.71.45,3.34,3.34,0,0,1,1,.91c.2.31,1.22,2,3,5.14s3.56,6,5.22,8.72c.19-.59,1.18-2.87,3-6.83s2.78-6.08,2.91-6.34a5.32,5.32,0,0,1,.63-.94,2.4,2.4,0,0,1,2-.94A8.15,8.15,0,0,1,173.92,67.23Z"
           style="fill:#ffffff;fill-opacity:1"
           id="path16" />
        <path
           d="M178,93.08a2.27,2.27,0,0,1,.37,1.52v.09c0,.26,0,.51,0,.77a1.82,1.82,0,0,1-.23.6c-.22.42-.76.63-1.64.63a2.6,2.6,0,0,1-1.74-.41,2.12,2.12,0,0,1-.43-1.57v-.09a4.82,4.82,0,0,1,0-.76,2.08,2.08,0,0,1,.21-.59c.22-.43.77-.65,1.65-.65A2.66,2.66,0,0,1,178,93.08Z"
           style="fill:#ffffff;fill-opacity:1"
           id="path18" />
        <path
           d="M181.32,86.63a6,6,0,1,1,6.93,9.58,6.21,6.21,0,0,1-2.77.66,5.89,5.89,0,0,1-2.79-.7,6,6,0,0,1-2.27-2.09,5.47,5.47,0,0,1-.93-3.13A5.62,5.62,0,0,1,181.32,86.63ZM184,92.5a2.26,2.26,0,0,0,1.41.53,2.46,2.46,0,0,0,1.44-.54,2.18,2.18,0,0,0,.11-3.08l-.11-.12a2.34,2.34,0,0,0-1.45-.52,2.21,2.21,0,0,0-1.46.54,1.93,1.93,0,0,0-.68,1.6A1.87,1.87,0,0,0,184,92.5Z"
           style="fill:#ffffff;fill-opacity:1"
           id="path20" />
        <path
           d="M199.25,85.2a4.59,4.59,0,0,1,3.63,1.66,6,6,0,0,1,1.45,4.06v3.83a4.7,4.7,0,0,1,0,.75,1.84,1.84,0,0,1-.18.56c-.2.39-.77.59-1.7.59s-1.62-.27-1.78-.81a3.22,3.22,0,0,1-.13-1.11V90.9a1.76,1.76,0,0,0-1.61-1.9,1.71,1.71,0,0,0-.32,0,1.87,1.87,0,0,0-1.39.52,1.76,1.76,0,0,0-.53,1.37v3.85a4.7,4.7,0,0,1,0,.75,1.78,1.78,0,0,1-.2.56c-.19.39-.75.59-1.68.59s-1.47-.2-1.68-.59a2,2,0,0,1-.18-.58,4.7,4.7,0,0,1,0-.75V87a4.33,4.33,0,0,1,0-.72,1.41,1.41,0,0,1,.21-.56c.2-.36.76-.54,1.67-.54s1.43.16,1.63.5a1.73,1.73,0,0,1,.22.89,2.32,2.32,0,0,1,.39-.44,3.68,3.68,0,0,1,.59-.45A2.81,2.81,0,0,1,199.25,85.2Z"
           style="fill:#ffffff;fill-opacity:1"
           id="path22" />
        <path
           d="M217.12,89.56a2.7,2.7,0,0,1-.66,2,2.07,2.07,0,0,1-1.47.64h-5.16a1.19,1.19,0,0,0,.72,1,2.9,2.9,0,0,0,1.44.41,6.18,6.18,0,0,0,2-.26l.24-.09a2.17,2.17,0,0,1,.87-.24c.46,0,.86.33,1.2,1a2.67,2.67,0,0,1,.28,1c0,1.3-1.55,1.94-4.64,1.94a7,7,0,0,1-2.86-.55,4.88,4.88,0,0,1-2-1.47A6.19,6.19,0,0,1,205.74,91a5.68,5.68,0,0,1,1.77-4.39A6.28,6.28,0,0,1,211.94,85a5,5,0,0,1,4.44,2.13A4.45,4.45,0,0,1,217.12,89.56Zm-4.59.64c.55,0,.83-.23.83-.69a1.06,1.06,0,0,0-.38-.81,1.77,1.77,0,0,0-1.09-.3,2.19,2.19,0,0,0-1.4.57,1.6,1.6,0,0,0-.7,1.23Z"
           style="fill:#ffffff;fill-opacity:1"
           id="path24" />
        <circle
           cx="88.05"
           cy="33.61"
           r="4.06"
           style="fill: #323741"
           id="circle26" />
        <line
           x1="99.49"
           y1="19.34"
           x2="99.49"
           y2="56"
           style="fill:none;stroke:#000000;stroke-miterlimit:10;stroke-width:8px;stroke-opacity:1"
           id="line28" />
        <line
           x1="113.16"
           y1="24.31"
           x2="113.16"
           y2="51.03"
           style="fill:none;stroke:#000000;stroke-miterlimit:10;stroke-width:8px;stroke-opacity:1"
           id="line30" />
        <path
           d="M108.81,4h23.73a9.32,9.32,0,0,1,9.32,9.32h0V21.4a9.32,9.32,0,0,1-9.32,9.32h-33V13.32A9.32,9.32,0,0,1,108.81,4Z"
           style="fill:#fff;stroke:#000000;stroke-miterlimit:10;stroke-width:8px;stroke-opacity:1"
           id="path32" />
      </g>
    </g>
  </g>
</svg>
