<svg version="1" xmlns="http://www.w3.org/2000/svg" width="1113.333" height="1113.333" viewBox="0 0 835.000000 835.000000"><path d="M404.7 106.5c-.1.1-4.9.5-10.7.9-5.8.3-16.1 1.5-23 2.6-15.9 2.5-16.9 2.7-26.5 5.2-4.4 1.1-9 2.2-10.2 2.4-4.3.8-23.9 7.6-34.7 12-42.3 17.3-78.7 42.7-111.7 77.9-4.7 5-9 10.3-20.3 24.5-7.6 9.7-20.4 30.6-28.4 46.5-9.6 19-21.3 50.6-23.6 63.7-.2 1.5-.7 3.1-.9 3.5-.6 1-5.4 28-6.2 34.3-2.4 20.1-2.5 61.5-.1 73.5.2 1.1.7 4.9 1.1 8.5.4 3.6.8 6.7 1 7 .2.3.6 2.3.9 4.5.4 2.2 1.8 8.7 3.1 14.5 1.4 5.8 2.8 11.6 3.1 12.9.3 1.4 2.3 7.9 4.6 14.5 22.4 67 64.7 122.2 123.3 161.1 44.7 29.7 94.4 46.9 147.5 51.1 16.8 1.4 47.3.8 61-1.1 1.4-.2 4.8-.6 7.5-.9 23.6-3 57.5-12.6 81-23.1 47.9-21.3 90.9-54.9 120.7-94.4 4-5.3 7.5-9.8 7.8-10.1.7-.6 10.1-14.9 11.6-17.5.6-1.1 2.6-4.5 4.4-7.5 18.2-30.4 34.3-77.1 38.5-111.5.4-2.8.8-6.1 1.1-7.5.9-5.2 1.8-24 1.8-37.5-.1-21.8-1.1-33.4-5.4-58.3-1.5-8.8-5.6-24.4-9.9-37.7-19.4-59.5-56.7-112-107.3-150.6-6.4-4.9-12.1-8.9-12.6-8.9s-1.5-.7-2.2-1.5c-1.8-2.2-21.4-13.7-34.7-20.4-23.4-11.7-50.1-21.1-72.8-25.7-1.1-.2-3.1-.6-4.5-.9-1.4-.3-3.6-.7-5-1-1.4-.3-3.6-.7-5-1-1.4-.2-4.4-.7-6.7-1-2.4-.3-6-.7-8-1-9.9-1.2-18.1-1.7-33.1-1.9-8.9-.2-16.3-.2-16.5-.1zm40.2 80.9c1.2.3 4.2.8 6.5 1 3.9.5 6 .9 11.6 2.1 1.4.3 3.4.7 4.5.9 8.9 1.8 29.8 8.2 36.2 11.1 1.7.8 3.4 1.5 3.7 1.5.8 0 20.6 9.9 25.9 12.9 21.5 12.2 51 37.4 64.1 54.7 9.2 12.1 11.6 15.6 16.2 22.9 17.1 27 28.3 57.6 33.2 91 1.6 10.5 1.9 17.1 1.7 34.5-.2 11.8-.6 22.6-.8 24-.3 1.4-.8 4.8-1.1 7.5-3.5 26.2-17 64.1-30.1 84.5-1.6 2.5-3.5 5.6-4.2 6.8-5.7 10.5-31.7 40.3-45 51.5-6.7 5.5-22.1 16.5-29.8 21.2-7.7 4.7-26.7 14.5-27.9 14.5-.3 0-2.5.9-4.9 1.9-8.3 3.8-27.8 9.9-37 11.6-1.2.3-4.4.9-7.2 1.5-7.9 1.5-10.6 1.9-17.5 2.7-8.9 1-43 1-51 0-46.5-5.6-88.8-23.8-124.5-53.7-7.9-6.5-26.8-26.5-33.6-35.5-26-34.2-42.3-74.6-46.6-115.5-1-9.4-1-40-.1-50 1.9-19.5 8.8-47 15.4-61.8 1.3-2.9 2.4-5.5 2.4-5.8 0-.3 2.3-5.1 5.1-10.7 17.2-34.3 40.1-61.4 72.4-85.5 11.3-8.4 33-20.3 48.5-26.5 8.5-3.4 26.3-9.2 31-10.1 1.4-.3 7.2-1.4 13-2.6 5.8-1.1 13.9-2.4 18-2.7 4.1-.3 7.7-.7 7.9-.9.6-.6 41.3.3 44 1z"/></svg>