<svg version="1" xmlns="http://www.w3.org/2000/svg" width="346.667" height="346.667" viewBox="0 0 260.000000 260.000000"><path d="M226 21.1c-16.8 9.8-30.9 18.5-31.5 19.3-.7 1.1-.2 2.1 2 3.8 1.7 1.3 4.5 3.6 6.3 5.3l3.4 3L175.6 90c-16.8 20.6-31.2 37.9-32 38.4-1 .7-5-2.1-14.9-10.2-7.5-6.2-13.8-11.2-14-11.2-.3 0-5.7 6.4-12 14.2-6.3 7.9-29.5 36.3-51.5 63.2l-40 49 6 5c4.3 3.5 6.4 4.7 7.3 4 .9-.6 86-104.4 92-112.2.2-.2 6.6 4.9 14.3 11.3 7.8 6.3 14.3 11.5 14.5 11.5.5 0 .5 0 43.1-52.3 26.9-32.9 31.1-37.6 32.5-36.5.9.7 3.9 3.2 6.8 5.5 2.8 2.4 5.6 4.3 6.1 4.3 1.2 0 .7 1.4 11.4-29.5 4.9-14.3 10-29 11.3-32.7 1.8-5.1 2.1-6.9 1.1-7.7-.8-.7-10 4.2-31.6 17z"/><path d="M109.6 21.6c-19.5 3.8-37.7 12.7-51.9 25.2C33.2 68.5 20 97.4 20 129.6c0 19.3 4.4 37.2 13 52.9 6.4 11.7 5.8 11.4 10.9 4.9l4.3-5.6-4-8.1c-2.3-4.5-5.3-12.3-6.8-17.2-2.6-8.2-2.8-10.4-2.8-26-.1-18.4.5-22.1 6.3-37.2 8.4-21.7 28.8-42.5 50.9-51.8 14.1-5.9 19.9-7 38.2-7 17.9 0 22.4.8 36.6 6.5 7.8 3.1 15.5 7.7 24.1 14.2l5.2 4 2.5-2.9 2.5-2.8-3.2-2.5c-7.6-6-8.1-6.7-8-10.3.1-3.3-.3-3.7-7.1-7.5-8.7-4.9-21.7-9.6-32.6-11.6-10.1-1.9-30.8-1.9-40.4 0zM215.4 73.5l-3.7 4.6 4.6 9.7c7.8 16.4 9.2 22.9 9.1 42.7 0 15.5-.3 17.8-2.7 25.8-10.1 32.8-33.6 56.3-66.4 66.4-8 2.4-10.3 2.7-25.8 2.7-18.3.1-24.5-1-38.8-7-5.8-2.4-18.6-10.5-24.9-15.5l-2.7-2.2-2.8 3.3c-5.7 6.8-5.8 6.9-3.2 9.7 7.3 7.8 29 19.1 44.6 23.3 12.3 3.4 35.6 3.9 49.1 1.1 42-8.7 73.6-38.9 85.4-81.9 1.8-6.5 2.2-10.4 2.2-25.7 0-16.3-.3-18.9-2.7-27.7-3.3-12.5-11.1-29.3-14.8-31.9l-2.7-1.9-3.8 4.5z"/></svg>