<svg version="1" xmlns="http://www.w3.org/2000/svg" width="333.333" height="333.333" viewBox="0 0 250.000000 250.000000"><path d="M119 35.4c-10.5 3-21.4 11.6-25.9 20.4-2.9 5.8-5.1 14.6-5.1 20.9 0 4.9-.2 5.3-2.4 5.3-5.1 0-22.1 5.1-30.9 9.3-57 27.2-57.7 91-1.2 119.4 15.3 7.8 31.1 10.8 52.2 10 27.2-1 47.8-9.3 64.9-26.3 13.4-13.4 20.4-30.2 19.2-46.5l-.4-5.9h10.1c6.3 0 12.2-.6 15.6-1.6 11.2-3.3 20.8-11.7 26.2-23.2 3.2-6.7 3.2-6.8 3.6-25.7.2-12.4-.1-20.9-.9-24.5-2.8-12.8-11.5-23.5-23.8-29.3l-6.7-3.2-45-.2c-33.9-.1-46.1.1-49.5 1.1zm92 25.8c3.3 1.7 5.1 3.5 6.8 6.8 2 4 2.2 5.8 2.2 20.3 0 17.8-1 21.4-7.2 25.9l-3.3 2.3-48.2.3-48.3.3V94.7c0-21.4.1-22.6 2.3-26.8 1.6-3.1 3.6-5.1 6.7-6.7 4.4-2.2 4.9-2.2 44.5-2.2s40.1 0 44.5 2.2zM88 151c0 41.4-.1 44-1.8 44-3.8 0-17.1-4.3-23.7-7.8-8.5-4.4-19.1-14.6-22.5-21.7-2-4.1-2.4-6.6-2.5-14 0-7.8.4-9.8 2.7-14.8 5.7-12.2 21-23.1 38.8-27.7 4.1-1 7.8-1.9 8.3-1.9.4-.1.7 19.7.7 43.9zm42.2 15.5l.3 24.6-5 1.5c-2.7.8-6.7 1.7-8.7 2.1l-3.8.6V142h16.9l.3 24.5zm34-20.5c1.1 5.1 0 12.7-2.9 19.2-4.7 10.7-5.3 9.9-5.3-7.6v-15.7l3.7.3c3.4.3 3.8.7 4.5 3.8z"/><path d="M57.9 128.3c-3.9 2.6-6.6 8.9-5.6 12.9s5.4 8.6 9.3 9.7c7.3 2 15.1-3.1 16.1-10.6 1.5-11-10.5-18.2-19.8-12z"/></svg>